<svg xmlns="http://www.w3.org/2000/svg"
     width="512" height="512"
     viewBox="0 0 512 512">
  <g transform="translate(67.831 0.000) scale(3.899467)">
<defs>
    <style>
      .cls-1 {
        stroke-width: 0px;
      }
    </style>
  </defs>
  <g id="Layer_1-2" data-name="Layer 1">
    <g>
      <path class="cls-1" d="m12.11,49.58l1.58-11.02c.5-3.46.87-6.43,1.1-8.89.11.31.23.62.35.95.93,2.49,2.03,5.22,3.27,8.1l6.82,15.76h11.26l7.75-19.53c1.15-3.03,2.17-6.32,3.06-9.8.33-1.3.61-2.49.86-3.6.29,1.17.64,2.45,1.06,3.81,1.09,3.59,2.22,6.92,3.36,9.92l7.43,18.89h11.26l6.82-15.44c1.22-2.74,2.37-5.43,3.42-8,.14-.35.28-.7.42-1.03.01.19.02.38.04.57.16,2.28.44,5.06.86,8.29l1.57,11.03,12.11-2.15-6.35-34.27,3.27-7.24L81.6.01l-8.12,18.06c-1.04,2.38-2.12,5.28-3.21,8.62-1.08,3.31-2.03,6.45-2.8,9.35-.25.94-.47,1.79-.66,2.56-.25-.87-.55-1.84-.88-2.92-.92-2.97-1.94-6.13-3.02-9.38-1.08-3.25-2.11-6.06-3.03-8.32L53.06,0h-9.78l-6.65,18.16c-.73,2.09-1.6,4.79-2.57,8.02-.99,3.26-1.85,6.43-2.57,9.43-.23.96-.44,1.85-.62,2.67-.24-.78-.53-1.63-.85-2.56-1.03-2.94-2.18-6.05-3.42-9.24-1.24-3.2-2.45-6.04-3.58-8.41L14.91.01,3.07,5.93l3.27,7.24L0,47.43l12.11,2.15Z"/>
      <path class="cls-1" d="m72.88,103c-4.62-5.45-9.71-10.84-15.13-16.04,3.6-3.33,7.17-6.66,10.63-9.93,3.75-3.55,7.29-6.47,10.52-8.7l.54-.37v-11.65H17.22v11.65l.54.37c3.23,2.22,6.77,5.14,10.52,8.69,3.46,3.27,7.03,6.61,10.64,9.94-5.33,5.19-10.39,10.57-15.06,16.02-4.99,5.82-9.92,12.91-14.67,21.07l-.67,1.16,12.33,6.07.58-1.05c3.46-6.32,6.87-11.76,10.12-16.18,3.26-4.43,6.55-8.37,9.79-11.7,3.34-3.42,5.62-6.17,6.92-8.32.48.91,1.11,1.85,1.88,2.81,1.27,1.58,2.89,3.52,4.85,5.78,3.16,3.47,6.5,7.41,9.92,11.69,3.4,4.26,6.87,9.61,10.32,15.91l.58,1.05,12.33-6.07-.68-1.16c-4.76-8.17-9.67-15.26-14.59-21.06Zm-33.05-35.22h17.02c1.74,0,3.37-.04,4.85-.12-.54.38-1.1.81-1.7,1.3-2.04,1.67-3.9,3.24-5.54,4.68-2.25,2.04-3.8,3.64-4.73,4.9-.52.7-.97,1.36-1.38,1.98-.47-.72-1.03-1.48-1.69-2.27-1.07-1.28-2.57-2.79-4.44-4.44-1.56-1.46-3.38-3.06-5.38-4.76-.62-.53-1.21-.99-1.78-1.39,1.46.08,3.06.11,4.76.11Z"/>
    </g>
  </g>
  </g>
</svg>