<svg xmlns="http://www.w3.org/2000/svg"
     width="512" height="512"
     viewBox="0 0 512 512">
  <g transform="translate(25.912 0.000) scale(4.055124)">
<defs>
    <style>
      .cls-1 {
        stroke-width: 0px;
      }
    </style>
  </defs>
  <g id="Layer_1-2" data-name="Layer 1">
    <path class="cls-1" d="m35.89,126.26h21.07v-12.25h-21.07v12.25Zm70-52.38c-1.65-1.49-3.12-2.83-4.4-4.02-1.38-1.27-1.53-1.99-1.53-2.25,0-.37,0-1.48,2.4-2.48,1.99-.82,5.22-1.44,9.61-1.84l1.51-.14-3.2-11.01-1.08.16c-7.98,1.17-13.45,2.72-16.72,4.74-3.47,2.14-5.23,5.44-5.23,9.8,0,2.83.7,5.26,2.09,7.22,1.3,1.85,2.87,3.5,4.66,4.9,1.69,1.33,3.15,2.54,4.36,3.59.96.84,1.43,1.67,1.43,2.54,0,.34,0,1.39-2.51,2.13-2.18.65-5.48,1.18-9.82,1.58l-1.43.13,2.58,10.91,1.03-.04c5.97-.21,10.64-.85,13.88-1.92,3.39-1.11,5.79-2.65,7.13-4.57,1.33-1.91,2-4.1,2-6.52,0-2.81-.72-5.33-2.14-7.5-1.34-2.04-2.9-3.86-4.61-5.42Zm-37.35,11.07h14.26L93,0h-13.98l-7.73,73.48h-8.08L66.92,0h-13.66l-2.94,73.48h-7.65L39.74,0h-13.81l3.71,73.48h-8.07L13.98,0H0l10.04,84.95h15.19c1.98,0,4.19-.05,6.55-.16,2.11-.09,4.11-.21,5.96-.34-.39.3-.77.62-1.14.96-1.54,1.43-3.24,3.7-5.17,6.93-1.56,2.6-3.3,5.94-5.17,9.94-1.86,3.98-3.62,8.04-5.21,12.06-1.6,4.02-2.93,7.47-3.96,10.24l-.62,1.68h13.68l.29-.86c.81-2.44,1.85-5.36,3.08-8.7,1.24-3.37,2.59-6.79,4-10.16,1.42-3.4,2.94-6.62,4.51-9.56,1.24-2.31,2.46-4.29,3.67-5.9,1.19,1.46,2.45,3.32,3.74,5.55,1.67,2.88,3.34,6.1,4.98,9.57,1.65,3.51,3.18,6.98,4.54,10.31,1.38,3.36,2.54,6.37,3.46,8.92l.3.83h13.75l-.55-1.65c-.94-2.81-2.28-6.28-3.98-10.3-1.68-3.98-3.54-8.13-5.51-12.34-1.97-4.2-3.92-7.86-5.79-10.87-1.78-2.9-3.65-5.12-5.61-6.64,1.88.14,4.01.26,6.35.35,2.56.1,4.97.16,7.17.16Z"/>
  </g>
  </g>
</svg>