<svg xmlns="http://www.w3.org/2000/svg"
     width="512" height="512"
     viewBox="0 0 512 512">
  <g transform="translate(90.024 0.000) scale(4.055124)">
<defs>
    <style>
      .cls-1 {
        stroke-width: 0px;
      }
    </style>
  </defs>
  <g id="Layer_1-2" data-name="Layer 1">
    <g>
      <path class="cls-1" d="m77.52,11.63c-2.86-2.69-6.24-4.05-10.06-4.05-2.34,0-4.86.64-7.5,1.9-2.53,1.22-5.02,2.71-7.39,4.45-2.36,1.73-4.36,3.41-5.94,5l-.84.84,7.4,8.2.93-.93c.91-.91,2.15-2.07,3.66-3.44,1.47-1.32,3.09-2.5,4.81-3.48,2.94-1.68,5.5-1.94,7.14-.23.76.8,1.13,1.68,1.13,2.7,0,1.39-.5,2.85-1.49,4.33-1.08,1.61-2.34,3.1-3.76,4.42-1.5,1.4-2.74,2.58-3.67,3.51l-.92.92,7.87,7.27.85-.85c1.67-1.67,3.44-3.62,5.26-5.81,1.85-2.22,3.46-4.61,4.78-7.1,1.38-2.59,2.08-5.11,2.08-7.47,0-4.05-1.46-7.48-4.34-10.19Z"/>
      <path class="cls-1" d="m61.93,44.46c-4.2-2.22-7.62-5.09-10.18-8.54-2.61-3.51-4.8-7.3-6.51-11.27-1.72-4.01-3.45-7.89-5.12-11.55-1.7-3.72-3.73-6.83-6.03-9.24-2.45-2.57-5.75-3.87-9.8-3.87H0v126.26h79.38V47.8h-1.25c-6.57,0-12.02-1.12-16.2-3.34ZM21.83,12.25c1.86,0,3.35.8,4.56,2.43,1.38,1.87,2.74,4.36,4.03,7.41,1.32,3.1,2.83,6.54,4.5,10.23,1.68,3.73,3.86,7.42,6.48,10.98,2.65,3.61,6.09,6.83,10.21,9.58,3.91,2.61,8.77,4.48,14.45,5.57v55.56H12.87V12.25h8.96Z"/>
    </g>
  </g>
  </g>
</svg>