<svg xmlns="http://www.w3.org/2000/svg"
     width="512" height="512"
     viewBox="0 0 512 512">
  <g transform="translate(30.088 0.000) scale(4.030544)">
<defs>
    <style>
      .cls-1 {
        stroke-width: 0px;
      }
    </style>
  </defs>
  <g id="Layer_1-2" data-name="Layer 1">
    <path class="cls-1" d="m108.29,37.23l-1.28.64c-.8.4-1.7.8-2.69,1.2-.19.07-.37.15-.55.21l2.11-8.29-11-1.63-1.43,12.07c-1.03.13-1.85.21-2.44.25-.32.02-.66.04-1.03.05l2.57-10.75-11-1.63-1.22,11.59c-.84-.34-1.54-.87-2.11-1.58-.86-1.07-1.27-2.25-1.27-3.63,0-1.85.37-3.47,1.09-4.83.79-1.48,1.74-2.96,2.83-4.4,1.17-1.55,2.21-3.23,3.07-5.01.9-1.87,1.36-4.05,1.36-6.5,0-4.8-1.61-8.56-4.79-11.18-3.11-2.55-7.69-3.84-13.63-3.84-5.21,0-9.65,2.16-13.18,6.41-2.56,3.07-4.36,6.81-5.38,11.15-1.3-4.36-3.35-8.11-6.11-11.19C38.42,2.14,32.46,0,24.5,0c-3.72,0-7.74.16-11.93.47-4.22.31-8.07.9-11.43,1.74l-1.14.29,2.14,11.45,6.91-.92,7.73,54.14,13.04-1.73-.22-1.28c-.41-2.38-.8-4.52-1.16-6.44-.29-1.52-.7-3.28-1.22-5.24h14.9v74.56h13.33V45.18c0-8.46.41-15.24,1.22-20.14.78-4.74,2.06-8.12,3.79-10.04,1.68-1.86,3.78-2.76,6.42-2.76,1.75,0,3.23.29,4.39.87.57.28,1.32.87,1.32,2.67,0,1.7-.53,3.26-1.62,4.76-1.26,1.73-2.55,3.71-3.85,5.9-1.4,2.35-2.11,5.48-2.11,9.3s1.37,7.35,4.09,10.55c2.42,2.87,5.49,4.92,9.12,6.09l-2.51,10.03,11.33,2.02.95-11.22c.62-.01,1.32-.03,2.07-.07.48-.02.92-.04,1.32-.07l-2.37,9.33,11.32,2.02,1.28-12.84c1.49-.37,3.02-.8,4.56-1.28,1.8-.57,3.37-1.05,4.71-1.47l1.23-.38-3.81-11.24ZM24.5,12.25c5.6,0,9.76,2.08,12.74,6.35,2.92,4.19,4.6,11.46,4.99,21.62h-16.65l-2.63-17.8c-.41-2.87-.75-5.07-1.01-6.54-.19-1.08-.48-2.29-.86-3.63h3.42Z"/>
  </g>
  </g>
</svg>