<svg xmlns="http://www.w3.org/2000/svg"
     width="512" height="512"
     viewBox="0 0 512 512">
  <g transform="translate(71.612 0.000) scale(4.006260)">
<defs>
    <style>
      .cls-1 {
        stroke-width: 0px;
      }
    </style>
  </defs>
  <g id="Layer_1-2" data-name="Layer 1">
    <path class="cls-1" d="m91.99,126.49c-.41-8.36-1.28-17.52-2.56-27.25-1.29-9.75-2.96-19.66-4.96-29.48-1.88-9.23-4.14-18.06-6.71-26.27h4.8v-12.25h-9.21c-3.46-8.89-7.45-16.3-11.86-22.02C56.77,3.1,51.52,0,45.88,0c-5.34,0-10.39,3.11-15,9.24-4.3,5.72-8.28,13.12-11.84,22.01h-9.06v12.25h4.81c-2.48,8-4.74,16.67-6.71,25.79-2.11,9.73-3.86,19.6-5.2,29.33-1.34,9.72-2.28,19.1-2.79,27.86l-.08,1.32h13.34l.07-1.18c.51-8.77,1.47-18.32,2.85-28.37,1.34-9.7,2.95-19.27,4.81-28.47h49.48c1.96,9.31,3.65,18.91,5.03,28.55,1.43,9.97,2.42,19.48,2.93,28.28l.07,1.18h13.48l-.06-1.31ZM31.78,31.25c2.13-5.27,4.45-9.59,6.9-12.85,2.52-3.36,4.94-5.07,7.2-5.07s4.68,1.71,7.2,5.07c2.44,3.26,4.76,7.57,6.9,12.85h-28.19Zm36.02,26.3H23.96c.59-2.39,1.21-4.74,1.85-6.99.68-2.41,1.35-4.76,1.99-7.06h36.05c1.39,4.25,2.72,8.97,3.96,14.05Z"/>
  </g>
  </g>
</svg>