<svg xmlns="http://www.w3.org/2000/svg"
     width="512" height="512"
     viewBox="0 0 512 512">
  <g transform="translate(12.449 0.000) scale(3.501812)">
<defs>
    <style>
      .cls-1 {
        stroke-width: 0px;
      }
    </style>
  </defs>
  <g id="Layer_1-2" data-name="Layer 1">
    <path class="cls-1" d="m135.03,4.17c-2.71-2.76-6.39-4.17-10.95-4.17s-7.98,1.64-10.23,4.87c-2.15,3.09-3.24,6.61-3.24,10.46,0,2.69.38,5.4,1.13,8.07.5,1.78,1.25,3.37,2.26,4.76H25.02c.97-1.38,1.73-2.96,2.26-4.73.8-2.68,1.21-5.4,1.21-8.09,0-3.85-1.06-7.36-3.16-10.45C23.14,1.64,19.67,0,15.02,0S6.78,1.4,4.07,4.17C1.37,6.92,0,10.78,0,15.64c0,3.56.66,6.88,1.96,9.86,1.24,2.85,3.18,5,5.77,6.38v11.45c0,8.3,1.5,15.66,4.45,21.88,2.73,5.76,6.29,10.77,10.58,14.92-1.29,1.3-2.28,2.84-2.96,4.59-.83,2.15-1.24,4.51-1.24,7.02,0,3.33.57,6.59,1.7,9.71,1.1,3.05,3.08,5.35,5.88,6.85v37.91h13.33v-37.93c2.49-1.39,4.36-3.54,5.55-6.39,1.03-2.47,1.68-5.09,1.93-7.83,1.59.51,3.21.97,4.82,1.36,1.61.39,3.24.73,4.86,1.01-.62,1.91-.94,3.96-.94,6.12,0,3.33.57,6.6,1.7,9.71,1.1,3.05,3.08,5.35,5.88,6.85v27.08h13.33v-27.11c2.59-1.48,4.51-3.67,5.7-6.53,1.24-2.98,1.88-6.24,1.88-9.69,0-2.42-.38-4.6-1.15-6.52,1.58-.33,3.22-.69,4.9-1.08,1.68-.39,3.34-.85,4.94-1.36.18,2.57.76,5.15,1.72,7.7,1.15,3.03,3.1,5.27,5.8,6.68v37.9h13.33v-37.94c2.59-1.48,4.51-3.67,5.7-6.53,1.24-2.98,1.87-6.24,1.87-9.69,0-2.85-.53-5.43-1.59-7.65-.84-1.76-1.91-3.25-3.21-4.47,4.18-4.13,7.67-9.1,10.4-14.79,2.96-6.18,4.45-13.52,4.45-21.81v-11.45c2.59-1.39,4.53-3.53,5.77-6.38,1.3-2.98,1.96-6.3,1.96-9.86,0-4.85-1.37-8.71-4.07-11.47ZM11.71,11.59c.16-.3.65-1.2,2.84-1.2,1.62,0,2.1.6,2.34,1.12.49,1.07.74,2.41.74,3.97,0,1.75-.22,3.61-.66,5.52-.33,1.44-1.1,2.05-2.57,2.05-1.6,0-2.44-.6-2.81-2.01-.49-1.84-.73-3.71-.73-5.56,0-1.54.29-2.84.86-3.89Zm8.89,34.83c0-1.71.05-3.01.15-3.89.07-.64.14-1.35.21-2.13h97.32c.06.77.1,1.56.14,2.36.05,1.24.08,2.47.08,3.66,0,6.44-1.52,12.15-4.53,16.97-3.04,4.88-7.05,9.02-11.94,12.31-4.92,3.31-10.3,5.84-15.97,7.49-5.69,1.66-11.22,2.5-16.43,2.5-4.91,0-10.29-.84-15.97-2.5-5.68-1.66-11.11-4.18-16.14-7.5-4.99-3.29-9.1-7.43-12.24-12.32-3.1-4.82-4.67-10.53-4.67-16.96Zm12.05,53.05c-1.38,0-2.13-.62-2.5-2.08-.49-1.89-.73-3.74-.73-5.49,0-1.48.21-2.76.61-3.8.18-.46.49-.94,1.41-1.1.73.44,1.52.88,2.36,1.3.73.36,1.44.76,2.13,1.17.18.71.28,1.52.28,2.43,0,1.84-.25,3.71-.73,5.56-.37,1.41-1.21,2.01-2.81,2.01Zm74.25,0c-1.38,0-2.13-.62-2.5-2.08-.49-1.9-.73-3.74-.73-5.49,0-1.09.09-2.01.28-2.74.65-.4,1.3-.77,1.92-1.1.67-.35,1.32-.75,1.95-1.18,1.25.26,1.68.86,1.9,1.31.48,1.02.73,2.27.73,3.72,0,1.84-.25,3.71-.73,5.56-.37,1.41-1.21,2.01-2.81,2.01Zm21.33-83.98c0,1.84-.25,3.71-.73,5.56-.37,1.41-1.21,2.01-2.81,2.01-1.38,0-2.13-.62-2.5-2.08-.49-1.89-.73-3.74-.73-5.49,0-1.57.25-2.9.74-3.97.22-.48.7-1.13,2.34-1.13,2.19,0,2.68.91,2.84,1.2.57,1.05.85,2.36.85,3.89Zm-58.46,94.81c-1.38,0-2.13-.62-2.5-2.08-.49-1.89-.73-3.74-.73-5.49,0-1.57.25-2.9.74-3.97.22-.48.7-1.12,2.34-1.12,2.19,0,2.68.9,2.84,1.2.57,1.05.85,2.36.85,3.89,0,1.84-.25,3.71-.73,5.56-.37,1.41-1.21,2.01-2.81,2.01Z"/>
  </g>
  </g>
</svg>