<svg xmlns="http://www.w3.org/2000/svg"
     width="512" height="512"
     viewBox="0 0 512 512">
  <g transform="translate(95.985 0.000) scale(4.055124)">
<defs>
    <style>
      .cls-1 {
        stroke-width: 0px;
      }
    </style>
  </defs>
  <g id="Layer_1-2" data-name="Layer 1">
    <path class="cls-1" d="m78.92,13.33V0H0v42.12l9.39,2.54.43-.99c1.33-3.05,3.36-5.44,6.01-7.1,2.67-1.67,5.83-2.52,9.39-2.52,2.9,0,4.94.89,6.25,2.72,1.4,1.97,2.09,4.11,2.09,6.54,0,3.25-.82,6.23-2.44,8.86-1.72,2.78-3.76,5.59-6.08,8.36-2.42,2.9-4.56,6.15-6.34,9.67-1.84,3.61-2.77,7.99-2.77,13.02,0,5.88,1.27,12.68,3.78,20.2,2.5,7.49,6.03,14.97,10.49,22.23l.37.6h15.79l-1.38-1.97c-3.34-4.76-6.22-9.84-8.54-15.1-2.33-5.26-4.13-10.35-5.35-15.12-1.21-4.72-1.82-8.78-1.82-12.07s.83-6.43,2.47-9.37c1.72-3.08,3.77-6.2,6.09-9.29,2.4-3.18,4.52-6.52,6.3-9.92,1.84-3.52,2.77-7.28,2.77-11.18,0-6.17-1.8-11.25-5.36-15.08-3.58-3.86-8.92-5.81-15.84-5.81-2.93,0-5.71.5-8.26,1.48-1.54.59-2.91,1.29-4.1,2.09v-11.59h65.59Z"/>
  </g>
  </g>
</svg>