<svg xmlns="http://www.w3.org/2000/svg"
     width="512" height="512"
     viewBox="0 0 512 512">
  <g transform="translate(67.931 0.000) scale(3.897389)">
<defs>
    <style>
      .cls-1 {
        stroke-width: 0px;
      }
    </style>
  </defs>
  <g id="Layer_1-2" data-name="Layer 1">
    <g>
      <path class="cls-1" d="m12.11,49.58l1.58-11.02c.5-3.46.87-6.43,1.1-8.89.11.31.23.63.35.95.93,2.48,2.03,5.21,3.27,8.1l6.82,15.76h11.26l7.75-19.53c1.15-3.03,2.18-6.32,3.06-9.8.33-1.28.61-2.49.86-3.6.29,1.17.64,2.45,1.06,3.81,1.09,3.59,2.22,6.92,3.36,9.92l7.43,18.89h11.26l6.83-15.44c1.23-2.76,2.38-5.45,3.42-8,.14-.36.28-.7.42-1.03.01.19.02.38.04.57.16,2.29.44,5.07.86,8.29l1.57,11.03,12.11-2.15-6.35-34.27,3.27-7.24L81.6.01l-8.12,18.06c-1.04,2.39-2.12,5.29-3.21,8.62-1.09,3.32-2.03,6.46-2.8,9.35-.25.94-.47,1.79-.66,2.56-.25-.87-.55-1.84-.88-2.92-.94-3.02-1.96-6.18-3.02-9.38-1.08-3.25-2.11-6.06-3.03-8.32L53.06,0h-9.78l-6.65,18.16c-.73,2.09-1.6,4.79-2.57,8.02-.98,3.24-1.85,6.42-2.57,9.43-.23.97-.44,1.85-.62,2.67-.24-.78-.53-1.63-.85-2.55-1.03-2.94-2.18-6.05-3.42-9.24-1.24-3.19-2.45-6.03-3.58-8.41L14.91.01,3.07,5.93l3.27,7.24L0,47.43l12.11,2.15Z"/>
      <rect class="cls-1" x="41.05" y="103.18" width="13.33" height="26.32"/>
      <path class="cls-1" d="m8.56,68.56h16.41c3.14,0,6.34-.21,9.52-.63,1.7-.22,3.04-.4,4.04-.53-4.15,8.32-8.16,17.3-11.93,26.75-4.01,10.02-7.92,20.8-11.63,32.02l-.4,1.21,12.78,4.01.37-1.21c5.43-17.91,11.34-34.26,17.61-48.64.53-1.39,1.12-3.33,1.75-5.79.2-.78.39-1.56.55-2.34.18.79.37,1.59.58,2.41.64,2.56,1.16,4.33,1.62,5.46,6.35,14.43,12.58,30.9,18.52,48.93l.39,1.18,12.45-4.02-.41-1.2c-3.69-10.76-7.55-21.29-11.47-31.3-3.7-9.44-7.82-18.54-12.26-27.08,1.28.1,2.88.24,4.8.4,3,.26,6.21.39,9.54.39h14.4v-12.25H8.56v12.25Z"/>
    </g>
  </g>
  </g>
</svg>