<svg xmlns="http://www.w3.org/2000/svg"
     width="512" height="512"
     viewBox="0 0 512 512">
  <g transform="translate(131.557 0.000) scale(4.030544)">
<defs>
    <style>
      .cls-1 {
        stroke-width: 0px;
      }
    </style>
  </defs>
  <g id="Layer_1-2" data-name="Layer 1">
    <path class="cls-1" d="m61.75,40.22h-14.54l-3.67-27.25c1.63.15,3.45.42,5.43.8l1.25.24,2.13-12.03-1.18-.26c-3.35-.73-6.88-1.21-10.48-1.42-3.58-.21-6.86-.31-9.74-.31C21.2,0,13.5,3.57,8.07,10.62,2.72,17.57,0,29.2,0,45.18v81.85h13.33V52.47h22.72l2.03,14.7,12.54-1.74-1.83-12.96h12.96v-12.25Zm-27.27,0H13.37c.26-7.17,1.08-12.86,2.45-16.91,1.39-4.13,3.4-7.03,5.97-8.62,2.38-1.47,5.41-2.29,9-2.42l3.69,27.95Z"/>
  </g>
  </g>
</svg>