<svg xmlns="http://www.w3.org/2000/svg"
     width="512" height="512"
     viewBox="0 0 512 512">
  <g transform="translate(104.044 0.000) scale(3.961315)">
<defs>
    <style>
      .cls-1 {
        stroke-width: 0px;
      }
    </style>
  </defs>
  <g id="Layer_1-2" data-name="Layer 1">
    <g>
      <rect class="cls-1" x="43.28" y="10.56" width="13.33" height="22.92"/>
      <rect class="cls-1" x="23.17" y="10.56" width="13.33" height="22.92"/>
      <rect class="cls-1" x="63.39" y="10.56" width="13.33" height="22.92"/>
      <path class="cls-1" d="m18.81,39.08c-1.81-.95-2.73-3.72-2.73-8.25,0-1.87.25-3.96.75-6.23.53-2.45.8-4.88.8-7.23,0-3.42-.49-6.6-1.46-9.45-.93-2.75-1.83-5.1-2.67-6.99l-.41-.93L0,2.89l.72,1.44c1.1,2.2,1.98,4.37,2.63,6.46.63,2.04.95,4.36.95,6.9,0,1.97-.25,4.23-.75,6.72-.53,2.64-.8,4.86-.8,6.59,0,6.01,1.12,10.65,3.32,13.79,2.22,3.17,5.31,5.34,9.19,6.44,3.26.93,6.97,1.5,11.04,1.69-.31,1-.66,2.13-1.06,3.38-.63,1.98-1.26,4.47-1.89,7.39l-13.42,63.48,13.31,2.09,13.54-64.72c.83-3.64,1.36-6.52,1.57-8.58.13-1.24.23-2.23.32-2.98h5.99c.16,1.33.32,2.74.48,4.22.21,1.94.68,4.62,1.41,7.94l13.86,64.12,13.15-2.1-13.58-62.7c-.84-4.01-1.56-6.91-2.2-8.87-.33-1.01-.61-1.88-.85-2.62h19.79v-12.25H28.29c-4.21,0-7.4-.55-9.48-1.64Z"/>
    </g>
  </g>
  </g>
</svg>