<svg xmlns="http://www.w3.org/2000/svg"
     width="512" height="512"
     viewBox="0 0 512 512">
  <g transform="translate(110.088 0.000) scale(4.020732)">
<defs>
    <style>
      .cls-1 {
        stroke-width: 0px;
      }
    </style>
  </defs>
  <g id="Layer_1-2" data-name="Layer 1">
    <path class="cls-1" d="m58.8,59.74h13.78v-12.25h-14.24c-3.88,0-7.46.35-10.63,1.03-.87.19-1.65.36-2.35.52.98-.92,1.96-1.96,2.95-3.13,2.05-2.43,3.76-5.55,5.1-9.28,1.33-3.73,2.01-8.09,2.01-12.95,0-3.94-.65-7.73-1.93-11.26-1.32-3.63-3.66-6.65-6.96-8.95-3.29-2.31-7.96-3.47-13.87-3.47-3.27,0-7.16.48-11.55,1.42l-1.21.26,2.18,10.92,1.21-.22c1.13-.2,2.49-.43,4.08-.69,1.53-.25,3.26-.37,5.14-.37,3.26,0,5.71.74,7.26,2.21.4.38.77.77,1.1,1.18-.43-.09-.88-.16-1.37-.24-1.09-.16-2.09-.25-2.97-.25-5.57,0-10.1,1.65-13.48,4.92-3.38,3.27-5.1,7.82-5.1,13.51,0,2.88.7,5.65,2.08,8.24,1.35,2.54,3.06,4.74,5.07,6.53.41.37.83.71,1.24,1.03-.15-.03-.3-.06-.45-.1-2.71-.58-6-.88-9.78-.88H0v12.25h15.79c2.92,0,5.88-.16,8.8-.47,1.53-.16,2.83-.31,3.91-.44-1.68,1.99-3.27,4.93-4.82,8.87-2.03,5.15-4.1,12.52-6.17,21.92-2.06,9.35-4.19,21.55-6.36,36.28l-.21,1.43h12.89l.16-1.07c2.97-20.39,5.62-35.48,7.87-44.83,2.17-9.03,3.51-11.93,4.12-12.85.57,1,1.75,3.97,3.73,12.76,2.1,9.33,4.93,24.45,8.42,44.95l.18,1.04h13.21l-.24-1.46c-2.47-14.68-4.76-26.86-6.82-36.18-2.07-9.35-4.09-16.67-6.01-21.75-1.53-4.04-3.11-7.06-4.82-9.16,1.22.14,2.78.3,4.69.48,3.32.31,6.85.47,10.48.47Zm-17.72-19.43c-1.64,2.88-3.21,4.4-4.56,4.4-1.45,0-2.97-.99-4.51-2.93-1.62-2.03-2.44-5.1-2.44-9.12,0-1.82.54-3.63,1.6-5.39.95-1.57,2.7-2.34,5.35-2.34,1.34,0,2.65.15,3.9.43l1.31.3,1.12-7.15c.04.14.08.29.12.43.54,2.22.82,4.33.82,6.28,0,6.86-.91,11.94-2.7,15.08Z"/>
  </g>
  </g>
</svg>