<svg xmlns="http://www.w3.org/2000/svg"
     width="512" height="512"
     viewBox="0 0 512 512">
  <g transform="translate(71.592 0.000) scale(4.006260)">
<defs>
    <style>
      .cls-1 {
        stroke-width: 0px;
      }
    </style>
  </defs>
  <g id="Layer_1-2" data-name="Layer 1">
    <g>
      <rect class="cls-1" x="38.75" y="41.15" width="13.33" height="71.19"/>
      <path class="cls-1" d="m91.99,126.49c-.41-7.93-1.22-16.6-2.41-25.77-1.19-9.17-2.73-18.57-4.58-27.93-1.85-9.37-4.07-18.46-6.6-27.03-2.54-8.58-5.45-16.37-8.66-23.15-3.24-6.84-6.86-12.34-10.75-16.35-4.04-4.15-8.46-6.26-13.12-6.26-4.36,0-8.52,2.06-12.36,6.12-3.68,3.89-7.16,9.23-10.35,15.86-3.16,6.57-6.09,14.2-8.73,22.68-2.63,8.47-4.96,17.49-6.91,26.8-1.96,9.31-3.57,18.79-4.81,28.17-1.24,9.37-2.12,18.41-2.64,26.85l-.08,1.33h13.35l.06-1.18c.41-7.65,1.16-15.87,2.23-24.43,1.08-8.56,2.45-17.2,4.09-25.68,1.63-8.48,3.52-16.64,5.62-24.27,2.09-7.6,4.34-14.45,6.69-20.37,2.32-5.86,4.74-10.52,7.19-13.88,2.27-3.1,4.5-4.67,6.65-4.67s4.53,1.59,6.8,4.74c2.45,3.4,4.87,8.1,7.2,13.96,2.34,5.91,4.56,12.78,6.61,20.43,2.04,7.67,3.91,15.87,5.55,24.36,1.63,8.48,3.04,17.1,4.17,25.61,1.12,8.5,1.9,16.64,2.31,24.19l.06,1.18h13.49l-.07-1.32Z"/>
    </g>
  </g>
  </g>
</svg>