<?xml version="1.0" encoding="utf-8"?>
<!-- Generator: Adobe Illustrator 28.0.0, SVG Export Plug-In . SVG Version: 6.00 Build 0)  -->
<svg version="1.1" id="Layer_1" xmlns="http://www.w3.org/2000/svg" xmlns:xlink="http://www.w3.org/1999/xlink" x="0px" y="0px"
	 viewBox="0 0 512 512" style="enable-background:new 0 0 512 512;" xml:space="preserve">
<path d="M434.2,78.2c-22.9-22.9-49.8-41.1-80-54.2c-30.2-13-63.1-19.6-97.8-19.6c-34.7,0-67.8,6.6-98.2,19.7
	c-30.4,13-57.4,31.2-80.4,54.2c-22.9,22.9-41.1,49.8-54.2,80C10.6,188.4,4,221.3,4,256c0,34.8,6.6,67.7,19.6,97.8
	c13.1,30.3,31.3,57.2,54.2,80c22.8,22.9,49.9,41.1,80.4,54.2c30.4,13,63.4,19.7,98.2,19.7c34.8,0,67.7-6.6,97.8-19.6
	c30.3-13.1,57.2-31.3,80-54.2c22.9-22.9,41.1-49.8,54.2-80c13-30.2,19.6-63.1,19.6-97.8s-6.6-67.7-19.6-97.8
	C475.4,128.1,457.2,101.2,434.2,78.2z M229.3,450.6c0,1.2-0.5,2.3-1.4,3c-0.7,0.6-1.6,1-2.6,1c-0.2,0-0.4,0-0.6-0.1
	c-27.3-4.4-52.9-14.5-75.9-29.8c-24.9-16.6-45.5-38-61.2-63.7c-14.5-23.7-23.9-49.7-27.8-77.1c-0.2-1.1,0.2-2.3,0.9-3.2
	c0.8-0.9,1.9-1.4,3-1.4h161.5c2.2,0,4,1.8,4,4c0,0,0,0.1,0,0.1V450.6z M229.3,226.3c0,2.2-1.8,4-4,4H64.5c-1.2,0-2.3-0.5-3-1.4
	c-0.8-0.9-1.1-2.1-0.9-3.2c4.3-27.3,13.9-52.8,28.4-75.9c15.6-24.9,36-46,60.5-62.6c22.5-15.3,47.8-25.3,75.2-29.8
	c0.2,0,0.4-0.1,0.6-0.1c0.9,0,1.9,0.3,2.6,1c0.9,0.8,1.4,1.9,1.4,3V226.3z M451.6,284c-4,27.9-13.6,54.2-28.5,78.2
	c-16.1,25.9-37.1,47.4-62.3,64c-23.3,15.4-49.3,25.2-77.1,29.2c-0.2,0-0.4,0-0.6,0c-1,0-1.9-0.3-2.6-1c-0.9-0.8-1.4-1.9-1.4-3v-168
	c0-2.2,1.8-4,4-4h164.4c1.2,0,2.3,0.5,3,1.4C451.3,281.7,451.7,282.9,451.6,284z M447.9,230.3c-0.1,0-0.2,0-0.3,0
	c-0.1,0-0.3,0-0.4,0h-164c-2.2,0-4-1.8-4-4V61.2c0-1.2,0.5-2.3,1.4-3c0.7-0.6,1.7-1,2.6-1c0.2,0,0.4,0,0.6,0
	c27.8,4,53.6,13.7,76.7,28.9c24.9,16.4,45.9,37.5,62.3,62.6c15.1,23.2,24.8,49,28.8,76.8c0.1,0.3,0.1,0.5,0.1,0.8
	C451.6,228.4,450,230.2,447.9,230.3z"/>
</svg>
