<svg xmlns="http://www.w3.org/2000/svg"
     width="512" height="512"
     viewBox="0 0 512 512">
  <g transform="translate(0.000 0.350) scale(4.667274)">
<defs>
    <style>
      .cls-1 {
        stroke-width: 0px;
      }
    </style>
  </defs>
  <g id="Layer_1-2" data-name="Layer 1">
    <path class="cls-1" d="m105.43,33.47c-2.83-6.56-6.8-12.41-11.79-17.4-4.99-4.99-10.85-8.95-17.4-11.79-6.57-2.84-13.74-4.28-21.3-4.28s-14.75,1.44-21.38,4.28c-6.61,2.83-12.5,6.8-17.49,11.79-4.99,4.99-8.95,10.84-11.79,17.4C1.44,40.05,0,47.21,0,54.77s1.44,14.73,4.28,21.3c2.84,6.56,6.8,12.42,11.79,17.4,4.98,4.99,10.87,8.95,17.49,11.79,6.62,2.84,13.82,4.28,21.38,4.28s14.73-1.44,21.3-4.28c6.56-2.84,12.42-6.8,17.4-11.79,4.99-4.99,8.95-10.84,11.79-17.4,2.84-6.57,4.28-13.74,4.28-21.3s-1.44-14.73-4.28-21.3Zm-9.53,27.19c-.83,5.86-2.84,11.38-5.99,16.42-3.39,5.44-7.8,9.97-13.09,13.46-4.89,3.23-10.32,5.29-16.16,6.12v-36h35.23Zm0-12.25h-35.23V13.03c5.84.84,11.24,2.87,16.08,6.05,5.24,3.45,9.65,7.88,13.1,13.17,3.18,4.89,5.21,10.32,6.05,16.17Zm-47.63,12.25v35.82c-5.74-.93-11.09-3.03-15.92-6.25-5.24-3.49-9.56-7.99-12.85-13.38-3.05-4.99-5.01-10.43-5.84-16.2h34.61Zm0-47.61v35.36H13.83c.91-5.75,2.92-11.11,5.96-15.95,3.29-5.24,7.57-9.67,12.72-13.17,4.73-3.22,10.03-5.31,15.76-6.24Z"/>
  </g>
  </g>
</svg>