<svg xmlns="http://www.w3.org/2000/svg"
     width="512" height="512"
     viewBox="0 0 512 512">
  <g transform="translate(109.601 0.000) scale(4.072866)">
<defs>
    <style>
      .cls-1 {
        stroke-width: 0px;
      }
    </style>
  </defs>
  <g id="Layer_1-2" data-name="Layer 1">
    <g>
      <path class="cls-1" d="m20.37,37.5c7.13,0,12.38-2.43,15.62-7.22,3.25,4.79,8.49,7.22,15.62,7.22,6.33,0,11.32-2,14.83-5.95,3.49-3.92,5.26-8.63,5.26-13.99,0-3.75-.85-7.13-2.52-10.04-1.67-2.9-3.98-5.3-6.88-7.12l-.62-.39-7.43,7.61.83.62c3.09,2.31,4.59,5.26,4.59,9.02,0,2.75-.73,4.96-2.17,6.59-1.43,1.62-3.36,2.4-5.89,2.4-2.36,0-4.46-.71-6.24-2.12-1.78-1.41-2.97-3.42-3.54-5.98l-.16-.71h-11.36l-.16.71c-.57,2.57-1.74,4.58-3.48,5.99-1.76,1.42-3.82,2.12-6.31,2.12s-4.46-.79-5.89-2.4c-1.44-1.62-2.17-3.84-2.17-6.59,0-3.75,1.5-6.7,4.59-9.02l.83-.62L10.3,0l-.62.39c-2.9,1.83-5.22,4.23-6.88,7.12C1.12,10.42.28,13.8.28,17.56c0,5.37,1.8,10.07,5.34,13.99,3.56,3.95,8.53,5.95,14.75,5.95Z"/>
      <path class="cls-1" d="m0,38.35v87.36h71.89V38.35H0Zm12.74,24.57v-12.74h46.41v12.74H12.74Zm0,26.39v-14.56h46.41v14.56H12.74Zm0,24.57v-12.74h46.41v12.74H12.74Z"/>
    </g>
  </g>
  </g>
</svg>