<svg xmlns="http://www.w3.org/2000/svg"
     width="512" height="512"
     viewBox="0 0 512 512">
  <g transform="translate(3.020 0.000) scale(4.000313)">
<defs>
    <style>
      .cls-1 {
        stroke-width: 0px;
      }
    </style>
  </defs>
  <g id="Layer_1-2" data-name="Layer 1">
    <g>
      <path class="cls-1" d="m48.62,28.78c1.2,1.2,2.67,1.81,4.36,1.81s3.17-.61,4.42-1.8c1.27-1.2,1.91-2.67,1.91-4.37s-.64-3.18-1.89-4.43c-1.25-1.25-2.74-1.89-4.43-1.89s-3.17.64-4.37,1.91c-1.19,1.25-1.8,2.74-1.8,4.42s.61,3.16,1.81,4.36Z"/>
      <path class="cls-1" d="m72.46,30.59c1.68,0,3.17-.61,4.42-1.8,1.27-1.2,1.91-2.67,1.91-4.37s-.64-3.18-1.89-4.43c-1.25-1.25-2.74-1.89-4.43-1.89s-3.17.64-4.37,1.91c-1.19,1.25-1.8,2.74-1.8,4.42s.61,3.16,1.81,4.36c1.2,1.2,2.67,1.81,4.36,1.81Z"/>
      <path class="cls-1" d="m56.55,40.98c0,1.69.61,3.16,1.81,4.36,1.2,1.2,2.67,1.81,4.36,1.81s3.17-.61,4.42-1.8c1.27-1.2,1.91-2.67,1.91-4.37s-.64-3.18-1.89-4.43c-1.25-1.25-2.75-1.89-4.43-1.89s-3.17.64-4.37,1.91c-1.19,1.25-1.8,2.74-1.8,4.42Z"/>
      <path class="cls-1" d="m47.02,58.23c4.71,2.8,9.99,4.23,15.7,4.23s10.99-1.42,15.7-4.23c4.7-2.8,8.5-6.6,11.3-11.3,2.8-4.71,4.23-10,4.23-15.7s-1.42-10.99-4.23-15.7c-2.8-4.7-6.6-8.5-11.3-11.3-4.72-2.81-10-4.23-15.7-4.23s-10.99,1.42-15.7,4.23c-4.7,2.8-8.5,6.6-11.3,11.3-2.8,4.71-4.23,9.99-4.23,15.7s1.42,11,4.23,15.7c2.8,4.7,6.6,8.5,11.3,11.3Zm15.7-48.06c3.83,0,7.37.97,10.51,2.88,3.15,1.92,5.67,4.49,7.5,7.64,1.82,3.15,2.74,6.69,2.74,10.53s-.92,7.38-2.74,10.53c-1.82,3.15-4.35,5.73-7.5,7.65-3.14,1.91-6.68,2.88-10.51,2.88s-7.37-.97-10.51-2.88c-3.16-1.92-5.68-4.49-7.5-7.65-1.82-3.14-2.74-6.68-2.74-10.53s.92-7.38,2.74-10.53c1.82-3.15,4.34-5.72,7.5-7.64,3.14-1.91,6.67-2.88,10.51-2.88Z"/>
      <path class="cls-1" d="m126.48,77.94v-11.83H0v11.83h24.57v38.22H0v11.83h126.48v-11.83h-25.48v-38.22h25.48Zm-38.22,0v38.22h-19.11v-38.22h19.11Zm-31.85,0v38.22h-19.11v-38.22h19.11Z"/>
    </g>
  </g>
  </g>
</svg>