<svg xmlns="http://www.w3.org/2000/svg"
     width="512" height="512"
     viewBox="0 0 512 512">
  <g transform="translate(29.649 0.000) scale(3.993137)">
<defs>
    <style>
      .cls-1 {
        stroke-width: 0px;
      }
    </style>
  </defs>
  <g id="Layer_1-2" data-name="Layer 1">
    <g>
      <path class="cls-1" d="m18.09,113.1c-2.1,0-3.9.74-5.36,2.2s-2.2,3.26-2.2,5.36.74,3.9,2.2,5.36c1.46,1.46,3.26,2.2,5.36,2.2s3.9-.74,5.36-2.2c1.46-1.46,2.2-3.26,2.2-5.36s-.74-3.9-2.2-5.36c-1.46-1.46-3.27-2.2-5.36-2.2Z"/>
      <path class="cls-1" d="m52.13,104.9c-2.1,0-3.9.74-5.36,2.2-1.46,1.46-2.2,3.26-2.2,5.36s.74,3.9,2.2,5.36c1.46,1.46,3.26,2.2,5.36,2.2s3.9-.74,5.36-2.2c1.46-1.46,2.2-3.26,2.2-5.36s-.74-3.9-2.2-5.36c-1.46-1.46-3.27-2.2-5.36-2.2Z"/>
      <path class="cls-1" d="m17.57,11.8c5.38,0,9.5,1.05,12.24,3.12,2.74,2.07,4.65,5.03,5.68,8.8,1.07,3.9,1.61,8.46,1.61,13.58v63.08h12.74v-53.69h21.43l-17.97,50.84,11.62,4.36,14.29-42.42,14.29,42.42,11.62-4.36-18.12-50.84h22.91v-10.92h-24.57V1.19h-12.74v34.58h-22.75c-.08-6.67-1.07-12.68-2.93-17.9-1.98-5.53-5.3-9.94-9.85-13.11C32.48,1.6,26.2,0,18.35,0c-3.59,0-6.86.34-9.72,1.02C5.77,1.7,3.14,2.57.82,3.61l-.82.37,4.61,10.72.84-.36c1.61-.69,3.42-1.3,5.4-1.8,1.95-.49,4.21-.74,6.72-.74Z"/>
      <path class="cls-1" d="m35.11,107.22c-2.1,0-3.9.74-5.36,2.2s-2.2,3.26-2.2,5.36.74,3.9,2.2,5.36c1.46,1.46,3.26,2.2,5.36,2.2s3.9-.74,5.36-2.2c1.46-1.46,2.2-3.26,2.2-5.36s-.74-3.9-2.2-5.36c-1.46-1.46-3.27-2.2-5.36-2.2Z"/>
      <path class="cls-1" d="m71.77,104.9c-2.1,0-3.9.74-5.36,2.2-1.46,1.46-2.2,3.26-2.2,5.36s.74,3.9,2.2,5.36c1.46,1.46,3.26,2.2,5.36,2.2s3.9-.74,5.36-2.2c1.46-1.46,2.2-3.26,2.2-5.36s-.74-3.9-2.2-5.36c-1.46-1.46-3.27-2.2-5.36-2.2Z"/>
      <path class="cls-1" d="m111.17,115.3c-1.46-1.46-3.27-2.2-5.36-2.2s-3.9.74-5.36,2.2-2.2,3.26-2.2,5.36.74,3.9,2.2,5.36c1.46,1.46,3.26,2.2,5.36,2.2s3.9-.74,5.36-2.2c1.46-1.46,2.2-3.26,2.2-5.36s-.74-3.9-2.2-5.36Z"/>
      <path class="cls-1" d="m88.79,107.22c-2.1,0-3.9.74-5.36,2.2s-2.2,3.26-2.2,5.36.74,3.9,2.2,5.36c1.46,1.46,3.26,2.2,5.36,2.2s3.9-.74,5.36-2.2c1.46-1.46,2.2-3.26,2.2-5.36s-.74-3.9-2.2-5.36c-1.46-1.46-3.27-2.2-5.36-2.2Z"/>
    </g>
  </g>
  </g>
</svg>