<svg xmlns="http://www.w3.org/2000/svg"
     width="512" height="512"
     viewBox="0 0 512 512">
  <g transform="translate(66.768 0.000) scale(4.077407)">
<defs>
    <style>
      .cls-1 {
        stroke-width: 0px;
      }
    </style>
  </defs>
  <g id="Layer_1-2" data-name="Layer 1">
    <g>
      <path class="cls-1" d="m62.98,31.12c2.1,0,3.9-.74,5.36-2.2,1.46-1.46,2.2-3.26,2.2-5.36s-.74-3.9-2.2-5.36c-1.46-1.46-3.27-2.2-5.36-2.2s-3.9.74-5.36,2.2c-1.46,1.46-2.2,3.26-2.2,5.36s.74,3.9,2.2,5.36c1.46,1.46,3.26,2.2,5.36,2.2Z"/>
      <path class="cls-1" d="m46.12,52.47c2.1,0,3.9-.74,5.36-2.2,1.46-1.46,2.2-3.26,2.2-5.36s-.74-3.9-2.2-5.36c-1.46-1.46-3.27-2.2-5.36-2.2s-3.9.74-5.36,2.2c-1.46,1.46-2.2,3.26-2.2,5.36s.74,3.9,2.2,5.36c1.46,1.46,3.26,2.2,5.36,2.2Z"/>
      <path class="cls-1" d="m0,0v10.64l12.29,57.6h27.74v30.94h-15.47v-.52c0-2.38.88-5.2,2.61-8.38,1.76-3.24,4.4-6.56,7.85-9.87l.63-.61-7.72-8.63-.68.58c-5.47,4.73-9.38,9.56-11.6,14.37-2.23,4.81-3.36,9.83-3.36,14.92,0,.92.13,2.09.4,3.58.28,1.54.82,2.95,1.6,4.21,1.12,1.8,2.56,2.18,3.57,2.18h22.14v14.56h12.74v-14.56h22.14c1.56,0,2.83-.76,3.67-2.2.72-1.25,1.23-2.66,1.51-4.19.27-1.5.4-2.67.4-3.58,0-5.09-1.13-10.11-3.36-14.92-2.22-4.8-6.13-9.64-11.6-14.37l-.68-.58-7.72,8.63.63.61c3.45,3.31,6.09,6.63,7.85,9.87,1.73,3.19,2.61,6.01,2.61,8.38v.52h-15.47v-30.94h27.74l12.27-57.41.02-10.83H0Zm80.17,10.92l-9.88,45.5H21.95L12.07,10.92h68.1Z"/>
      <path class="cls-1" d="m29.26,31.12c2.1,0,3.9-.74,5.36-2.2,1.46-1.46,2.2-3.26,2.2-5.36s-.74-3.9-2.2-5.36c-1.46-1.46-3.27-2.2-5.36-2.2s-3.9.74-5.36,2.2c-1.46,1.46-2.2,3.26-2.2,5.36s.74,3.91,2.2,5.36c1.46,1.46,3.26,2.2,5.36,2.2Z"/>
    </g>
  </g>
  </g>
</svg>