<svg xmlns="http://www.w3.org/2000/svg"
     width="512" height="512"
     viewBox="0 0 512 512">
  <g transform="translate(0.000 30.839) scale(3.492497)">
<defs>
    <style>
      .cls-1 {
        stroke-width: 0px;
      }
    </style>
  </defs>
  <g id="Layer_1-2" data-name="Layer 1">
    <g>
      <polygon class="cls-1" points="68.94 66.47 71.55 76.74 103.17 69.21 100.73 59.09 68.94 66.47"/>
      <path class="cls-1" d="m146.6,80.71h-41.45l4.89-4.1-6.54-6.88-24.95,21.34,5.97,7.26,7.63-6.51,14.56,26.2h-6.51v10.92h37.31v-10.92h-6.88l15.98-28.45v-8.86Zm-21.55,26.39l-6.12,10.55-5.99-10.55h12.11Zm-21.24-16.38h30.37l-4.25,7.28h-22l-4.13-7.28Z"/>
      <path class="cls-1" d="m60.19,69.67l-.68-.58-7.72,8.63.63.61c3.45,3.31,6.09,6.63,7.85,9.87,1.74,3.19,2.61,6.01,2.61,8.38v.52h-15.47v-54.6h30.03v7.28h7.56l-19.16,4.15,2.43,10.29,31.62-7.37-2.26-9.8-7.46,1.62v-6.87c4.67-.79,8.9-2.29,12.58-4.47,3.9-2.31,6.99-5.21,9.19-8.62,2.22-3.44,3.34-7.12,3.34-10.95,0-4.81-1.46-8.95-4.35-12.3-2.93-3.39-7.33-5.11-13.09-5.11-4.89,0-8.9,1.37-11.92,4.08-2.97,2.67-5.16,6.22-6.5,10.54-1.32,4.25-1.99,9-1.99,14.1v1.6h-29.65c-1.14-9.7-3.99-17.27-8.46-22.48C34.67,2.75,28.05,0,19.66,0c-4.5,0-8.27.93-11.21,2.76-2.95,1.83-5.12,4.27-6.47,7.23-1.32,2.91-1.99,6.01-1.99,9.19,0,6.72,2.68,12.35,7.95,16.75,5.23,4.36,13.44,6.57,24.41,6.57h3.22v54.6h-15.47v-.52c0-2.38.88-5.2,2.61-8.38,1.76-3.24,4.4-6.55,7.85-9.87l.63-.61-7.72-8.63-.68.58c-5.47,4.73-9.38,9.56-11.6,14.37-2.23,4.81-3.35,9.83-3.35,14.92,0,.92.13,2.09.4,3.58.28,1.54.82,2.95,1.6,4.21,1.12,1.8,2.56,2.18,3.58,2.18h22.14v20.02h11.83v-20.02h22.14c1.57,0,2.83-.76,3.67-2.2.72-1.25,1.23-2.66,1.51-4.19.27-1.51.4-2.68.4-3.58,0-5.09-1.13-10.11-3.36-14.92-2.22-4.81-6.13-9.64-11.6-14.37Zm30-39.69v-.89c0-5.49.77-9.66,2.28-12.4,1.44-2.6,3.13-3.86,5.16-3.86,1.88,0,3.16.49,3.91,1.49.81,1.09,1.21,2.22,1.21,3.48,0,2.43-1.14,4.9-3.39,7.35-2.09,2.27-5.18,3.89-9.17,4.83Zm-55.66.69h-2.53c-7.31,0-12.42-.94-15.2-2.79-2.69-1.79-4-4.23-4-7.44,0-1.87.6-3.67,1.77-5.36,1.12-1.61,2.97-2.39,5.67-2.39,3.79,0,6.86,1.34,9.38,4.11,2.41,2.65,4.06,7.31,4.91,13.87Z"/>
    </g>
  </g>
  </g>
</svg>