<svg xmlns="http://www.w3.org/2000/svg"
     width="512" height="512"
     viewBox="0 0 512 512">
  <g transform="translate(3.425 0.000) scale(4.077407)">
<defs>
    <style>
      .cls-1 {
        stroke-width: 0px;
      }
    </style>
  </defs>
  <g id="Layer_1-2" data-name="Layer 1">
    <path class="cls-1" d="m123.89,0H28.95l-1.18,4.56c-1.69-.42-3.62-.75-5.74-.98-2.54-.27-4.5-.4-5.97-.4-4.68,0-8.57,1.68-11.57,4.99C1.51,11.45,0,15.42,0,19.98s1.51,8.35,4.49,11.58c3,3.25,6.89,4.9,11.56,4.9,1.47,0,2.96-.08,4.43-.24,1.1-.12,2.21-.32,3.32-.59v1.5c0,4.78.79,9.96,2.34,15.39,1.54,5.39,3.46,11.01,5.72,16.69,2.25,5.69,4.51,11.35,6.76,16.99,2.24,5.6,4.14,11.13,5.66,16.44,1.51,5.28,2.27,10.29,2.27,14.89v8.07h45.5v-7.7c0-4.62.78-9.65,2.3-14.95,1.55-5.35,3.48-10.9,5.74-16.5,2.29-5.66,4.58-11.35,6.87-17.06,2.29-5.73,4.24-11.36,5.8-16.75,1.58-5.46,2.37-10.66,2.37-15.45s-.24-9.22-.71-13.6c-.43-3.99-1.01-7.93-1.75-11.73h11.22V0Zm-43.31,113.74h-22.34c-1.24-8.1-3.04-15.67-5.36-22.52-2.38-7.03-4.87-13.87-7.39-20.3-2.51-6.4-4.67-12.92-6.41-19.39-1.73-6.4-2.61-13.22-2.61-20.26,0-6.32,1.02-13.16,3.04-20.36h59.8c2.02,7.2,3.04,14.04,3.04,20.36,0,7.03-.88,13.84-2.61,20.26-1.75,6.47-3.9,12.99-6.41,19.39-2.53,6.45-5.02,13.28-7.39,20.3-2.31,6.83-4.11,14.4-5.36,22.52ZM25.69,14.7c-.53,3.11-.94,6.36-1.22,9.69-2.7.69-5.42,1.04-8.12,1.04-1.73,0-3.14-.57-4.31-1.75-1.17-1.17-1.74-2.58-1.74-4.31,0-1.84.57-3.32,1.76-4.55,1.17-1.22,2.58-1.81,4.29-1.81,3.22,0,6.36.56,9.34,1.68Z"/>
  </g>
  </g>
</svg>