<svg xmlns="http://www.w3.org/2000/svg"
     width="512" height="512"
     viewBox="0 0 512 512">
  <g transform="translate(70.723 0.000) scale(4.077407)">
<defs>
    <style>
      .cls-1 {
        stroke-width: 0px;
      }
    </style>
  </defs>
  <g id="Layer_1-2" data-name="Layer 1">
    <path class="cls-1" d="m87.85,59.93c-1.99-4.29-4.8-8.43-8.34-12.3-3.39-3.7-7.38-6.86-11.87-9.41l8.27-27.77.04-10.45H18.61v10.14l.66,2.26c-.06,0-.11-.01-.17-.02-.59-.05-1.18-.08-1.76-.08-5.03,0-9.22,1.61-12.46,4.8C1.64,20.3,0,24.16,0,28.6s1.64,8.13,4.89,11.27c3.23,3.13,7.42,4.72,12.45,4.72h.34c-4.72,3.62-8.56,7.72-11.42,12.22-3.38,5.3-5.09,10.51-5.09,15.49,0,3.74.86,7.06,2.56,9.86,1.65,2.71,3.7,5.28,6.09,7.64,2.31,2.27,4.67,4.7,7.01,7.2,2.27,2.43,4.22,5.31,5.8,8.55,1.55,3.2,2.34,7.13,2.34,11.68v8.36h45.5v-7.72c0-4.6.68-8.57,2.01-11.8,1.35-3.25,3.02-6.14,4.97-8.6,2-2.51,4.02-4.95,6.01-7.24,2.05-2.36,3.81-4.95,5.22-7.68,1.45-2.8,2.19-6.12,2.19-9.85,0-4.13-1.02-8.43-3.03-12.76ZM17.52,34.71c-1.73,0-3.14-.57-4.31-1.75-1.17-1.17-1.74-2.58-1.74-4.31,0-1.84.57-3.32,1.76-4.55,1.17-1.22,2.58-1.81,4.29-1.81.77,0,1.65.05,2.61.15.77.08,1.52.2,2.26.34l3.56,10.81c-1.16.29-2.39.54-3.69.73-1.64.25-3.24.38-4.74.38Zm43.87,66.71c-1.36,3.31-2.09,7.45-2.17,12.32h-23c-.08-4.88-.81-9.02-2.17-12.32-1.44-3.5-3.28-6.48-5.47-8.89-2.13-2.33-4.27-4.54-6.35-6.56-2.02-1.96-3.73-4.02-5.09-6.13-1.3-2.01-1.96-4.56-1.96-7.58s.76-6.31,2.26-9.64c1.5-3.33,4.08-6.65,7.66-9.87,3.59-3.23,8.57-6.15,14.79-8.68l.57-.23v-7.12l-8.24-25.81h31.05l-8.2,25.67-.04,7.25.57.23c6.22,2.54,11.19,5.46,14.79,8.68,3.58,3.22,6.16,6.54,7.66,9.87,1.5,3.33,2.26,6.58,2.26,9.64s-.66,5.57-1.96,7.58c-1.36,2.1-3.07,4.16-5.09,6.13-2.08,2.02-4.22,4.23-6.36,6.56-2.19,2.4-4.04,5.39-5.47,8.89Z"/>
  </g>
  </g>
</svg>