<?xml version="1.0" encoding="utf-8"?>
<!-- Generator: Adobe Illustrator 28.0.0, SVG Export Plug-In . SVG Version: 6.00 Build 0)  -->
<svg version="1.1" id="Layer_1" xmlns="http://www.w3.org/2000/svg" xmlns:xlink="http://www.w3.org/1999/xlink" x="0px" y="0px"
	 viewBox="0 0 512 512" style="enable-background:new 0 0 512 512;" xml:space="preserve">
<path d="M476.4,85.3L476.4,85.3c2.4-14.5,3.6-29.2,3.6-43.9V-1H354v46.7h74.2h0c-0.8,35.7-8.2,68.2-21.9,96.6
	c-14.1,29.2-33.9,52.5-58.9,69.2c-24.9,16.6-54.5,25-87.8,25c-33.3,0-64.5-8.7-89-25.9c-24.6-17.3-44-40.8-57.5-70.1
	c-13.1-28.4-20.9-60.2-23.3-94.8h73.3V-1H38v42.4c0,14.7,1.2,29.5,3.7,43.8H-0.5V132h53.7c10,27.7,24.7,53.2,43.7,75.6
	c18.6,22,41,39.7,66.7,52.6c-16.5,18.4-31.3,39.3-44,62.2c-13.5,24.5-24,50-31.2,75.9c-7.3,25.9-10.9,51.5-10.9,76.1V495h46.7v-20.7
	c0-21.5,3.6-44.7,10.8-68.9c7.2-24.3,17.3-48.1,30.1-70.7c12.4-22,26.9-41.3,43.1-57.5c3.9,0.7,8,1.4,12.2,2.1
	c3.8,0.6,7.7,1.2,11.6,1.6V495h50.3V281.3c3.9-0.6,7.7-1.1,11.5-1.6c4.3-0.6,8.5-1.3,12.5-2.3c16.5,16.5,31.1,36,43.2,57.9
	c12.6,22.7,22.6,46.4,29.8,70.5c7.1,24,10.8,47.1,10.8,68.6V495h50.3v-20.6c0-24.1-3.7-49.5-10.9-75.4
	c-7.3-25.9-17.7-51.4-30.9-75.8c-12.5-23-27.3-43.9-44.2-62.2c25.7-13,48.1-30.7,66.7-52.9c19-22.7,33.9-48.2,44.3-75.9h48.1V85.3
	H476.4z"/>
</svg>
