<svg xmlns="http://www.w3.org/2000/svg"
     width="512" height="512"
     viewBox="0 0 512 512">
  <g transform="translate(0.000 54.129) scale(3.215273)">
<defs>
    <style>
      .cls-1 {
        stroke-width: 0px;
      }
    </style>
  </defs>
  <g id="Layer_1-2" data-name="Layer 1">
    <path class="cls-1" d="m134.65,21.84c.62-3.65.93-7.38.93-11.1V0H23.66v10.74c0,3.73.31,7.46.93,11.1H0v11.83h27.52c2.53,7.02,6.25,13.47,11.07,19.15,4.7,5.56,10.38,10.04,16.9,13.32-4.19,4.65-7.93,9.94-11.13,15.75-3.41,6.2-6.07,12.66-7.91,19.21-1.84,6.56-2.77,13.04-2.77,19.26v5.22h11.83v-5.24c0-5.45.92-11.33,2.74-17.45,1.82-6.15,4.39-12.18,7.62-17.91,3.14-5.57,6.81-10.46,10.91-14.55.99.18,2.02.36,3.09.54.97.16,1.96.3,2.94.4v54.22h12.74v-54.12c.98-.16,1.95-.29,2.9-.41,1.08-.14,2.14-.33,3.16-.59,4.18,4.18,7.87,9.11,10.95,14.67,3.19,5.74,5.73,11.75,7.55,17.84,1.81,6.07,2.73,11.92,2.73,17.37v5.24h12.74v-5.22c0-6.1-.93-12.53-2.77-19.1-1.84-6.55-4.47-13.01-7.83-19.2-3.16-5.82-6.92-11.12-11.2-15.76,6.51-3.28,12.18-7.78,16.89-13.39,4.82-5.74,8.59-12.21,11.21-19.23h27.37v-11.83h-24.59Zm-12.17-10.01c-.21,9.05-2.07,17.27-5.54,24.45-3.57,7.4-8.59,13.29-14.92,17.51-6.31,4.21-13.8,6.34-22.24,6.34s-16.32-2.21-22.53-6.56c-6.23-4.37-11.13-10.34-14.55-17.74-3.32-7.18-5.3-15.25-5.89-24h85.66Z"/>
  </g>
  </g>
</svg>