<svg xmlns="http://www.w3.org/2000/svg"
     width="512" height="512"
     viewBox="0 0 512 512">
  <g transform="translate(45.525 0.000) scale(4.030544)">
<defs>
    <style>
      .cls-1 {
        stroke-width: 0px;
      }
    </style>
  </defs>
  <g id="Layer_1-2" data-name="Layer 1">
    <path class="cls-1" d="m95.67,114.78c-2.65-6.35-5.26-13.55-7.76-21.4-2.61-8.2-4.97-16.61-7.02-24.98-1.95-8.01-3.61-15.57-4.91-22.48,3.62-1.67,6.91-3.49,9.8-5.42,3.23-2.15,5.85-4.83,7.79-7.96,1.97-3.18,2.97-7.04,2.97-11.49,0-3.23-.63-6.48-1.86-9.66-1.28-3.29-3.69-6.04-7.16-8.19-3.43-2.13-8.47-3.2-14.97-3.2-2.65,0-5.64.32-8.9.95-3.26.63-6.51,1.59-9.66,2.85l-1.05.42,3.3,11.66,1.26-.46c2.2-.8,4.55-1.49,6.97-2.04,2.38-.54,5.1-.82,8.08-.82s5.34.48,6.83,1.43c1.47.94,2.48,2.04,3,3.29.55,1.34.83,2.61.83,3.78,0,2.71-.65,4.99-1.93,6.77-1.32,1.84-3.54,3.56-6.59,5.11-3.19,1.62-7.5,3.53-12.82,5.68-4.84,1.96-9.79,4.18-14.7,6.61-4.95,2.45-9.77,5.55-14.31,9.2-4.56,3.67-8.74,8.29-12.4,13.73s-6.73,12.13-9.13,19.9c-2.3,7.46-3.76,16.45-4.32,26.73H0v12.25h26.32v-12.25h-6.1c.87-12.39,2.91-22.5,6.08-30.05,3.27-7.8,7.31-14.09,12.03-18.7.61-.61,1.4-1.35,2.35-2.2.13-.11.25-.22.38-.33-.1.72-.17,1.45-.22,2.18-.1,1.55-.16,2.94-.16,4.11,0,2.11.18,5.09.55,8.86.36,3.73.85,7.89,1.48,12.35.62,4.42,1.32,8.91,2.09,13.35.67,3.82,1.32,7.32,1.94,10.45h-4.21v12.25h26.32v-12.25h-8.34c-2.44-8.92-4.4-18.24-5.83-27.71-1.45-9.58-2.54-19.78-3.26-30.33,1.05-.53,2.43-1.17,4.14-1.9,2.17-.93,4.31-1.86,6.43-2.79,1.37-.6,2.51-1.14,3.43-1.61.01,2.23.07,4.2.15,5.86.1,2.06.37,4.18.8,6.3,1.14,5.58,2.55,11.61,4.19,17.93,1.64,6.32,3.47,12.66,5.43,18.86,1.74,5.51,3.51,10.67,5.26,15.39h-3.16v12.25h26.32v-12.25h-8.77Z"/>
  </g>
  </g>
</svg>