<svg xmlns="http://www.w3.org/2000/svg"
     width="512" height="512"
     viewBox="0 0 512 512">
  <g transform="translate(12.365 0.000) scale(3.995006)">
<defs>
    <style>
      .cls-1 {
        stroke-width: 0px;
      }
    </style>
  </defs>
  <g id="Layer_1-2" data-name="Layer 1">
    <path class="cls-1" d="m105.89,58.75c4.78,0,8.71-1.61,11.66-4.78,2.94-3.15,4.42-6.95,4.42-11.29,0-4.12-1.32-7.78-3.93-10.87-2.3-2.73-5.26-4.45-8.82-5.12l11.83-16.19V0H.93v10.49l11.68,16.19c-3.57.68-6.51,2.4-8.76,5.13-2.55,3.09-3.85,6.75-3.85,10.87,0,4.35,1.52,8.15,4.51,11.3,3,3.17,6.9,4.77,11.58,4.77,6.51,0,12.26-1.31,17.08-3.9l8.99,12.21c-7.13,7.73-13.26,16.53-18.21,26.18-5.08,9.89-8.65,20.41-10.61,31.27l-.19,1.07h12.32l.18-.68c2.35-9.07,5.61-17.76,9.69-25.8,3.9-7.7,8.71-14.94,14.31-21.53l6.16,8.43-13.77,37.67,11.92,4.51,18.67-50.16c5.58,6.51,10.35,13.63,14.2,21.17,4.08,8,7.28,16.66,9.53,25.72l.17.69h12.33l-.19-1.07c-1.97-10.86-5.51-21.36-10.54-31.19-4.91-9.6-11.01-18.38-18.14-26.11l8.85-12.22c4.91,2.5,10.65,3.76,17.07,3.76Zm4.33-11.85c-1.17,1.17-2.58,1.74-4.31,1.74-1.61,0-3.65-.18-6.06-.53-1.91-.28-3.61-.7-5.07-1.27l7.46-10.36c.57-.07,1.12-.13,1.65-.17.65-.05,1.33-.08,2.02-.08,1.72,0,3.12.59,4.29,1.81,1.18,1.23,1.76,2.72,1.76,4.55,0,1.72-.57,3.13-1.74,4.31Zm-82.59-.06c-1.45.56-3.13.99-5,1.27-2.36.35-4.42.53-6.13.53s-3.14-.57-4.31-1.74c-1.17-1.17-1.74-2.58-1.74-4.31,0-1.84.57-3.32,1.76-4.55,1.17-1.22,2.58-1.81,4.29-1.81.58,0,1.24.03,1.94.08.57.04,1.15.1,1.72.17l7.46,10.36ZM105.66,11.83l-44.46,60.67L16.74,11.83h88.92Z"/>
  </g>
  </g>
</svg>