<svg xmlns="http://www.w3.org/2000/svg"
     width="512" height="512"
     viewBox="0 0 512 512">
  <g transform="translate(126.094 0.000) scale(4.077407)">
<defs>
    <style>
      .cls-1 {
        stroke-width: 0px;
      }
    </style>
  </defs>
  <g id="Layer_1-2" data-name="Layer 1">
    <g>
      <path class="cls-1" d="m46.91,87.89c1.72-2.98,2.6-6.26,2.6-9.75,0-5.14-1.72-9.55-5.13-13.1-3.41-3.56-8.55-5.37-15.28-5.37-3.71,0-7.14.64-10.18,1.91-3.06,1.28-5.85,3.37-8.31,6.22l-.59.69,8.49,7.39.6-.69c1.34-1.56,2.87-2.69,4.53-3.37,1.69-.69,3.47-1.04,5.3-1.04,2.75,0,4.91.69,6.43,2.05,1.51,1.36,2.25,2.95,2.25,4.86,0,3.23-1.18,6.07-3.62,8.67-2.48,2.64-5.43,5.43-8.8,8.27h-9.74v-3.64h8.19v-10.92H4.55v24.57h10.46c-1.71,2.32-3.3,4.93-4.74,7.81-1.77,3.52-3.2,7.55-4.27,12l-.27,1.12h12.89l.09-.81c.4-3.8,1.86-7.35,4.33-10.56,2.48-3.22,5.32-6.43,8.44-9.56h22.21v-10.01h-11.67c1.9-2.15,3.54-4.41,4.9-6.75Z"/>
      <path class="cls-1" d="m60.46,21.84h-24.97V0H0v55.51h59l4.72-28.23-3.26-5.44Zm-13.62,21.84h-12.27v-10.92h14.19l-1.93,10.92Zm-24.09-10.92v10.92h-10.92v-10.92h10.92Zm0-21.84v10.92h-10.92v-10.92h10.92Z"/>
    </g>
  </g>
  </g>
</svg>