<svg xmlns="http://www.w3.org/2000/svg"
     width="512" height="512"
     viewBox="0 0 512 512">
  <g transform="translate(53.939 0.000) scale(3.929997)">
<defs>
    <style>
      .cls-1 {
        stroke-width: 0px;
      }
    </style>
  </defs>
  <g id="Layer_1-2" data-name="Layer 1">
    <g>
      <path class="cls-1" d="m41.59,23.32c2.1,0,3.9-.74,5.36-2.2,1.46-1.46,2.2-3.26,2.2-5.36s-.74-3.9-2.2-5.36c-1.46-1.46-3.27-2.2-5.36-2.2s-3.9.74-5.36,2.2-2.2,3.26-2.2,5.36.74,3.9,2.2,5.36c1.46,1.46,3.26,2.2,5.36,2.2Z"/>
      <path class="cls-1" d="m61.24,23.32c2.1,0,3.9-.74,5.36-2.2,1.46-1.46,2.2-3.26,2.2-5.36s-.74-3.9-2.2-5.36c-1.46-1.46-3.27-2.2-5.36-2.2s-3.9.74-5.36,2.2-2.2,3.26-2.2,5.36.74,3.9,2.2,5.36c1.46,1.46,3.26,2.2,5.36,2.2Z"/>
      <path class="cls-1" d="m78.26,21c2.1,0,3.9-.74,5.36-2.2,1.46-1.46,2.2-3.26,2.2-5.36s-.74-3.9-2.2-5.36c-1.46-1.46-3.27-2.2-5.36-2.2s-3.9.74-5.36,2.2c-1.46,1.46-2.2,3.26-2.2,5.36s.74,3.9,2.2,5.36c1.46,1.46,3.26,2.2,5.36,2.2Z"/>
      <path class="cls-1" d="m24.58,21c2.1,0,3.9-.74,5.36-2.2,1.46-1.46,2.2-3.26,2.2-5.36s-.74-3.9-2.2-5.36c-1.46-1.46-3.27-2.2-5.36-2.2s-3.9.74-5.36,2.2c-1.46,1.46-2.2,3.26-2.2,5.36s.74,3.9,2.2,5.36c1.46,1.46,3.26,2.2,5.36,2.2Z"/>
      <path class="cls-1" d="m100.63,2.2c-1.46-1.46-3.27-2.2-5.36-2.2s-3.9.74-5.36,2.2c-1.46,1.46-2.2,3.26-2.2,5.36s.74,3.91,2.2,5.36c1.46,1.46,3.26,2.2,5.36,2.2s3.9-.74,5.36-2.2c1.46-1.46,2.2-3.26,2.2-5.36s-.74-3.9-2.2-5.36Z"/>
      <path class="cls-1" d="m15.12,7.56c0-2.1-.74-3.9-2.2-5.36-1.46-1.46-3.27-2.2-5.36-2.2S3.66.74,2.2,2.2C.74,3.66,0,5.46,0,7.56s.74,3.91,2.2,5.36c1.46,1.46,3.26,2.2,5.36,2.2s3.9-.74,5.36-2.2c1.46-1.46,2.2-3.26,2.2-5.36Z"/>
      <path class="cls-1" d="m87.32,62.59v-11.04h-30.03v-25.48h-12.74v25.48H15.43v11.04l27.17,26.69L9.01,121.94l9.21,8.34,33.09-32.46,33.24,32.46,9.21-8.34-33.6-32.67,27.17-26.69Zm-17.81.79l-18.17,17.62-18.03-17.62h36.21Z"/>
    </g>
  </g>
  </g>
</svg>