<svg xmlns="http://www.w3.org/2000/svg"
     width="512" height="512"
     viewBox="0 0 512 512">
  <g transform="translate(0.000 20.482) scale(3.751191)">
<defs>
    <style>
      .cls-1 {
        stroke-width: 0px;
      }
    </style>
  </defs>
  <g id="Layer_1-2" data-name="Layer 1">
    <g>
      <path class="cls-1" d="m94.95,60.97l4.67-4.09-6.36-7.75-7.54,6.57-3.54-9.1-9.96,4.1,5,12.46-9.33,8.16,5.81,8.14,7.28-6.3,15.77,41.49h-7.56v10.92h38.22v-10.92h-7.8l16.84-43.94.06-.16v-9.59h-41.54Zm21,30.94l-8.11,21.15-8.11-21.15h16.23Zm-24.15-20.02h32.22l-3.87,10.01h-24.61l-3.74-10.01Z"/>
      <path class="cls-1" d="m70.07,19.11h-29.12V0h-12.74v19.11H0v44.59h28.21v61.88h12.74v-60.97h29.12V19.11ZM12.74,52.78v-21.84h15.47v21.84h-15.47Zm43.68-21.84v21.84h-15.47v-21.84h15.47Z"/>
    </g>
  </g>
  </g>
</svg>