<svg xmlns="http://www.w3.org/2000/svg"
     width="512" height="512"
     viewBox="0 0 512 512">
  <g transform="translate(85.216 0.000) scale(3.716339)">
<defs>
    <style>
      .cls-1 {
        stroke-width: 0px;
      }
    </style>
  </defs>
  <g id="Layer_1-2" data-name="Layer 1">
    <path class="cls-1" d="m77.23,0c-7.82,0-14.44,1.12-19.68,3.32-5.25,2.21-9.47,5.07-12.54,8.51-3.06,3.43-5.26,7.18-6.53,11.16-1.26,3.94-1.9,7.7-1.9,11.18,0,2.22.24,4.54.71,6.91.42,2.11,1.08,4.21,1.95,6.27l-26.51,12.9v-29.31H0v77.35h12.74v-35.5l33.52-16.14c3.1,2.78,7.09,5.11,11.88,6.92,4.61,1.74,10.38,2.7,17.17,2.84L2.04,128.78l8.01,8.99,69.12-59.37v47.18h12.74V0h-14.67Zm-13.82,53.46c-4.01-1.34-7.44-3.59-10.21-6.71-2.72-3.06-4.1-7.21-4.1-12.32s1.39-9.38,4.12-12.65c2.78-3.32,6.23-5.84,10.25-7.48,4.05-1.65,8.07-2.49,11.96-2.49h3.73v43.68h-3.73c-3.91,0-7.95-.69-12.01-2.04Z"/>
  </g>
  </g>
</svg>