<svg xmlns="http://www.w3.org/2000/svg"
     width="512" height="512"
     viewBox="0 0 512 512">
  <g transform="translate(41.488 0.000) scale(4.077407)">
<defs>
    <style>
      .cls-1 {
        stroke-width: 0px;
      }
    </style>
  </defs>
  <g id="Layer_1-2" data-name="Layer 1">
    <path class="cls-1" d="m105.22,50.96V0h-12.74v40.04h-20.02V0h-12.74v40.04h-20.02V0h-12.74v76.54c-4.02-.79-7.15-2.55-9.3-5.23-2.38-2.97-4-7.1-4.8-12.3l-.12-.77H0l.14,1.04c1.16,8.32,4.07,15.12,8.65,20.2,4.44,4.94,10.56,7.98,18.17,9.04v37.06h12.74v-18.2h30.94v-11.83h-30.94v-6.75c7.34-1.17,13.27-4.29,17.62-9.29,4.48-5.13,7.33-11.94,8.48-20.24l.14-1.04h-12.78l-.13.75c-.9,5.17-2.48,9.29-4.7,12.24-1.98,2.64-4.88,4.42-8.64,5.31v-25.58h65.52Z"/>
  </g>
  </g>
</svg>