<svg xmlns="http://www.w3.org/2000/svg"
     width="512" height="512"
     viewBox="0 0 512 512">
  <g transform="translate(39.494 0.000) scale(3.900655)">
<defs>
    <style>
      .cls-1 {
        stroke-width: 0px;
      }
    </style>
  </defs>
  <g id="Layer_1-2" data-name="Layer 1">
    <g>
      <path class="cls-1" d="m48.69,56.4c-1.46,1.46-2.2,3.26-2.2,5.36s.74,3.9,2.2,5.36c1.46,1.46,3.26,2.2,5.36,2.2s3.9-.74,5.36-2.2c1.46-1.46,2.2-3.26,2.2-5.36s-.74-3.9-2.2-5.36c-1.46-1.46-3.27-2.2-5.36-2.2s-3.9.74-5.36,2.2Z"/>
      <path class="cls-1" d="m12.51,13.8c3.93,1.02,8,2.48,12.09,4.36,4.07,1.87,7.87,4.21,11.28,6.94,3.11,2.5,5.59,5.36,7.37,8.54l-26.87,14.79v-4.53H3.64v28.21h12.74v-10.45l32.39-17.76h10.23l-.04-.94c-.21-5.7-1.59-10.82-4.1-15.22-2.49-4.36-5.73-8.23-9.65-11.49-3.89-3.24-8.25-6.01-12.98-8.26-4.7-2.23-9.5-4.02-14.27-5.33C13.21,1.37,8.67.5,4.48.08l-.81-.08L1.09,12.09l1.09.04c2.93.1,6.41.67,10.33,1.68Z"/>
      <polygon class="cls-1" points="68.72 37.26 62.94 48.45 98.16 66.37 87.3 84.8 64.36 74.84 55.12 74.84 31.02 118.61 10.81 107.71 24.58 82.65 13.37 76.68 0 101.97 0 115.43 29.29 131.26 38.72 131.26 62.39 88.29 85.62 99.41 93.62 99.41 111.01 68.45 111.01 58.01 68.72 37.26"/>
    </g>
  </g>
  </g>
</svg>