<svg xmlns="http://www.w3.org/2000/svg"
     width="512" height="512"
     viewBox="0 0 512 512">
  <g transform="translate(0.000 4.976) scale(3.933620)">
<defs>
    <style>
      .cls-1 {
        stroke-width: 0px;
      }
    </style>
  </defs>
  <g id="Layer_1-2" data-name="Layer 1">
    <g>
      <path class="cls-1" d="m128.48,26.54c1.1-3.58,1.66-7.11,1.66-10.5,0-4.77-1.6-8.68-4.77-11.63-3.14-2.93-6.94-4.41-11.27-4.41s-8.17,1.48-11.42,4.4c-3.27,2.95-4.93,6.86-4.93,11.64,0,1.17.05,2.37.16,3.55.07.83.19,1.67.37,2.49H31.89c.17-.81.3-1.65.37-2.49.1-1.22.16-2.42.16-3.55,0-4.77-1.63-8.68-4.85-11.63C24.37,1.48,20.51,0,16.07,0S7.94,1.48,4.8,4.41C1.64,7.36.03,11.27.03,16.04c0,1.79.13,3.6.4,5.38.25,1.7.67,3.42,1.26,5.14l-1.69,5.67,23.69,95.4h82.78l23.63-95.16.06-.24-1.69-5.68Zm-8.23-10.36c0,1.09-.07,2.2-.22,3.28-.12.86-.25,1.74-.4,2.62h-11.18c-.4-2.04-.6-4.02-.6-5.9s.77-3.44,2.34-4.68c1.08-.85,2.43-1.33,3.82-1.37,1.93-.04,3.41.52,4.57,1.73,1.13,1.18,1.68,2.59,1.68,4.32ZM32.24,115.8L12.38,32.99h105.41l-19.87,82.81H32.24ZM11.66,11.87c1.17-1.17,2.58-1.74,4.31-1.74,1.83,0,3.32.57,4.55,1.76,1.22,1.17,1.81,2.58,1.81,4.3,0,.98-.1,2.04-.3,3.17-.16.93-.32,1.83-.48,2.73h-11.01c-.15-.86-.28-1.74-.4-2.62-.15-1.09-.22-2.2-.22-3.28,0-1.72.57-3.13,1.75-4.31Z"/>
      <path class="cls-1" d="m105.3,65.64l-7.55-6.79-8,8.3-5.54-5.79,7.64-7.79-7.72-6.78-6.91,7.21-5.39-5.64,7.64-7.79-7.56-6.61-7.06,7.21-6.91-7.22-7.57,6.62,7.64,7.79-5.39,5.64-6.91-7.21-7.71,6.77,7.47,7.78-5.53,5.66-7.85-8.16-7.54,6.79,8.4,8.71-8.33,8.64,6.31,7.08,8.69-8.85,5.85,5.98-8.65,8.96,6.5,6.89,8.83-8.98,5.85,5.98-7.72,8.03,6.66,7.04,7.91-8.06,8.06,8.06,6.66-7.04-7.88-8.03,5.85-5.98,8.98,8.98,6.5-6.88-8.66-8.97,5.71-5.97,8.84,8.84,6.31-7.08-8.48-8.63,8.55-8.7Zm-22.23,8.4l-5.7,5.95-5.7-5.95,5.7-5.82,5.7,5.82Zm-30.75,5.95l-5.7-5.95,5.7-5.82,5.69,5.82-5.69,5.95Zm12.53-13.15l-5.54-5.79,5.54-5.67,5.54,5.67-5.54,5.79Zm0,14.23l5.7,5.96-5.69,5.81-5.7-5.96,5.69-5.81Z"/>
    </g>
  </g>
  </g>
</svg>