<svg xmlns="http://www.w3.org/2000/svg"
     width="512" height="512"
     viewBox="0 0 512 512">
  <g transform="translate(44.831 0.000) scale(4.077407)">
<defs>
    <style>
      .cls-1 {
        stroke-width: 0px;
      }
    </style>
  </defs>
  <g id="Layer_1-2" data-name="Layer 1">
    <g>
      <path class="cls-1" d="m51.72,29.57c-7.23,0-12.95,2.67-17.01,7.93-4.01,5.19-6.04,12.25-6.04,20.98v11.58h11.83v-11.58c0-5.58.93-9.92,2.78-12.9,1.78-2.88,4.59-4.29,8.6-4.29s6.81,1.4,8.6,4.29c1.84,2.99,2.78,7.33,2.78,12.9v11.58h11.83v-11.58c0-8.73-2.06-15.79-6.12-20.98-4.11-5.26-9.91-7.93-17.24-7.93Z"/>
      <path class="cls-1" d="m101.71,42.99c-1.22-2.45-2.75-4.73-4.57-6.79-1.81-2.07-3.57-4.12-5.22-6.11-1.66-2-3.08-4.31-4.22-6.85-1.12-2.51-1.69-5.49-1.69-8.87v-3.44h12.74V0H5.01v10.92h11.83v3.44c0,3.38-.55,6.36-1.63,8.88-1.1,2.56-2.46,4.86-4.05,6.86-1.64,2.07-3.33,4.12-5.01,6.11-1.74,2.07-3.21,4.35-4.37,6.79-1.19,2.49-1.79,5.44-1.79,8.78,0,4.53.93,9.61,2.75,15.11,1.8,5.44,4.21,11.15,7.16,16.97,2.94,5.81,6.13,11.47,9.47,16.84,2.97,4.78,5.84,9.16,8.53,13.05h-2.87v11.83h52.78v-11.83h-3.35c2.81-3.89,5.77-8.27,8.82-13.04,3.43-5.37,6.73-11.04,9.79-16.83,3.07-5.8,5.61-11.51,7.55-16.97,1.96-5.51,2.95-10.6,2.95-15.13,0-3.33-.63-6.29-1.87-8.79Zm-41.71,70.76h-17.14c-3.87-4.32-7.62-9.45-11.16-15.25-3.63-5.95-6.92-12.08-9.78-18.23-2.86-6.15-5.14-11.91-6.76-17.12-1.62-5.16-2.43-9.2-2.43-11.99s.81-5.43,2.4-7.8c1.68-2.51,3.64-5.07,5.82-7.6,2.25-2.62,4.26-5.49,5.98-8.53,1.77-3.12,2.67-6.72,2.67-10.7v-5.61h43.68v5.61c0,3.97.9,7.57,2.67,10.7,1.73,3.05,3.74,5.92,5.98,8.53,2.19,2.56,4.15,5.11,5.82,7.6,1.59,2.37,2.4,5,2.4,7.8s-.82,6.82-2.43,11.99c-1.63,5.21-3.91,10.97-6.77,17.12-2.86,6.15-6.15,12.28-9.78,18.23-3.54,5.8-7.29,10.93-11.16,15.24Z"/>
    </g>
  </g>
  </g>
</svg>