<svg xmlns="http://www.w3.org/2000/svg"
     width="512" height="512"
     viewBox="0 0 512 512">
  <g transform="translate(46.054 0.000) scale(4.077407)">
<defs>
    <style>
      .cls-1 {
        stroke-width: 0px;
      }
    </style>
  </defs>
  <g id="Layer_1-2" data-name="Layer 1">
    <path class="cls-1" d="m101.19,43.71c-1.17-2.43-2.65-4.7-4.39-6.75-1.75-2.06-3.44-4.1-5.03-6.08-1.6-1.98-2.96-4.28-4.06-6.81-1.08-2.49-1.63-5.46-1.63-8.82v-3.41h11.83V0H4.17v11.83h12.74v3.41c0,3.35-.55,6.32-1.63,8.82-1.1,2.54-2.47,4.83-4.06,6.81-1.65,2.05-3.34,4.09-5.03,6.08-1.75,2.06-3.23,4.33-4.39,6.75-1.19,2.48-1.8,5.41-1.8,8.73,0,4.4.9,9.38,2.68,14.79,1.76,5.37,4.13,10.94,7.04,16.57,2.88,5.58,6,11.1,9.26,16.42,3.23,5.27,6.43,10.14,9.5,14.48,3.05,4.32,5.7,7.87,7.87,10.54l.27.34h29.72l.27-.34c2.18-2.68,4.75-6.13,7.87-10.54,3.08-4.36,6.27-9.23,9.49-14.48,3.26-5.3,6.38-10.82,9.27-16.42,2.9-5.62,5.27-11.19,7.04-16.57,1.78-5.42,2.68-10.39,2.68-14.79,0-3.31-.6-6.25-1.8-8.73Zm-58.26,70.04c-3.87-4.32-7.62-9.45-11.16-15.25-3.63-5.95-6.92-12.08-9.78-18.23-2.86-6.15-5.14-11.91-6.76-17.12-1.62-5.16-2.43-9.2-2.43-11.99s.81-5.43,2.4-7.8c1.68-2.51,3.64-5.07,5.82-7.6,2.25-2.62,4.26-5.49,5.98-8.53,1.77-3.12,2.67-6.72,2.67-10.7v-5.61h43.68v5.61c0,3.97.9,7.57,2.67,10.7,1.73,3.05,3.74,5.92,5.98,8.53,2.19,2.56,4.15,5.11,5.82,7.6,1.59,2.37,2.4,5,2.4,7.8s-.82,6.82-2.43,11.99c-1.63,5.21-3.91,10.97-6.77,17.12-2.86,6.15-6.15,12.28-9.78,18.23-3.54,5.8-7.29,10.93-11.16,15.24h-17.14Z"/>
  </g>
  </g>
</svg>