<svg xmlns="http://www.w3.org/2000/svg"
     width="512" height="512"
     viewBox="0 0 512 512">
  <g transform="translate(0.000 23.581) scale(3.701829)">
<defs>
    <style>
      .cls-1 {
        stroke-width: 0px;
      }
    </style>
  </defs>
  <g id="Layer_1-2" data-name="Layer 1">
    <g>
      <rect class="cls-1" x="78.26" width="11.83" height="35.49"/>
      <rect class="cls-1" x="125.57" width="11.83" height="35.49"/>
      <rect class="cls-1" x="109.19" width="11.83" height="35.49"/>
      <rect class="cls-1" x="49.14" width="11.83" height="35.49"/>
      <rect class="cls-1" x="93.73" width="11.83" height="35.49"/>
      <rect class="cls-1" x="1.82" width="11.83" height="35.49"/>
      <rect class="cls-1" x="33.67" width="11.83" height="35.49"/>
      <path class="cls-1" d="m138.31,53.69v-11.83h-52.38l-.24.17c-5.77,4.08-11.33,8.51-16.54,13.18-5.21-4.67-10.77-9.1-16.54-13.18l-.24-.17H0v11.83h47.25c2.38,1.57,4.75,3.27,7.05,5.04,2.11,1.63,4.22,3.37,6.27,5.18-6.39,6.75-11.58,14.39-15.43,22.73-3.99,8.65-6.01,18.59-6.01,29.55v9.38h12.74v-9.73c0-8.28,1.7-16.2,5.05-23.52,3.23-7.05,7.5-13.66,12.7-19.65,5.2,5.99,9.47,12.6,12.7,19.65,3.35,7.33,5.05,15.24,5.05,23.52v9.73h11.83v-9.38c0-10.96-2.06-20.9-6.11-29.56-3.91-8.33-9.14-15.97-15.55-22.72,4.26-3.66,8.8-7.1,13.51-10.23h47.28Z"/>
      <rect class="cls-1" x="18.2" width="11.83" height="35.49"/>
    </g>
  </g>
  </g>
</svg>