<svg xmlns="http://www.w3.org/2000/svg"
     width="512" height="512"
     viewBox="0 0 512 512">
  <g transform="translate(106.024 0.000) scale(3.926079)">
<defs>
    <style>
      .cls-1 {
        stroke-width: 0px;
      }
    </style>
  </defs>
  <g id="Layer_1-2" data-name="Layer 1">
    <path class="cls-1" d="m65.76,79.16c2.23-4.14,3.36-8.76,3.36-13.74s-1.16-9.62-3.44-13.82c-2.14-3.93-4.96-7.23-8.37-9.81L76.4,5.49,65.98,0l-19.42,36.52c-5.93-1.51-11.8-1.4-16.87.12L10.43,0,0,5.49l19.09,36.31c-3.41,2.58-6.2,5.88-8.3,9.82-2.23,4.19-3.36,8.84-3.36,13.81s1.13,9.44,3.36,13.58c2.09,3.88,4.83,7.2,8.15,9.87L0,124.57l10.41,5.84,19.11-36.2c5.11,1.53,11.24,1.63,17.34.12l19.13,36.08,10.41-5.84-18.93-35.53c3.41-2.67,6.2-5.99,8.3-9.88Zm-8.36-13.74c0,2.74-.57,5.37-1.7,7.82-.95,2.07-2.18,3.92-3.67,5.51l-7.24-13.64,7.09-13.21c1.57,1.6,2.85,3.46,3.81,5.55,1.13,2.45,1.7,5.13,1.7,7.97Zm-15.76,18.88c-.35.07-.71.13-1.08.17-1.93.24-3.91.18-5.77-.09l3.41-6.5,3.43,6.42Zm-6.72-37.92c.33-.07.67-.12,1-.17,1.9-.25,3.94-.18,5.57.16l-3.29,6.14-3.28-6.13Zm-3.47,18.73l-7.24,13.64c-3.35-3.59-5.05-8.07-5.05-13.33,0-2.84.57-5.53,1.7-7.97.95-2.07,2.18-3.92,3.66-5.51l6.93,13.17Z"/>
  </g>
  </g>
</svg>