<svg xmlns="http://www.w3.org/2000/svg"
     width="512" height="512"
     viewBox="0 0 512 512">
  <g transform="translate(106.645 0.000) scale(4.077407)">
<defs>
    <style>
      .cls-1 {
        stroke-width: 0px;
      }
    </style>
  </defs>
  <g id="Layer_1-2" data-name="Layer 1">
    <path class="cls-1" d="m69.65,41.81c-2.39-5.02-6.58-10.07-12.46-15l-.69-.58-7.42,8.66.64.6c3.79,3.52,6.68,7.06,8.61,10.5,1.9,3.4,2.86,6.43,2.86,9.01v.52h-18.2V0h-12.74v55.51H12.06v-.52c0-2.58.99-5.61,2.94-9,1.99-3.46,4.86-7,8.55-10.52l.62-.6-7.41-8.65-.69.58c-5.88,4.94-10.08,9.98-12.46,15-2.39,5.02-3.6,10.26-3.6,15.56,0,.91.13,2.08.4,3.57.27,1.54.8,2.95,1.57,4.21,1.1,1.8,2.53,2.18,3.53,2.18h24.76v58.24h12.74v-58.24h24.76c1.55,0,2.8-.76,3.62-2.21.71-1.25,1.21-2.66,1.48-4.18.27-1.51.4-2.68.4-3.57,0-5.3-1.21-10.54-3.6-15.56Z"/>
  </g>
  </g>
</svg>