<svg xmlns="http://www.w3.org/2000/svg"
     width="512" height="512"
     viewBox="0 0 512 512">
  <g transform="translate(103.872 0.000) scale(4.077407)">
<defs>
    <style>
      .cls-1 {
        stroke-width: 0px;
      }
    </style>
  </defs>
  <g id="Layer_1-2" data-name="Layer 1">
    <path class="cls-1" d="m65.65,0c-7.87,0-15.26,1.97-21.98,5.85-6.68,3.86-12.79,9.3-18.15,16.16-5.34,6.84-9.97,14.92-13.75,24.03-3.77,9.08-6.71,19.06-8.73,29.65-2.01,10.58-3.04,21.65-3.04,32.89v17h74.62V0h-8.96ZM18.64,62.79c1.78-6.03,3.94-11.89,6.42-17.44,2.23-4.97,4.81-9.56,7.7-13.67v31.11h-14.12Zm-5.9,50.96v-5.86c0-5.19.28-10.73.83-16.46.53-5.5,1.41-11.15,2.63-16.8h16.56v39.13H12.74ZM61.88,11.68v51.11h-16.38V18.38c2.54-1.79,5.25-3.28,8.06-4.42,2.63-1.07,5.43-1.84,8.32-2.27Zm-16.38,102.06v-39.13h16.38v39.13h-16.38Z"/>
  </g>
  </g>
</svg>