<svg xmlns="http://www.w3.org/2000/svg"
     width="512" height="512"
     viewBox="0 0 512 512">
  <g transform="translate(115.660 0.000) scale(3.958253)">
<defs>
    <style>
      .cls-1 {
        stroke-width: 0px;
      }
    </style>
  </defs>
  <g id="Layer_1-2" data-name="Layer 1">
    <path class="cls-1" d="m58.97,90.27l-.43,1.22c-3.42,9.75-7.28,16.55-11.48,20.2-4.13,3.59-8.61,5.42-13.33,5.42-6.26,0-11.3-1.59-14.97-4.73-3.61-3.08-5.44-8.2-5.44-15.21,0-4.45,1.24-8.39,3.7-11.71,2.54-3.44,5.86-6.65,9.86-9.55,4.07-2.95,8.47-5.9,13.08-8.77,4.66-2.9,9.13-6.1,13.29-9.53,4.22-3.48,7.72-7.49,10.4-11.92,2.74-4.51,4.13-9.88,4.13-15.96,0-5.33-1.17-10.29-3.47-14.73-2.32-4.47-5.86-8.13-10.53-10.87C49.12,1.39,43.11,0,35.9,0c-6.51,0-12.22,1.55-16.99,4.61-4.72,3.02-8.62,6.93-11.6,11.6-2.94,4.62-5.17,9.35-6.64,14.07l-.37,1.19,11.79,3.67.4-1.15c2.6-7.5,5.82-13.09,9.57-16.59,3.66-3.42,8.42-5.15,14.15-5.15,6.28,0,10.93,1.75,13.81,5.2,2.94,3.52,4.43,7.65,4.43,12.27s-1.25,8.82-3.72,12.36c-2.54,3.63-5.85,6.97-9.85,9.92-4.09,3.02-8.49,5.99-13.07,8.84-4.67,2.91-9.13,6.06-13.27,9.37-4.22,3.37-7.72,7.25-10.41,11.53-2.74,4.36-4.14,9.55-4.14,15.44,0,10.95,3.03,19.15,9.01,24.38,5.93,5.18,14.09,7.81,24.26,7.81,8.65,0,16.21-3.09,22.45-9.17,6.14-5.98,11.11-14.1,14.77-24.14l.42-1.15-11.94-4.62Z"/>
  </g>
  </g>
</svg>