<svg xmlns="http://www.w3.org/2000/svg"
     width="512" height="512"
     viewBox="0 0 512 512">
  <g transform="translate(78.939 0.000) scale(4.077407)">
<defs>
    <style>
      .cls-1 {
        stroke-width: 0px;
      }
    </style>
  </defs>
  <g id="Layer_1-2" data-name="Layer 1">
    <polygon class="cls-1" points="86.85 43.1 77.85 34.91 49.79 64.53 49.79 54.18 86.85 16.03 77.85 7.84 49.79 37.45 49.79 0 37.05 0 37.05 37.45 9 7.84 0 16.03 37.05 54.18 37.05 64.53 9 34.91 0 43.1 37.05 81.25 37.05 91.6 9 61.98 0 70.17 37.05 108.33 37.05 125.57 49.79 125.57 49.79 108.33 86.85 70.17 77.85 61.98 49.79 91.6 49.79 81.25 86.85 43.1"/>
  </g>
  </g>
</svg>