<svg xmlns="http://www.w3.org/2000/svg"
     width="512" height="512"
     viewBox="0 0 512 512">
  <g transform="translate(0.000 44.623) scale(4.176183)">
<defs>
    <style>
      .cls-1 {
        stroke-width: 0px;
      }
    </style>
  </defs>
  <g id="Layer_1-2" data-name="Layer 1">
    <path class="cls-1" d="m110.01,79.64l-.08.44c-.44,2.3-1.36,4.49-2.73,6.52-1.33,1.98-3.46,2.94-6.52,2.94-2.75,0-4.7-.72-5.78-2.14-1.12-1.46-1.68-3.16-1.68-5.05,0-2.19.6-4.36,1.78-6.46,1.21-2.15,2.76-4.41,4.6-6.69,1.86-2.32,3.73-4.95,5.56-7.82,1.83-2.89,3.39-6.2,4.62-9.86,1.24-3.67,1.87-7.94,1.87-12.7,0-4.31-.84-8.77-2.49-13.26-1.65-4.5-4.42-8.73-8.22-12.58-3.8-3.85-9-7.01-15.45-9.39-6.44-2.37-14.55-3.58-24.11-3.58s-17.7,1.2-24.18,3.58c-6.5,2.38-11.72,5.54-15.52,9.39-3.8,3.85-6.57,8.08-8.22,12.58-1.65,4.49-2.49,8.95-2.49,13.26,0,4.76.63,9.03,1.87,12.7,1.23,3.66,2.81,6.98,4.69,9.86,1.86,2.86,3.73,5.49,5.55,7.81,1.8,2.29,3.32,4.55,4.53,6.7,1.18,2.1,1.78,4.28,1.78,6.46,0,1.89-.54,3.57-1.61,4.98-1.04,1.38-3.01,2.07-5.85,2.07s-5.05-.94-6.38-2.87c-1.37-1.99-2.34-4.17-2.87-6.46l-.1-.42-12.58,2.19.05.42c.28,2.58,1.05,5.38,2.29,8.32,1.26,2.99,3.5,5.53,6.66,7.58,3.16,2.04,7.69,3.08,13.49,3.08,5.06,0,9.1-.82,12.03-2.45,2.94-1.63,5.07-3.76,6.33-6.34,1.25-2.55,1.89-5.26,1.89-8.05,0-3.87-.63-7.26-1.88-10.08-1.23-2.79-2.79-5.44-4.62-7.87-1.78-2.35-3.64-4.88-5.52-7.5-1.83-2.55-3.38-5.45-4.58-8.63-1.2-3.16-1.81-7.03-1.81-11.51,0-2.59.41-5.39,1.21-8.34.8-2.93,2.29-5.77,4.42-8.43,2.13-2.66,5.27-4.96,9.32-6.83,3.87-1.79,9.05-2.98,14.99-3.47v88.27h13.65V11.73c6.39.47,11.61,1.64,15.54,3.47,4.01,1.87,7.15,4.17,9.33,6.84,2.18,2.67,3.69,5.51,4.49,8.43.8,2.95,1.21,5.76,1.21,8.34,0,4.48-.61,8.39-1.81,11.65-1.21,3.27-2.75,6.26-4.59,8.91-1.85,2.67-3.73,5.23-5.58,7.62-1.88,2.43-3.46,5.03-4.69,7.73-1.25,2.73-1.88,5.85-1.88,9.27,0,2.6.63,5.26,1.89,7.91,1.26,2.67,3.41,4.92,6.39,6.68,2.97,1.76,7,2.66,11.97,2.66,5.61,0,10.06-1.03,13.21-3.08,3.15-2.04,5.46-4.58,6.85-7.56,1.38-2.94,2.18-5.75,2.36-8.35l.03-.41-12.58-2.19Z"/>
  </g>
  </g>
</svg>