<svg xmlns="http://www.w3.org/2000/svg"
     width="512" height="512"
     viewBox="0 0 512 512">
  <g transform="translate(80.593 0.000) scale(5.209605)">
<defs>
    <style>
      .cls-1 {
        stroke-width: 0px;
      }
    </style>
  </defs>
  <g id="Layer_1-2" data-name="Layer 1">
    <path class="cls-1" d="m46.1,59.24c1.18-2.17,1.99-4.34,2.4-6.47h18.84v-11.83h-20.49c-.66-1.41-1.47-2.79-2.41-4.1-.92-1.28-2.07-2.49-3.43-3.62,2.86-2.6,4.94-5.39,6.19-8.3,1.3-3.04,1.96-6.19,1.96-9.37V0H0v16c0,3.4.51,6.62,1.51,9.56.97,2.83,2.79,5.49,5.43,7.89-2.37,2.06-4.1,4.48-5.15,7.21-1.1,2.86-1.66,5.71-1.66,8.48s.56,5.74,1.66,8.55c1.05,2.68,2.78,5.08,5.15,7.14-2.64,2.4-4.46,5.06-5.43,7.89-1,2.94-1.51,6.15-1.51,9.56v16h49.14v-15.54c0-3.08-.58-6.12-1.74-9.01-1.11-2.79-3.22-5.65-6.27-8.52,2.12-1.79,3.79-3.79,4.97-5.95Zm-28.11-18.3c1.64-1.08,3.99-1.63,6.98-1.63s5.2.55,6.85,1.63c1.65,1.09,2.83,2.38,3.52,3.84.7,1.48,1.05,2.89,1.05,4.17s-.35,2.72-1.05,4.25c-.69,1.5-1.87,2.79-3.51,3.83-1.65,1.04-3.95,1.57-6.85,1.57s-5.34-.55-6.98-1.63c-1.64-1.08-2.81-2.39-3.45-3.89-.65-1.53-.99-2.91-.99-4.12,0-1.29.33-2.7.99-4.18.64-1.46,1.8-2.75,3.45-3.83Zm-4.34,41.18c0-1.5.27-3.2.79-5.06.51-1.81,1.59-3.41,3.21-4.76,1.61-1.33,4.09-2.01,7.37-2.01s5.73.68,7.3,2.01c1.58,1.35,2.67,2.95,3.22,4.77.57,1.86.85,3.56.85,5.05v4.32H13.65v-4.32Zm18.68-56.09c-1.57,1.29-4.03,1.94-7.31,1.94s-5.76-.68-7.37-2.01c-1.62-1.34-2.7-2.94-3.21-4.76-.52-1.86-.79-3.57-.79-5.06v-4.32h22.75v4.32c0,1.5-.29,3.22-.85,5.12-.55,1.86-1.64,3.46-3.21,4.76Z"/>
  </g>
  </g>
</svg>