<svg xmlns="http://www.w3.org/2000/svg"
     width="512" height="512"
     viewBox="0 0 512 512">
  <g transform="translate(0.000 20.726) scale(4.689074)">
<defs>
    <style>
      .cls-1 {
        stroke-width: 0px;
      }
    </style>
  </defs>
  <g id="Layer_1-2" data-name="Layer 1">
    <path class="cls-1" d="m106.49,45.93c-1.82-2.28-5.54-3.44-11.05-3.44h-6.16c-.96-12.81-4.2-23.17-9.65-30.79C74.09,3.94,65.99,0,55.56,0c-7.37,0-13.6,1.79-18.5,5.33-4.89,3.53-8.66,8.57-11.19,14.98-2.48,6.26-4.02,13.72-4.59,22.18h-7.39c-5.42,0-9.13,1.15-11.04,3.43-1.89,2.25-2.85,6.15-2.85,11.6v5.9h12.74v-3c0-2.45.41-4.09,1.23-4.89.82-.8,2.5-1.21,5-1.21h1.61c.3,9.01,1.66,17.04,4.04,23.85,2.43,6.97,6.15,12.46,11.07,16.33,4.93,3.88,11.33,5.85,19.05,5.85s13.58-1.95,18.5-5.78c4.91-3.83,8.71-9.3,11.27-16.26,2.51-6.82,3.89-14.89,4.11-23.99h1.6c2.59,0,4.29.4,5.07,1.2.78.8,1.17,2.45,1.17,4.9v3h12.74v-5.9c0-5.43-.91-9.33-2.7-11.59ZM55.23,11.6c6.62,0,11.56,2.75,14.69,8.17,3.13,5.42,5.05,13.06,5.71,22.73h-41.2c.66-9.66,2.63-17.3,5.84-22.72,3.22-5.42,8.25-8.17,14.96-8.17Zm-.14,78.12c-7.15,0-12.41-3.18-15.63-9.44-3.23-6.28-4.98-15.01-5.2-25.95h41.52c-.31,10.94-2.05,19.67-5.19,25.96-3.13,6.26-8.35,9.44-15.5,9.44Z"/>
  </g>
  </g>
</svg>