<svg xmlns="http://www.w3.org/2000/svg"
     width="512" height="512"
     viewBox="0 0 512 512">
  <g transform="translate(0.000 17.542) scale(4.852621)">
<defs>
    <style>
      .cls-1 {
        stroke-width: 0px;
      }
    </style>
  </defs>
  <g id="Layer_1-2" data-name="Layer 1">
    <path class="cls-1" d="m72.61,52.78h32.91L77.87,0H27.64L0,52.78h32.97c-2.16,2.81-3.62,6.14-4.34,9.9-.77,4.05-1.17,8.15-1.17,12.16v23.43h50.96v-23.48c0-4.36-.47-8.57-1.38-12.5-.85-3.62-2.34-6.82-4.43-9.52Zm-32.41,21.84c0-4.41.3-8.06.88-10.83.57-2.7,1.73-4.72,3.46-6.01,1.74-1.3,4.41-1.96,7.95-1.96s6.32.66,8.01,1.95c1.68,1.29,2.82,3.31,3.39,6.01.58,2.78.88,6.42.88,10.83v11.83h-24.57v-11.83Zm6.37-62.79v29.12h-26.92l15.48-29.12h11.45Zm24.05,0l15.61,29.12h-26.92V11.83h11.31Z"/>
  </g>
  </g>
</svg>