<svg xmlns="http://www.w3.org/2000/svg"
     width="512" height="512"
     viewBox="0 0 512 512">
  <g transform="translate(0.000 13.278) scale(4.742058)">
<defs>
    <style>
      .cls-1 {
        stroke-width: 0px;
      }
    </style>
  </defs>
  <g id="Layer_1-2" data-name="Layer 1">
    <path class="cls-1" d="m94.67,89.37c-3.92.77-8.13,1.17-12.51,1.17-11.73,0-20.7-3.14-26.67-9.33-5.9-6.12-9.12-14.99-9.55-26.39h48.17v-11.83h-48c1.06-9.74,4.51-17.42,10.26-22.85,5.84-5.51,13.59-8.31,23.02-8.31,4.55,0,8.75.53,12.48,1.57,3.75,1.05,7.17,2.27,10.18,3.64l.4.18,5.52-11.17-.41-.2c-3.8-1.85-8.22-3.3-13.12-4.32-4.9-1.02-10.01-1.53-15.19-1.53-9.82,0-18.21,1.88-24.94,5.59-6.74,3.71-11.99,8.89-15.62,15.38-3.56,6.37-5.71,13.78-6.39,22.02H12.78c-3.53,0-6.58,1.4-9.06,4.16-2.47,2.75-3.72,6.15-3.72,10.12s1.25,7.4,3.71,10.18c2.48,2.81,5.53,4.23,9.06,4.23s6.59-1.42,9.07-4.23c2.46-2.79,3.71-6.22,3.71-10.18,0-.47-.02-.97-.07-1.49-.03-.32-.07-.64-.12-.95h6.64c.8,14.49,5.19,26.14,13.05,34.62,7.94,8.58,19.73,12.93,35.02,12.93,5.8,0,10.77-.33,14.75-.97,3.97-.64,7.91-1.67,11.71-3.06l.3-.11v-11.69l-.57.15c-3.76,1.01-7.67,1.91-11.6,2.69Z"/>
  </g>
  </g>
</svg>