<svg xmlns="http://www.w3.org/2000/svg"
     width="512" height="512"
     viewBox="0 0 512 512">
  <g transform="translate(43.716 0.000) scale(4.665573)">
<defs>
    <style>
      .cls-1 {
        stroke-width: 0px;
      }
    </style>
  </defs>
  <g id="Layer_1-2" data-name="Layer 1">
    <path class="cls-1" d="m89.88,5.48c-.77-2.02-2.19-3.47-4.21-4.29-1.96-.79-4.77-1.19-8.35-1.19H13.68c-3.58,0-6.39.4-8.35,1.19C3.3,2.01,1.89,3.46,1.12,5.48c-.74,1.95-1.12,4.76-1.12,8.35v95.9l85.51-28.45c2.61-.87,4.2-2.69,4.73-5.39.5-2.57.76-5.86.76-9.78V13.83c0-3.59-.38-6.4-1.12-8.35Zm-37.1,74.47V11.83h19.47c2.46,0,4.09.41,4.85,1.22.77.82,1.16,2.51,1.16,5.01v48.73c0,3.09-1.31,5.05-4,5.98l-21.48,7.17ZM19.69,11.83h19.44v72.51l-25.48,8.57V18.06c0-2.51.39-4.19,1.16-5.01.76-.81,2.4-1.22,4.88-1.22Z"/>
  </g>
  </g>
</svg>