<svg xmlns="http://www.w3.org/2000/svg"
     width="512" height="512"
     viewBox="0 0 512 512">
  <g transform="translate(46.112 0.000) scale(4.768557)">
<defs>
    <style>
      .cls-1 {
        stroke-width: 0px;
      }
    </style>
  </defs>
  <g id="Layer_1-2" data-name="Layer 1">
    <path class="cls-1" d="m82.95,30.21c-3.38-6.83-8.42-12.29-14.99-16.23-6.57-3.94-14.76-5.93-24.35-5.93-1.28,0-2.54.05-3.76.14-1.04.08-2.12.19-3.23.34V0h-10.92v11.2c-3.37,1.33-6.43,3.04-9.1,5.1V0H5.69v29.41c-1.88,3.54-3.31,7.4-4.26,11.48-.95,4.11-1.44,8.37-1.44,12.66,0,8.68,1.61,16.57,4.79,23.46,3.18,6.92,8.1,12.45,14.62,16.44,6.5,3.98,14.77,6,24.57,6,1.74,0,3.42-.09,5-.28,1.38-.16,2.74-.36,4.04-.59v8.78h11.83v-12.32c3.3-1.58,6.35-3.7,9.1-6.3v18.62h10.92v-35.31c1.09-2.9,1.9-5.91,2.41-8.95.51-3.07.76-6.24.76-9.42,0-8.76-1.71-16.66-5.08-23.47Zm-8.87,23.43c0,6.82-1.07,12.87-3.17,17.98-2.09,5.08-5.39,9.09-9.79,11.94-4.41,2.85-10.22,4.29-17.29,4.29s-12.77-1.45-17.23-4.3c-4.45-2.84-7.79-6.86-9.93-11.94-2.15-5.11-3.24-11.16-3.24-17.98,0-10.22,2.47-18.53,7.34-24.7,4.84-6.13,12.65-9.24,23.19-9.24s18.27,3.11,22.98,9.24c4.74,6.17,7.14,14.48,7.14,24.7Z"/>
  </g>
  </g>
</svg>