<svg xmlns="http://www.w3.org/2000/svg"
     width="512" height="512"
     viewBox="0 0 512 512">
  <g transform="translate(72.643 0.000) scale(4.001250)">
<defs>
    <style>
      .cls-1 {
        stroke-width: 0px;
      }
    </style>
  </defs>
  <g id="Layer_1-2" data-name="Layer 1">
    <path class="cls-1" d="m91.38,124.75c-1.14-5.46-2.5-12.09-4.1-19.88-1.58-7.71-3.22-16.1-4.87-24.96-1.64-8.79-3.17-17.68-4.56-26.42-1.38-8.71-2.5-16.86-3.32-24.23l-.15-1.32-12.22,2.13.14,1.17c.41,3.51.88,7.11,1.4,10.7l1.34,9.4h-11.85V0h-13.33v51.36h-13.25l2.92-21.49-12.26-1.56-.14,1.27c-.82,7.61-1.94,15.86-3.32,24.54-1.37,8.65-2.91,17.46-4.56,26.18-1.65,8.73-3.27,17.02-4.79,24.66-1.54,7.68-2.94,14.33-4.17,19.77l-.3,1.32,13.02,1.91.25-1.15c.62-2.91,1.56-7.68,2.79-14.18,1.2-6.37,2.6-13.86,4.26-22.9,1.53-8.33,3.01-17.11,4.41-26.12h15.16v27.97h-11.14v12.25h11.14v22.43h13.33v-22.43h11.29v-12.25h-11.29v-27.97h13.76c1.39,8.97,2.84,17.75,4.33,26.12,1.53,8.64,2.94,16.35,4.18,22.91,1.17,6.18,2.08,11.07,2.63,14.14l.21,1.19,13.34-1.91-.27-1.3Z"/>
  </g>
  </g>
</svg>