<svg xmlns="http://www.w3.org/2000/svg"
     width="512" height="512"
     viewBox="0 0 512 512">
  <g transform="translate(0.000 38.544) scale(4.425238)">
<defs>
    <style>
      .cls-1 {
        stroke-width: 0px;
      }
    </style>
  </defs>
  <g id="Layer_1-2" data-name="Layer 1">
    <path class="cls-1" d="m73.81,8.31c-1.2-2.57-2.46-4.61-3.76-6.05-1.36-1.5-3.31-2.26-5.79-2.26h-12.95c-2.4,0-4.3.76-5.66,2.26-1.3,1.44-2.56,3.47-3.76,6.04L0,98.28h115.7L73.81,8.31Zm-17.59,3.52h3.13c1.41,0,2.43.41,3.12,1.26.74.92,1.39,1.97,1.91,3.1l13.59,29.3h-40.23l13.59-29.3c.53-1.15,1.16-2.2,1.85-3.11.64-.84,1.64-1.25,3.04-1.25Zm8.22,74.62v-29.12h18.24l13.58,29.12h-31.82Zm-45.24,0l13.45-29.12h19.05v29.12H19.2Z"/>
  </g>
  </g>
</svg>