<svg xmlns="http://www.w3.org/2000/svg"
     width="512" height="512"
     viewBox="0 0 512 512">
  <g transform="translate(26.048 0.000) scale(5.209605)">
<defs>
    <style>
      .cls-1 {
        stroke-width: 0px;
      }
    </style>
  </defs>
  <g id="Layer_1-2" data-name="Layer 1">
    <path class="cls-1" d="m86.48,37.6c1.19-4.43,1.8-9.22,1.8-14.23V0h-50.96v23.02c0,3.15.23,6.38.7,9.6.43,3,1.22,5.8,2.36,8.33h-24.3c-2.92,0-5.63.72-8.04,2.14-2.4,1.41-4.36,3.35-5.82,5.75-1.47,2.41-2.21,5.12-2.21,8.05s.74,5.64,2.21,8.05c1.46,2.4,3.42,4.36,5.82,5.82,2.41,1.47,5.12,2.21,8.05,2.21s5.78-.74,8.18-2.21c2.4-1.46,4.34-3.42,5.75-5.83,1.42-2.41,2.14-5.11,2.14-8.04,0-1.25-.19-2.63-.56-4.11h10.21c-1.72,2.91-2.9,6.19-3.5,9.77-.65,3.83-.97,7.65-.97,11.34v24.39h50.96v-24.73c0-5.01-.6-9.86-1.8-14.43-1.16-4.43-3.29-8.1-6.34-10.92,3.05-2.73,5.18-6.29,6.34-10.59Zm-16.07,2.76c-1.75,1.3-4.48,1.96-8.13,1.96s-6.22-.66-7.92-1.95c-1.69-1.29-2.84-3.31-3.41-6.01-.59-2.77-.89-6.41-.89-10.82v-11.69h24.57v11.69c0,4.41-.27,8.05-.82,10.83-.53,2.69-1.67,4.71-3.41,6Zm-16.03,15.5c1.7-1.47,4.35-2.21,7.9-2.21s6.36.74,8.11,2.21c1.74,1.47,2.9,3.68,3.43,6.56.54,2.96.82,6.66.82,10.97v13.06h-24.57v-13.06c0-4.41.3-8.12.89-11.03.57-2.84,1.73-5.03,3.43-6.5Zm-31.79.75c0,1.78-.62,3.3-1.85,4.52-1.24,1.24-2.68,1.85-4.39,1.85s-3.15-.6-4.39-1.85c-1.24-1.24-1.85-2.72-1.85-4.52s.58-3.15,1.78-4.39c1.2-1.24,2.56-1.84,4.18-1.84,1.98,0,3.53.6,4.72,1.84,1.2,1.24,1.78,2.68,1.78,4.39Z"/>
  </g>
  </g>
</svg>