<svg xmlns="http://www.w3.org/2000/svg"
     width="512" height="512"
     viewBox="0 0 512 512">
  <g transform="translate(18.963 0.000) scale(5.209605)">
<defs>
    <style>
      .cls-1 {
        stroke-width: 0px;
      }
    </style>
  </defs>
  <g id="Layer_1-2" data-name="Layer 1">
    <path class="cls-1" d="m77.35,0v80.23c0,2.5-.39,4.18-1.16,5-.76.81-2.39,1.22-4.85,1.22h-19.47V0h-13.65v86.45h-19.44c-2.48,0-4.12-.41-4.88-1.22-.77-.81-1.16-2.49-1.16-5V0H0v84.46c0,3.59.38,6.4,1.12,8.34.77,2.02,2.19,3.46,4.21,4.28,1.95.79,4.76,1.19,8.35,1.19h63.65c3.59,0,6.4-.4,8.35-1.19,2.02-.82,3.43-2.26,4.21-4.28.74-1.95,1.12-4.76,1.12-8.34V0h-13.65Z"/>
  </g>
  </g>
</svg>