<svg xmlns="http://www.w3.org/2000/svg"
     width="512" height="512"
     viewBox="0 0 512 512">
  <g transform="translate(0.000 3.494) scale(5.138499)">
<defs>
    <style>
      .cls-1 {
        stroke-width: 0px;
      }
    </style>
  </defs>
  <g id="Layer_1-2" data-name="Layer 1">
    <path class="cls-1" d="m86.72,0l-12.47,80.3c-.35,2.47-.81,4.18-1.37,5.07-.5.81-1.82,1.22-3.91,1.22s-3.3-.43-3.84-1.29c-.6-.94-1.08-2.63-1.43-5.01L53.61,13.75c-.54-3.73-1.12-6.59-1.72-8.52-.63-2.04-1.87-3.44-3.67-4.17-1.76-.71-4.51-1.06-8.42-1.06H15.61C11.05,0,7.6,1.05,5.33,3.12,3.09,5.18,1.62,7.74.97,10.73c-.64,2.93-.97,5.85-.97,8.7,0,7.17,1.96,13.3,5.83,18.23,3.86,4.91,9.16,8.7,15.75,11.27,6.57,2.56,14.02,3.85,22.14,3.85h2.49l4.71,31.76c.64,4.2,1.5,7.53,2.55,9.92,1.12,2.53,3.2,3.81,6.21,3.81h18.3c2.91,0,4.96-1.28,6.07-3.82,1.06-2.39,1.92-5.73,2.56-9.93L99.64,0h-12.92Zm-42.31,40.95h-2.31c-8.71,0-15.77-1.77-20.98-5.27-5.16-3.45-7.78-8.26-7.78-14.3,0-2.98.4-5.38,1.18-7.12.74-1.64,2.51-2.44,5.4-2.44h16.37c1.62,0,2.69.45,3.19,1.32.56.99.97,2.37,1.23,4.11l3.71,23.69Z"/>
  </g>
  </g>
</svg>