<svg xmlns="http://www.w3.org/2000/svg"
     width="512" height="512"
     viewBox="0 0 512 512">
  <g transform="translate(18.963 0.000) scale(5.209605)">
<defs>
    <style>
      .cls-1 {
        stroke-width: 0px;
      }
    </style>
  </defs>
  <g id="Layer_1-2" data-name="Layer 1">
    <path class="cls-1" d="m77.35,0v34.74c0,2.49-.41,4.17-1.21,4.99-.81.81-2.46,1.23-4.93,1.23h-19.34V0h-12.74v40.95h-19.34c-2.47,0-4.13-.41-4.93-1.23-.81-.81-1.21-2.49-1.21-4.99V0H0v38.95c0,5.46.92,9.04,2.82,10.97,1.9,1.93,5.43,2.87,10.8,2.87h9.86c-1.35,2.67-2.26,5.6-2.72,8.69-.49,3.33-.74,6.73-.74,10.1v26.71h50.96v-26.75c0-3.64-.3-7.15-.9-10.43-.55-3.02-1.48-5.82-2.77-8.32h9.36c5.75,0,9.49-.94,11.43-2.86,1.95-1.93,2.9-5.51,2.9-10.97V0h-13.65Zm-19.99,60.58c.58,2.73.88,6.35.88,10.76v15.1h-24.57v-15.1c0-4.41.3-8.06.88-10.83.57-2.69,1.73-4.69,3.45-5.94,1.74-1.26,4.42-1.89,7.95-1.89s6.32.66,8.01,1.95c1.68,1.29,2.82,3.29,3.39,5.94Z"/>
  </g>
  </g>
</svg>