<svg xmlns="http://www.w3.org/2000/svg"
     width="512" height="512"
     viewBox="0 0 512 512">
  <g transform="translate(7.111 0.000) scale(5.209605)">
<defs>
    <style>
      .cls-1 {
        stroke-width: 0px;
      }
    </style>
  </defs>
  <g id="Layer_1-2" data-name="Layer 1">
    <path class="cls-1" d="m94.42,5.47c-.78-2.02-2.2-3.46-4.23-4.28-1.97-.79-4.84-1.19-8.53-1.19h-26.05c-3.6,0-6.43.4-8.4,1.19-2.03.82-3.46,2.26-4.23,4.28-.75,1.95-1.13,4.76-1.13,8.35v27.13H13.95c-3.62,0-6.45.38-8.42,1.12-2.04.77-3.5,2.19-4.32,4.22-.8,1.96-1.2,4.82-1.2,8.5v29.64c0,5.46.95,9.05,2.89,10.98,1.94,1.93,5.56,2.86,11.06,2.86h27.62c5.59,0,9.23-.93,11.13-2.86,1.89-1.92,2.81-5.5,2.81-10.94V18.05c0-2.5.4-4.18,1.18-4.99.78-.81,2.5-1.22,5.11-1.22h14.72c2.52,0,4.22.41,5.05,1.23.82.82,1.24,2.49,1.24,4.99v80.23h12.74V13.82c0-3.58-.38-6.39-1.13-8.35Zm-52.56,47.3v27.48c0,2.48-.41,4.16-1.23,4.97-.81.81-2.49,1.22-4.99,1.22h-15.78c-2.5,0-4.17-.41-4.99-1.22-.81-.81-1.23-2.48-1.23-4.97v-21.29c0-2.48.41-4.15,1.23-4.97.81-.81,2.49-1.22,4.99-1.22h22Z"/>
  </g>
  </g>
</svg>