<svg xmlns="http://www.w3.org/2000/svg"
     width="512" height="512"
     viewBox="0 0 512 512">
  <g transform="translate(25.871 0.000) scale(5.057789)">
<defs>
    <style>
      .cls-1 {
        stroke-width: 0px;
      }
    </style>
  </defs>
  <g id="Layer_1-2" data-name="Layer 1">
    <path class="cls-1" d="m85.84,23.95c-3.43-7.55-8.59-13.5-15.33-17.67C63.78,2.11,55.41,0,45.63,0s-18.83,2.14-25.56,6.35c-6.74,4.22-11.82,10.16-15.12,17.67C1.67,31.51,0,40.39,0,50.41s1.67,19.09,4.95,26.66c3.3,7.6,8.39,13.6,15.12,17.81,6.73,4.21,15.28,6.35,25.42,6.35s18.29-2.14,25.01-6.35c6.73-4.21,11.89-10.18,15.32-17.74,3.42-7.53,5.16-16.48,5.16-26.6s-1.74-19.07-5.16-26.6Zm-44.59,56.06c1.24-1.24,2.68-1.85,4.39-1.85,1.8,0,3.28.6,4.52,1.85,1.24,1.24,1.85,2.68,1.85,4.39s-.6,3.15-1.85,4.39c-1.24,1.24-2.72,1.85-4.52,1.85s-3.15-.6-4.39-1.85c-1.24-1.24-1.85-2.68-1.85-4.39s.6-3.14,1.85-4.39Zm8.91-58.65c-1.24,1.24-2.72,1.85-4.52,1.85s-3.15-.6-4.39-1.85c-1.24-1.24-1.85-2.68-1.85-4.39s.58-3.18,1.79-4.47c1.19-1.28,2.56-1.9,4.17-1.9,1.98,0,3.55.62,4.79,1.91,1.23,1.27,1.85,2.77,1.85,4.46s-.6,3.14-1.85,4.39Zm10.78,66.02c.06-.28.12-.57.16-.87.09-.66.14-1.33.14-1.97,0-4.38-1.54-8.12-4.57-11.11-3.03-2.98-6.75-4.5-11.03-4.5s-7.98,1.51-10.97,4.5c-2.99,2.99-4.5,6.72-4.5,11.1,0,1.01.08,2.02.25,3.03-5.56-2.72-9.76-7.27-12.48-13.52-2.87-6.59-4.33-14.5-4.33-23.5s1.46-16.99,4.33-23.5c2.72-6.16,6.92-10.62,12.48-13.26-.16.98-.25,2.05-.25,3.18,0,4.29,1.51,7.98,4.5,10.97,2.98,2.99,6.67,4.5,10.97,4.5s8-1.51,11.03-4.5c3.03-2.99,4.57-6.68,4.57-10.97,0-.73-.05-1.44-.14-2.11-.05-.34-.11-.68-.18-1.01,5.35,2.72,9.44,7.18,12.15,13.27,2.87,6.46,4.33,14.35,4.33,23.43s-1.43,16.88-4.26,23.43c-2.66,6.17-6.76,10.68-12.19,13.4Z"/>
  </g>
  </g>
</svg>