<svg xmlns="http://www.w3.org/2000/svg"
     width="512" height="512"
     viewBox="0 0 512 512">
  <g transform="translate(76.590 0.000) scale(4.048071)">
<defs>
    <style>
      .cls-1 {
        stroke-width: 0px;
      }
    </style>
  </defs>
  <g id="Layer_1-2" data-name="Layer 1">
    <path class="cls-1" d="m84.22,37.45c-2.94-7.24-7.3-13.12-12.97-17.47-5.58-4.29-12.52-6.9-20.62-7.77V0h-12.74v12.21c-8.38.96-15.45,3.64-21.02,7.97-5.67,4.4-9.94,10.26-12.71,17.41C1.4,44.72,0,53.05,0,62.35s1.42,17.7,4.22,24.96c2.81,7.29,7.09,13.19,12.71,17.55,5.53,4.29,12.58,6.95,20.96,7.9v13.71h12.74v-13.71c8.2-.87,15.18-3.51,20.76-7.84,5.67-4.4,10.01-10.31,12.9-17.54,2.89-7.22,4.35-15.6,4.35-24.9s-1.49-17.82-4.42-25.04Zm-33.6-13.76c8.57,1.33,15.04,5.37,19.22,12,4.3,6.81,6.48,15.82,6.48,26.78s-2.18,20.02-6.48,26.92c-4.19,6.72-10.65,10.8-19.22,12.13V23.69Zm-31.83,65.57c-4.3-6.9-6.48-15.91-6.48-26.79s2.18-19.93,6.48-26.64c4.19-6.54,10.61-10.58,19.09-12v77.56c-8.48-1.33-14.9-5.41-19.09-12.13Z"/>
  </g>
  </g>
</svg>