<svg xmlns="http://www.w3.org/2000/svg"
     width="512" height="512"
     viewBox="0 0 512 512">
  <g transform="translate(12.451 0.000) scale(5.209605)">
<defs>
    <style>
      .cls-1 {
        stroke-width: 0px;
      }
    </style>
  </defs>
  <g id="Layer_1-2" data-name="Layer 1">
    <path class="cls-1" d="m90.71,2.79c-1.88-1.88-5.49-2.79-11.03-2.79H15.59C10.95,0,7.47,1.05,5.26,3.12,3.06,5.18,1.62,7.74.97,10.72c-.64,2.92-.97,5.85-.97,8.69,0,6.72,1.85,12.41,5.49,16.92,3.45,4.29,7.99,7.91,13.49,10.77-5.52,3.09-10.07,7.43-13.52,12.9-3.62,5.73-5.46,12.07-5.46,18.86,0,2.84.32,5.77.97,8.69.65,2.99,2.1,5.54,4.29,7.6,2.21,2.07,5.69,3.12,10.33,3.12h64.09c5.54,0,9.15-.94,11.03-2.86,1.88-1.92,2.79-5.51,2.79-10.95V13.82c0-5.54-.91-9.15-2.79-11.03Zm-10.86,49.98v27.48c0,2.48-.42,4.15-1.23,4.96-.82.81-2.51,1.22-5.02,1.22h-18.31v-33.67h24.57Zm0-34.78v22.95h-24.57V11.83h18.31c2.51,0,4.2.41,5.02,1.22.82.81,1.23,2.48,1.23,4.95ZM16.68,63.76c2.53-3.51,6.12-6.28,10.66-8.24,4.45-1.92,9.56-2.91,15.2-2.96v33.89h-23.02c-2.97,0-4.83-.83-5.52-2.45-.75-1.75-1.12-4.26-1.12-7.47,0-4.97,1.28-9.27,3.8-12.77Zm-3.8-42.01c0-3.11.38-5.6,1.13-7.4.69-1.67,2.55-2.52,5.52-2.52h23.02v29.39c-9.29-.14-16.63-1.93-21.82-5.31-5.21-3.4-7.85-8.16-7.85-14.16Z"/>
  </g>
  </g>
</svg>