<svg xmlns="http://www.w3.org/2000/svg"
     width="512" height="512"
     viewBox="0 0 512 512">
  <g transform="translate(19.225 0.000) scale(5.126665)">
<defs>
    <style>
      .cls-1 {
        stroke-width: 0px;
      }
    </style>
  </defs>
  <g id="Layer_1-2" data-name="Layer 1">
    <path class="cls-1" d="m89.8,24.59c-1.71-4.41-4.42-8.52-8.05-12.23-3.64-3.71-8.45-6.73-14.29-8.98-5.83-2.24-12.97-3.37-21.21-3.37s-15.38,1.14-21.21,3.37c-5.84,2.24-10.67,5.29-14.35,9.05-3.69,3.76-6.42,7.97-8.12,12.51-1.7,4.53-2.57,9.15-2.57,13.74,0,4.22.75,8.5,2.22,12.71,1.47,4.22,3.83,8.2,7.01,11.82,3.12,3.56,7.17,6.56,12.02,8.93v27.74h50.96v-24.75c0-.63-.02-1.26-.07-1.88-.04-.48-.06-.99-.07-1.53,7.05-3.65,12.25-8.63,15.44-14.81,3.22-6.22,4.85-12.63,4.85-19.05,0-4.4-.86-8.87-2.57-13.27Zm-13.69,25.75c-1.64,3.11-3.89,5.78-6.68,7.94-1.59-4.17-4.14-7.67-7.58-10.41-3.62-2.87-8.72-4.33-15.16-4.33-6.82,0-12.08,1.58-15.65,4.68-3.4,2.96-5.87,6.57-7.37,10.75-2.89-2.08-5.24-4.76-7.01-7.96-1.86-3.37-2.81-7.62-2.81-12.61,0-5.61,1.49-10.48,4.42-14.47,2.94-4.01,6.9-7.11,11.76-9.2,4.88-2.1,10.31-3.17,16.13-3.17s11.15.98,16.08,2.9c4.9,1.92,8.93,4.88,11.95,8.79,3.02,3.91,4.55,9,4.55,15.15,0,4.64-.88,8.65-2.61,11.94Zm-41.2,24.64c0-4.41.3-8.13.89-11.03.57-2.84,1.73-5.03,3.43-6.5,1.7-1.47,4.36-2.21,7.9-2.21s6.34.74,8.03,2.21c1.7,1.47,2.86,3.68,3.43,6.57.59,2.96.89,6.65.89,10.97v13.06h-24.57v-13.06Z"/>
  </g>
  </g>
</svg>