<svg xmlns="http://www.w3.org/2000/svg"
     width="512" height="512"
     viewBox="0 0 512 512">
  <g transform="translate(95.356 0.000) scale(4.055124)">
<defs>
    <style>
      .cls-1 {
        stroke-width: 0px;
      }
    </style>
  </defs>
  <g id="Layer_1-2" data-name="Layer 1">
    <path class="cls-1" d="m65.9,0v1.25c0,6.68-.72,13.28-2.14,19.6-1.4,6.24-3.75,11.6-6.97,15.92-2.82,3.77-6.6,6.31-11.26,7.56.13-1.37.25-2.9.36-4.57.16-2.44.23-5.4.23-8.82V0h-13.33v30.95c0,3.4.08,6.4.24,8.9.11,1.76.23,3.3.36,4.67-3.45-.89-6.39-2.47-8.77-4.73-2.8-2.65-5.04-6.02-6.66-10.01-1.66-4.07-2.86-8.61-3.56-13.47-.71-4.91-1.07-9.98-1.07-15.06V0H0v1.25c0,6.54.55,13.04,1.64,19.32,1.1,6.33,2.99,12.18,5.61,17.37,2.65,5.25,6.23,9.61,10.65,12.96,4.16,3.16,9.34,5.19,15.4,6.05-.08.73-.16,1.53-.26,2.41-.16,1.44-.24,3.07-.24,4.86v62.05h13.33v-62.51c0-1.65-.05-3.17-.16-4.51-.07-.82-.15-1.59-.26-2.31,5.73-.87,10.73-2.92,14.86-6.11,4.4-3.39,8.03-7.77,10.78-13.02,2.73-5.19,4.74-11,6-17.27,1.25-6.24,1.88-12.72,1.88-19.27V0h-13.33Z"/>
  </g>
  </g>
</svg>