<svg xmlns="http://www.w3.org/2000/svg"
     width="512" height="512"
     viewBox="0 0 512 512">
  <g transform="translate(105.052 0.000) scale(5.209605)">
<defs>
    <style>
      .cls-1 {
        stroke-width: 0px;
      }
    </style>
  </defs>
  <g id="Layer_1-2" data-name="Layer 1">
    <path class="cls-1" d="m52,59.58c-3.94-5.63-9.36-10.17-16.1-13.51-6.61-3.27-14.1-4.96-22.25-5.02V0H0v84.46c0,3.85.34,6.79,1.02,8.74.71,2.04,2.14,3.42,4.25,4.1,2.01.65,5.01.98,8.92.98h24.91c5.27,0,9.29-1.04,11.96-3.09,2.66-2.05,4.49-4.6,5.46-7.58.95-2.95,1.44-5.88,1.44-8.73,0-7.15-2-13.64-5.96-19.28Zm-37.33,25.43c-.67-1.01-1.02-2.35-1.02-3.98v-28.48c5.63.06,10.68,1.23,15.03,3.49,4.46,2.32,8.04,5.33,10.62,8.94,2.57,3.59,3.87,7.47,3.87,11.54,0,3.2-.38,5.71-1.12,7.47-.69,1.63-2.55,2.45-5.52,2.45h-18.43c-1.67,0-2.8-.47-3.44-1.44Z"/>
  </g>
  </g>
</svg>