<svg xmlns="http://www.w3.org/2000/svg"
     width="512" height="512"
     viewBox="0 0 512 512">
  <g transform="translate(42.667 0.000) scale(5.209605)">
<defs>
    <style>
      .cls-1 {
        stroke-width: 0px;
      }
    </style>
  </defs>
  <g id="Layer_1-2" data-name="Layer 1">
    <path class="cls-1" d="m79.1,2.79c-1.88-1.88-5.49-2.79-11.04-2.79H13.7c-3.59,0-6.4.4-8.37,1.19C3.31,2.01,1.89,3.46,1.12,5.48c-.74,1.95-1.12,4.76-1.12,8.35v84.44h13.65V18.05c0-2.5.41-4.18,1.21-4.99.8-.81,2.53-1.23,5.13-1.23h11.86v46.23c0,3.59.37,6.4,1.11,8.35.76,2.03,2.16,3.47,4.16,4.29,1.93.79,4.7,1.19,8.25,1.19h22.89c5.48,0,9.04-.94,10.9-2.87,1.85-1.93,2.75-5.51,2.75-10.96V13.83c0-5.55-.91-9.16-2.8-11.04Zm-9.94,15.25v35.8c0,2.49-.42,4.17-1.24,4.98-.83.82-2.53,1.23-5.05,1.23h-12.12c-2.52,0-4.2-.41-4.97-1.22-.78-.81-1.18-2.49-1.18-4.99V11.83h18.27c2.52,0,4.22.41,5.05,1.23.82.82,1.24,2.49,1.24,4.99Z"/>
  </g>
  </g>
</svg>