<svg xmlns="http://www.w3.org/2000/svg"
     width="512" height="512"
     viewBox="0 0 512 512">
  <g transform="translate(109.037 0.000) scale(5.209605)">
<defs>
    <style>
      .cls-1 {
        stroke-width: 0px;
      }
    </style>
  </defs>
  <g id="Layer_1-2" data-name="Layer 1">
    <path class="cls-1" d="m53.78,1.93c-1.71-1.28-4.1-1.93-7.1-1.93H14.19c-3.72,0-6.63.4-8.66,1.19C3.43,2.01,1.96,3.45,1.16,5.47c-.77,1.95-1.16,4.76-1.16,8.35v84.46h13.65v-41.02c8.32-.49,15.74-2.31,22.09-5.41,6.46-3.16,11.58-7.55,15.21-13.06,3.63-5.51,5.47-12.02,5.47-19.36v-9.69c0-3.86-.89-6.49-2.64-7.8Zm-10.6,19.27c0,4.18-1.01,8.1-3.01,11.65-1.99,3.54-5.21,6.49-9.57,8.76-4.28,2.23-9.98,3.6-16.94,4.08v-27.63c0-2.51.39-4.19,1.17-5.01.77-.81,2.43-1.22,4.93-1.22h18.97c1.98,0,3.22.49,3.68,1.45.51,1.07.77,3.74.77,7.92Z"/>
  </g>
  </g>
</svg>