<svg xmlns="http://www.w3.org/2000/svg"
     width="512" height="512"
     viewBox="0 0 512 512">
  <g transform="translate(29.417 0.000) scale(5.133861)">
<defs>
    <style>
      .cls-1 {
        stroke-width: 0px;
      }
    </style>
  </defs>
  <g id="Layer_1-2" data-name="Layer 1">
    <path class="cls-1" d="m86.27,16.99c-1.34-5.17-3.87-9.33-7.52-12.38-3.66-3.06-8.97-4.61-15.78-4.61-4.69,0-8.64.77-11.74,2.3-2.89,1.42-5.27,3.26-7.09,5.46-1.82-2.37-4.24-4.26-7.2-5.61-3.14-1.43-7.06-2.16-11.65-2.16-5.7,0-10.31,1.1-13.69,3.28-3.38,2.17-5.94,5.04-7.6,8.51-1.65,3.45-2.75,7.19-3.25,11.13-.5,3.91-.75,7.7-.75,11.25v65.56h12.74V34.17c0-4.42.3-8.39.89-11.8.58-3.35,1.74-6.01,3.47-7.89,1.69-1.85,4.34-2.79,7.86-2.79s6.17.89,7.87,2.66c1.72,1.79,2.91,4.31,3.53,7.48.63,3.24.96,7.02.96,11.24v66.65h13.65V32.8c0-4.23.32-7.99.96-11.17.62-3.12,1.85-5.59,3.66-7.34,1.79-1.73,4.39-2.6,7.74-2.6,3.61,0,6.3.96,7.99,2.85,1.72,1.93,2.87,4.58,3.4,7.89.54,3.37.82,7.32.82,11.73v65.56h12.74V34.17c0-6.28-.67-12.06-1.99-17.18Z"/>
  </g>
  </g>
</svg>