<svg xmlns="http://www.w3.org/2000/svg"
     width="512" height="512"
     viewBox="0 0 512 512">
  <g transform="translate(0.000 49.655) scale(4.199131)">
<defs>
    <style>
      .cls-1 {
        stroke-width: 0px;
      }
    </style>
  </defs>
  <g id="Layer_1-2" data-name="Layer 1">
    <path class="cls-1" d="m120.75,46.27c-.81-2.02-2.25-3.43-4.26-4.2-1.94-.74-4.74-1.12-8.3-1.12h-23.56V13.79c0-5.53-.91-9.13-2.78-11-1.87-1.88-5.46-2.79-10.97-2.79h-18.77c-3.64,0-6.49.4-8.48,1.19-2.05.82-3.49,2.25-4.27,4.27-.76,1.94-1.14,4.75-1.14,8.33v27.16H14.03c-3.64,0-6.49.38-8.47,1.12-2.05.77-3.52,2.18-4.35,4.2-.8,1.95-1.21,4.8-1.21,8.47v29.74c0,5.45.94,9.03,2.88,10.95,1.93,1.92,5.54,2.86,11.02,2.86h23.31c3.61,0,6.43-.4,8.4-1.19,2.03-.81,3.45-2.25,4.23-4.28.75-1.95,1.13-4.76,1.13-8.34v-31.69h20.02v31.69c0,3.58.38,6.39,1.13,8.34.77,2.02,2.2,3.46,4.23,4.28,1.96.79,4.79,1.19,8.4,1.19h23.31c5.57,0,9.2-.94,11.09-2.86,1.89-1.92,2.8-5.5,2.8-10.94v-29.74c0-3.67-.4-6.52-1.19-8.47Zm-12.46,12.7v21.29c0,2.48-.42,4.15-1.24,4.96-.83.81-2.53,1.23-5.05,1.23h-12.12c-2.52,0-4.2-.41-4.98-1.22-.78-.81-1.18-2.48-1.18-4.97v-27.48h18.28c2.52,0,4.22.41,5.05,1.22.82.81,1.24,2.48,1.24,4.97Zm-37.31-40.96v22.95h-20.02v-22.95c0-2.48.42-4.14,1.24-4.95.82-.81,2.52-1.22,5.05-1.22h7.44c2.52,0,4.22.41,5.05,1.22.82.81,1.24,2.48,1.24,4.95Zm-32.76,34.78v27.48c0,2.48-.42,4.15-1.24,4.97-.82.81-2.51,1.22-5.02,1.22h-12.06c-2.51,0-4.2-.41-5.02-1.22-.82-.81-1.24-2.48-1.24-4.96v-21.29c0-2.48.42-4.15,1.24-4.97.82-.81,2.51-1.22,5.02-1.22h18.31Z"/>
  </g>
  </g>
</svg>