<svg xmlns="http://www.w3.org/2000/svg"
     width="512" height="512"
     viewBox="0 0 512 512">
  <g transform="translate(0.000 57.078) scale(4.048071)">
<defs>
    <style>
      .cls-1 {
        stroke-width: 0px;
      }
    </style>
  </defs>
  <g id="Layer_1-2" data-name="Layer 1">
    <path class="cls-1" d="m124.11,1.58c-1.52-1.05-3.12-1.58-4.75-1.58h-34.34c-5.53,0-9.17.91-11.13,2.78-1.96,1.88-2.91,5.48-2.91,11.02v31.69h-20.02V13.8c0-5.54-.93-9.14-2.84-11.02-1.91-1.88-5.57-2.79-11.2-2.79H14.19c-3.72,0-6.63.4-8.66,1.19C3.43,2.01,1.96,3.45,1.16,5.47c-.77,1.95-1.16,4.76-1.16,8.35v84.46h13.65V18.05c0-2.5.4-4.18,1.18-4.99.78-.81,2.45-1.22,4.97-1.22h12.12c2.52,0,4.22.41,5.05,1.23.82.82,1.24,2.5,1.24,4.99v80.23h12.74v-40.95h20.02v40.95h12.74v-41.07c8.29-.49,15.7-2.31,22.01-5.41,6.44-3.16,11.57-7.55,15.23-13.04,3.67-5.51,5.52-12.02,5.52-19.34V7c0-2.51-.8-4.33-2.38-5.42Zm-10.73,19.62c0,4.18-1.04,8.09-3.08,11.65-2.04,3.55-5.28,6.49-9.64,8.76-4.28,2.23-9.98,3.6-16.94,4.08v-27.63c0-2.5.41-4.18,1.23-5,.82-.82,2.5-1.23,5-1.23h18.97c1.9,0,3.12.49,3.62,1.46.38.74.84,2.7.84,7.91Z"/>
  </g>
  </g>
</svg>