<svg xmlns="http://www.w3.org/2000/svg"
     width="512" height="512"
     viewBox="0 0 512 512">
  <g transform="translate(0.000 55.636) scale(4.077407)">
<defs>
    <style>
      .cls-1 {
        stroke-width: 0px;
      }
    </style>
  </defs>
  <g id="Layer_1-2" data-name="Layer 1">
    <path class="cls-1" d="m0,0v24.69c0,6.28.74,11.82,2.21,16.47,1.48,4.71,4.09,8.4,7.75,10.99,3.66,2.58,8.87,3.9,15.5,3.9,4.6,0,8.5-.75,11.6-2.22,2.91-1.38,5.3-3.2,7.12-5.41,1.41,1.66,3.12,3.11,5.08,4.3,2.04,1.24,4.44,2.15,7.16,2.71v31.03h-14.56v11.83h41.86v-11.83h-14.56v-31.03c2.72-.56,5.1-1.47,7.09-2.71,1.92-1.19,3.61-2.64,5.02-4.3,1.9,2.21,4.33,4.03,7.25,5.42,3.1,1.47,7.05,2.22,11.74,2.22,6.62,0,11.83-1.31,15.49-3.9,3.66-2.59,6.25-6.29,7.69-10.99,1.42-4.65,2.14-10.19,2.14-16.47V0H0Zm112.83,11.83v13.06c0,4.32-.28,8.01-.82,10.97-.53,2.89-1.66,5.09-3.36,6.56-1.7,1.47-4.4,2.21-8.03,2.21-5.11,0-8.48-1.55-9.99-4.59-1.57-3.15-2.36-7.84-2.36-13.92v-14.29h24.57Zm-60.44,28.21c-1.56-3.15-2.35-7.88-2.35-14.06v-14.15h24.57v14.15c0,6.09-.77,10.8-2.28,14-1.46,3.09-4.83,4.65-10,4.65s-8.43-1.54-9.93-4.59Zm-15.09-28.21v13.06c0,4.41-.3,8.14-.88,11.1-.57,2.88-1.74,5.07-3.47,6.49-1.74,1.43-4.4,2.15-7.93,2.15s-6.19-.74-7.93-2.21c-1.74-1.47-2.91-3.68-3.48-6.57-.58-2.95-.88-6.64-.88-10.97v-13.06h24.57Z"/>
  </g>
  </g>
</svg>