<svg xmlns="http://www.w3.org/2000/svg"
     width="512" height="512"
     viewBox="0 0 512 512">
  <g transform="translate(18.963 0.000) scale(5.209605)">
<defs>
    <style>
      .cls-1 {
        stroke-width: 0px;
      }
    </style>
  </defs>
  <g id="Layer_1-2" data-name="Layer 1">
    <path class="cls-1" d="m87.74,29.76c2.16-4.72,3.26-9.81,3.26-15.12v-5.59c0-3.58-.8-6.02-2.37-7.25-1.54-1.19-3.84-1.8-6.85-1.8h-28.83c-3.62,0-6.46.4-8.44,1.19-2.04.82-3.47,2.26-4.25,4.27-.75,1.94-1.13,4.75-1.13,8.33v27.16H13.82c-3.62,0-6.45.38-8.43,1.12-2.05.77-3.48,2.19-4.26,4.21-.75,1.94-1.13,4.79-1.13,8.46v29.72c0,3.59.38,6.4,1.13,8.34.77,2.02,2.19,3.47,4.22,4.28,1.96.79,4.78,1.19,8.39,1.19h63.39c5.57,0,9.19-.94,11.07-2.86,1.88-1.92,2.8-5.51,2.8-10.95v-29.59c0-5.44-.89-9.01-2.73-10.89-1.69-1.73-4.75-2.68-9.34-2.89,3.85-3.16,6.81-6.96,8.81-11.33Zm-10.63-6.52c-.66,2.68-1.87,5.29-3.58,7.76-1.71,2.46-4.14,4.62-7.23,6.43-3.09,1.81-7.08,2.99-11.81,3.52h-1.71v-22.95c0-2.48.39-4.15,1.16-4.96.76-.8,2.45-1.21,5.01-1.21h14.74c2.49,0,3.38.52,3.69.96.48.69.73,1.71.73,3.05,0,2.21-.34,4.7-1,7.4Zm-24.33,29.54h19.27c2.49,0,4.17.41,4.98,1.22.81.81,1.23,2.48,1.23,4.97v21.29c0,2.48-.41,4.15-1.23,4.97-.81.81-2.49,1.22-4.98,1.22h-19.27v-33.67Zm-13.65,0v33.67h-19.4c-2.49,0-4.14-.41-4.91-1.22-.77-.81-1.17-2.48-1.17-4.97v-21.29c0-2.49.39-4.16,1.17-4.97.77-.81,2.42-1.22,4.91-1.22h19.4Z"/>
  </g>
  </g>
</svg>