<svg xmlns="http://www.w3.org/2000/svg"
     width="512" height="512"
     viewBox="0 0 512 512">
  <g transform="translate(5.689 0.000) scale(4.168023)">
<defs>
    <style>
      .cls-1 {
        stroke-width: 0px;
      }
    </style>
  </defs>
  <g id="Layer_1-2" data-name="Layer 1">
    <path class="cls-1" d="m117.27,27.45c-1.91-1.94-5.59-2.88-11.23-2.88h-34.46c1.83-4.07,4.75-7.22,8.69-9.35,4.17-2.25,10.13-3.39,17.7-3.39h3.93V0h-3.06c-7.87,0-14.53,1.08-19.81,3.21-5.29,2.14-9.53,4.94-12.62,8.34-2.79,3.07-4.95,6.36-6.43,9.79-1.41-3.42-3.55-6.71-6.38-9.79-3.13-3.4-7.38-6.2-12.62-8.34C35.77,1.08,29.08,0,21.12,0h-2.92v11.83h4.21c7.67,0,13.68,1.14,17.87,3.39,3.95,2.13,6.89,5.27,8.74,9.35H14.1c-3.7,0-6.59.41-8.61,1.23-2.08.84-3.54,2.33-4.33,4.41-.77,2.01-1.16,4.9-1.16,8.61v70.23c0,3.58.38,6.39,1.13,8.33.77,2.02,2.2,3.46,4.23,4.28,1.96.79,4.79,1.19,8.4,1.19h23.31c5.57,0,9.2-.94,11.09-2.86,1.89-1.92,2.8-5.5,2.8-10.94V36.4h18.2v72.65c0,3.58.38,6.39,1.13,8.33.77,2.02,2.2,3.46,4.23,4.28,1.96.79,4.79,1.19,8.4,1.19h23.31c5.57,0,9.2-.94,11.09-2.86,1.89-1.92,2.8-5.5,2.8-10.94V38.81c0-5.71-.93-9.43-2.84-11.37Zm-35.38,8.95h18.31c2.51,0,4.2.41,5.02,1.23.82.82,1.24,2.49,1.24,4.98v62.21c0,2.49-.42,4.16-1.24,4.97-.82.81-2.51,1.23-5.02,1.23h-12.05c-2.51,0-4.2-.41-5.02-1.23-.82-.81-1.23-2.49-1.23-4.97V36.4Zm-43.68,0v68.42c0,2.49-.42,4.16-1.24,4.97-.83.81-2.53,1.23-5.05,1.23h-12.12c-2.52,0-4.2-.41-4.98-1.22-.78-.81-1.18-2.49-1.18-4.98v-62.21c0-2.49.4-4.17,1.18-4.98.78-.81,2.45-1.22,4.98-1.22h18.41Z"/>
  </g>
  </g>
</svg>