<svg xmlns="http://www.w3.org/2000/svg"
     width="512" height="512"
     viewBox="0 0 512 512">
  <g transform="translate(68.020 0.000) scale(5.001465)">
<defs>
    <style>
      .cls-1 {
        stroke-width: 0px;
      }
    </style>
  </defs>
  <g id="Layer_1-2" data-name="Layer 1">
    <path class="cls-1" d="m70.06,24.11c-3.4-7.47-8.6-13.41-15.45-17.68C47.77,2.16,38.95,0,28.42,0c-5.12,0-10.17.51-15.02,1.53C8.53,2.55,4.17,4,.41,5.85l-.41.2,5.46,11.17.4-.18c2.98-1.37,6.36-2.59,10.07-3.64,3.69-1.04,7.84-1.57,12.34-1.57,9.33,0,16.99,2.79,22.77,8.31,5.68,5.43,9.05,13.11,10.02,22.85H13.72v11.83h47.52c-.43,11.4-3.58,20.28-9.38,26.39-5.86,6.19-14.72,9.33-26.31,9.33-4.34,0-8.5-.39-12.38-1.17-3.9-.78-7.8-1.68-11.62-2.69l-.57-.15v11.69l.3.11c3.85,1.39,7.8,2.42,11.72,3.06,3.94.65,8.8.97,14.46.97,10.63,0,19.58-2.16,26.61-6.42,7.03-4.27,12.37-10.43,15.86-18.31,3.48-7.85,5.24-17.31,5.24-28.11,0-9.42-1.72-17.97-5.11-25.41Z"/>
  </g>
  </g>
</svg>