<svg xmlns="http://www.w3.org/2000/svg"
     width="512" height="512"
     viewBox="0 0 512 512">
  <g transform="translate(0.000 27.483) scale(4.650318)">
<defs>
    <style>
      .cls-1 {
        stroke-width: 0px;
      }
    </style>
  </defs>
  <g id="Layer_1-2" data-name="Layer 1">
    <path class="cls-1" d="m108.98,46.29c-.77-2.03-2.2-3.45-4.23-4.22-1.96-.74-4.77-1.12-8.36-1.12h-26.85c-4.39,0-7.67.59-9.75,1.75-2.06,1.15-3.42,3.31-4.04,6.44h-10.72L63.25,0H9.76c-2.92,0-5.29.7-7.06,2.08C.89,3.51,0,6.47,0,11.13v8.96c0,6.08,1.2,11.78,3.58,16.95,2.37,5.17,5.78,9.68,10.12,13.4,4.22,3.62,9.22,6.37,14.87,8.19l-14.89,39.64h12.81l13.99-37.39c.36.05.74.08,1.13.08h13.9v23.61c0,3.56.38,6.34,1.12,8.27.77,2.01,2.18,3.44,4.2,4.25,1.95.78,4.75,1.18,8.33,1.18h40.95v-43.49c0-3.68-.38-6.54-1.12-8.5Zm-38.66,38.94c-.77-.81-1.17-2.48-1.17-4.97v-21.29c0-2.49.39-4.16,1.17-4.97.77-.81,2.47-1.22,5.05-1.22h15.78c2.49,0,4.17.41,4.98,1.22.81.81,1.23,2.49,1.23,4.97v27.48h-22c-2.58,0-4.28-.41-5.05-1.22ZM46.02,11.83l-13.41,35.84c-4.46-1.34-8.16-3.4-11.01-6.12-2.94-2.8-5.1-6.05-6.44-9.66-1.34-3.62-2.02-7.21-2.02-10.69,0-4.19.26-6.85.77-7.92.46-.96,1.7-1.45,3.68-1.45h28.42Z"/>
  </g>
  </g>
</svg>