<svg xmlns="http://www.w3.org/2000/svg"
     width="512" height="512"
     viewBox="0 0 512 512">
  <g transform="translate(0.000 44.929) scale(4.295302)">
<defs>
    <style>
      .cls-1 {
        stroke-width: 0px;
      }
    </style>
  </defs>
  <g id="Layer_1-2" data-name="Layer 1">
    <path class="cls-1" d="m116.41,2.79c-1.88-1.88-5.49-2.79-11.03-2.79h-23.15c-3.66,0-6.53.4-8.54,1.19-2.07.82-3.51,2.26-4.3,4.27-.76,1.95-1.15,4.75-1.15,8.33v72.65h-18.2V13.8c0-5.53-.93-9.14-2.86-11.01-1.92-1.87-5.61-2.78-11.27-2.78H13.69c-3.59,0-6.4.4-8.36,1.19C3.31,2.01,1.89,3.45,1.12,5.47c-.74,1.95-1.12,4.76-1.12,8.34v70.64c0,3.59.38,6.4,1.12,8.34.77,2.02,2.19,3.47,4.21,4.28,1.95.79,4.77,1.19,8.36,1.19h91.69c5.55,0,9.16-.94,11.04-2.86,1.88-1.92,2.79-5.51,2.79-10.95V13.82c0-5.54-.91-9.15-2.79-11.03Zm-10.86,15.24v62.21c0,2.49-.42,4.16-1.24,4.97-.82.81-2.51,1.23-5.02,1.23h-18.31V18.03c0-2.49.42-4.16,1.24-4.97.82-.81,2.51-1.23,5.02-1.23h12.05c2.51,0,4.2.41,5.02,1.23.82.82,1.24,2.49,1.24,4.98Zm-68.25,0v68.42h-18.41c-2.52,0-4.2-.41-4.98-1.22-.78-.81-1.18-2.49-1.18-4.98V18.03c0-2.49.4-4.17,1.18-4.98.78-.81,2.45-1.22,4.98-1.22h12.12c2.53,0,4.22.41,5.05,1.23.82.82,1.24,2.49,1.24,4.97Z"/>
  </g>
  </g>
</svg>