<svg xmlns="http://www.w3.org/2000/svg"
     width="512" height="512"
     viewBox="0 0 512 512">
  <g transform="translate(18.963 0.000) scale(5.209605)">
<defs>
    <style>
      .cls-1 {
        stroke-width: 0px;
      }
    </style>
  </defs>
  <g id="Layer_1-2" data-name="Layer 1">
    <path class="cls-1" d="m77.35,0v35.67c0,1.7-.34,2.79-.98,3.15-.75.43-1.7.73-2.78.9l-21.72,2V0h-12.74v43.04l-25.48,2.37V0H0v84.27c0,3.64.38,6.48,1.13,8.45.77,2.05,2.2,3.51,4.23,4.34,1.96.8,4.79,1.21,8.4,1.21h74.51v-11.83H18.86c-2.53,0-4.21-.33-4.99-.98-.52-.43-1.14-1.69-1.14-5.23v-23.55l64.55-5.95c3.76-.36,6.65-.85,8.59-1.45,2.05-.63,3.44-1.92,4.13-3.82.65-1.82.99-4.64.99-8.39V0h-13.65Z"/>
  </g>
  </g>
</svg>