<svg xmlns="http://www.w3.org/2000/svg"
     width="512" height="512"
     viewBox="0 0 512 512">
  <g transform="translate(18.963 0.000) scale(5.209605)">
<defs>
    <style>
      .cls-1 {
        stroke-width: 0px;
      }
    </style>
  </defs>
  <g id="Layer_1-2" data-name="Layer 1">
    <path class="cls-1" d="m89.87,50.92c-.78-2.08-2.21-3.52-4.25-4.3-1.97-.74-4.79-1.12-8.4-1.12h-25.36V0h-12.74v45.5H13.86c-5.47,0-9.06.91-10.99,2.79-1.93,1.88-2.87,5.5-2.87,11.05v38.93h13.65v-34.76c0-2.48.43-4.15,1.28-4.96.85-.82,2.6-1.23,5.2-1.23h19v40.95h13.65v-40.95h18.23c2.6,0,4.32.41,5.13,1.22.81.81,1.21,2.48,1.21,4.97v34.76h13.65v-38.93c0-3.59-.38-6.42-1.13-8.43Z"/>
  </g>
  </g>
</svg>