<svg xmlns="http://www.w3.org/2000/svg"
     width="512" height="512"
     viewBox="0 0 512 512">
  <g transform="translate(105.805 0.000) scale(4.006260)">
<defs>
    <style>
      .cls-1 {
        stroke-width: 0px;
      }
    </style>
  </defs>
  <g id="Layer_1-2" data-name="Layer 1">
    <g>
      <polygon class="cls-1" points="51.16 33.75 51.16 21.5 9.37 21.5 9.37 33.75 16.55 33.75 0 127.8 13.69 127.8 28.85 33.75 31.51 33.75 46.37 127.8 60.53 127.8 43.82 33.75 51.16 33.75"/>
      <path class="cls-1" d="m72.48,33.16c-1.35-2.2-3.22-3.91-5.57-5.07,1.86-1.81,3.31-3.78,4.32-5.88,1.26-2.63,1.9-5.26,1.9-7.81,0-3.81-1.33-7.19-3.97-10.05-2.66-2.88-6.59-4.35-11.67-4.35h-1l-2.72,12.25h1.56c2.23,0,4.78.65,4.78,5.71,0,1.8-.42,3.22-1.29,4.34-.79,1.02-1.98,1.52-3.65,1.52h-1.25v10.66l1.21.04c2.49.09,4.29.79,5.34,2.09,1.12,1.38,1.66,2.77,1.66,4.24s-.53,2.74-1.62,3.96c-1.04,1.16-2.78,1.75-5.18,1.75h-1.56l2.72,12.25h1c5.83,0,10.27-1.79,13.19-5.33,2.86-3.47,4.31-7.3,4.31-11.39,0-3.21-.84-6.21-2.51-8.93Z"/>
    </g>
  </g>
  </g>
</svg>