<svg id="Слой_1" data-name="Слой 1" xmlns="http://www.w3.org/2000/svg" xmlns:xlink="http://www.w3.org/1999/xlink" viewBox="0 0 604.23 420.58"><defs><style>.cls-1{fill:none;}.cls-2{clip-path:url(#clip-path);}</style><clipPath id="clip-path" transform="translate(0 0)" fill="#ffffff"><rect class="cls-1" width="604.23" height="420.58"/></clipPath></defs><g class="cls-2"><path d="M235.65,408c-1.54,1.45-3.07,2.89-4.59,4.34a30.09,30.09,0,0,1-41.94-.61L8.8,231.33a30.08,30.08,0,0,1,0-42.53l180-180a30.08,30.08,0,0,1,41.93-.59c1.53,1.43,3.05,2.87,4.58,4.32a30.08,30.08,0,0,1,.61,43.14L114.51,177.05H574.14a30.09,30.09,0,0,1,30.09,30.09v6.7a30.09,30.09,0,0,1-30.09,30.09H115.23l121,120.94a30.1,30.1,0,0,1-.6,43.16" transform="translate(0 0)" fill="#ffffff"/></g></svg>