<svg id="Слой_1" data-name="Слой 1" xmlns="http://www.w3.org/2000/svg" xmlns:xlink="http://www.w3.org/1999/xlink" viewBox="0 0 500.78 500.65"><defs><style>.cls-1{fill:none;}.cls-2{clip-path:url(#clip-path);}</style><clipPath id="clip-path" transform="translate(0 0)" fill="#ffffff"><rect class="cls-1" width="500.78" height="500.65"/></clipPath></defs><g class="cls-2"><path d="M241.52,0h18a35,35,0,0,0,4.37.75C308.51,3.1,349.41,16.77,387,41c85.42,55,129.45,159.87,108.75,259.39-22.31,107.23-110,187.17-219.08,198.76-65.93,7-125.77-9.94-178.22-50.4C44.68,407.26,12.75,352.46,2.85,285.13,1.6,276.62.93,268,0,259.48v-18c.75-7.57,1.3-15.16,2.29-22.7,6.14-46.38,23.53-88.1,53-124.42,41.46-51.06,94.82-81.77,160-91.49C224,1.62,232.79,1,241.52,0M177,181.63c-8.42,33.63-8.31,109.27.16,137.68H324c8.4-33.59,8.3-109.08-.18-137.68ZM144.59,319.37a410.65,410.65,0,0,1-.06-137.74c-1.61-.12-2.43-.23-3.25-.23-30.9,0-61.81,0-92.72-.1-3.39,0-4.5,1.4-5.44,4.25Q21.73,250.4,43,315.23c1.16,3.53,2.79,4.47,6.31,4.46,30.08-.13,60.16-.07,90.23-.09,1.47,0,2.94-.13,5.05-.23m211.83-.05c1.47.14,2.28.28,3.09.28,31.07,0,62.14-.06,93.21.11,3.63,0,4.35-1.9,5.22-4.54q21.29-64.59.12-129.19c-1.2-3.67-2.89-4.7-6.65-4.68-29.91.16-59.82.08-89.73.1-1.62,0-3.24.14-5.25.23a409.83,409.83,0,0,1,0,137.69m-40.23-170c-5-34.06-40.69-94.62-66.08-112.23C216.32,67.34,196.86,106,184.25,149.28ZM184.25,351.85c12.76,43.35,32.16,82.06,66.12,112.28,28.4-23.55,64.86-86.23,65.55-112.28ZM151.4,149.24c10.75-40.89,27.67-78.72,55.28-112.54-42.5,9.22-78,28.6-107.95,58.13a215.68,215.68,0,0,0-40.26,54.41Zm290.58,0C425.31,102.19,340,37.46,295,37.56c13.35,16.31,24.87,33.64,33.14,52.75s15.27,38.84,23.07,58.93ZM206.15,463.6c-13.48-16.52-25.11-34-33.41-53.24-8.23-19.12-15.2-38.78-22.85-58.52H59.2c13.81,45,95.66,107.31,147,111.76m88.08.73c41.49-9,76.28-27.65,105.86-56.05a217.88,217.88,0,0,0,42.45-56.53H349.61c-10.8,40.82-27.6,78.64-55.38,112.58" transform="translate(0 0)" fill="#ffffff"/></g></svg>