<svg id="Слой_1" data-name="Слой 1" xmlns="http://www.w3.org/2000/svg" xmlns:xlink="http://www.w3.org/1999/xlink" viewBox="0 0 245.07 420.58"><defs><style>.cls-1{fill:none;}.cls-2{clip-path:url(#clip-path);}</style><clipPath id="clip-path" transform="translate(0 0)" fill="#ffffff"><rect class="cls-1" width="245.07" height="420.58"/></clipPath></defs><g class="cls-2"><path d="M115.23,243.93h.2L95.89,224.39a19.94,19.94,0,0,1,0-28.2L115,177.05h-.52L235.88,55.68a30.08,30.08,0,0,0-.61-43.14c-1.53-1.45-3.05-2.89-4.58-4.32a30.08,30.08,0,0,0-41.93.59L8.81,188.8a30.08,30.08,0,0,0,0,42.53L189.12,411.76a30.08,30.08,0,0,0,41.94.6l4.59-4.33a30.1,30.1,0,0,0,.6-43.16l-121-120.94" transform="translate(0 0)" fill="#ffffff"/></g></svg>