<?xml version="1.0" encoding="utf-8"?>
<!-- Generator: Adobe Illustrator 24.3.0, SVG Export Plug-In . SVG Version: 6.00 Build 0)  -->
<svg version="1.1" id="Слой_1" xmlns="http://www.w3.org/2000/svg" xmlns:xlink="http://www.w3.org/1999/xlink" x="0px" y="0px"
	 viewBox="0 0 511.07 389.05" style="enable-background:new 0 0 511.07 389.05;" xml:space="preserve">
<style type="text/css">
	.st0{clip-path:url(#SVGID_2_);}
</style>
<g>
	<defs>
		<rect id="SVGID_1_" width="511.07" height="389.05" fill="#FFFFFF"/>
	</defs>
	<clipPath fill="#FFFFFF" id="SVGID_2_">
		<use xlink:href="#SVGID_1_"  style="overflow:visible;"/>
	</clipPath>
	<path fill="#FFFFFF" class="st0" d="M511.07,65.83v257.34c-0.32,0.9-0.79,1.79-0.94,2.72c-5.91,36.2-36.68,63.01-73.27,63.05
		c-120.88,0.14-241.76,0.16-362.64-0.01c-40.73-0.06-74-33.35-74.1-74c-0.19-80.26-0.15-160.52-0.01-240.78
		C0.17,40.32,23.62,10.68,56.37,2.3c3.18-0.81,6.38-1.53,9.56-2.3C192.36,0,318.78,0,445.2,0c0.91,0.32,1.79,0.75,2.72,0.93
		c31.29,6.09,51.44,24.48,60.68,54.89C509.59,59.11,510.25,62.49,511.07,65.83 M255.58,359.08c59.21,0,118.42,0.03,177.63-0.06
		c4.78-0.01,9.7-0.37,14.31-1.52c20.41-5.12,33.59-22.92,33.6-45.07c0.03-77.96,0.02-155.91,0.01-233.87
		c0-29.92-18.64-48.62-48.44-48.62c-118.09,0-236.17-0.01-354.26,0c-29.58,0-48.41,18.73-48.41,48.15
		C30,155.7,30,233.32,30.01,310.95c0,29.2,18.85,48.12,47.94,48.13C137.16,359.09,196.37,359.08,255.58,359.08"/>
	<path fill="#FFFFFF" class="st0" d="M195.68,194.51c0-24.1,0.08-48.2-0.05-72.3c-0.04-6.66,1.77-12.15,7.83-15.54c6.11-3.42,11.72-1.86,17.32,1.66
		c38.29,24,76.64,47.89,114.95,71.86c13.03,8.15,13.04,20.49,0.02,28.64c-38.31,23.96-76.67,47.85-114.95,71.85
		c-5.6,3.51-11.22,5.1-17.32,1.68c-6.04-3.39-7.88-8.87-7.85-15.54C195.76,242.71,195.68,218.61,195.68,194.51 M226.01,146.9v95.2
		c25.54-15.96,50.5-31.56,76.17-47.6C276.49,178.45,251.53,162.85,226.01,146.9"/>
</g>
</svg>
