<?xml version="1.0" encoding="UTF-8"?>
<svg id="Layer_2" data-name="Layer 2" xmlns="http://www.w3.org/2000/svg" viewBox="0 0 433.4 433.13">
  <defs>
    <style>
      .cls-1 {
        fill: #31a044;
        stroke-width: 0px;
      }
    </style>
  </defs>
  <g id="basement">
    <path class="cls-1" d="m421,146.45c-17.43-17.44-34.86-34.88-52.3-52.31-8.25-8.24-16.49-16.49-24.74-24.73-5.23-5.23-10.46-10.46-15.7-15.69-13.89-13.87-28.25-28.22-42.31-42.38-7.47-7.52-15.67-11.34-24.36-11.34-.19,0-.39,0-.58,0h-.05c-9.67,0-17.82,3.46-24.91,10.56l-2.55,2.55c-14.64,14.68-29.77,29.86-44.77,44.66-1.62,1.6-3.71,2.96-5.73,3.72-33.5,12.71-73.01,27.67-112.14,42.2-13.65,5.07-21.74,15.02-24.05,29.58-3.23,20.39-6.7,41.11-10.05,61.14l-.38,2.25c-5.84,34.87-11.69,69.75-17.54,104.62-6.18,36.84-12.36,73.68-18.53,110.52-.98,5.83.36,11.25,3.77,15.28,3.3,3.9,8.17,6.05,13.7,6.05,1.21,0,2.46-.11,3.71-.32l26.96-4.51c25.62-4.29,51.24-8.58,76.86-12.86,13.63-2.28,27.26-4.56,40.89-6.84,43.7-7.31,88.88-14.87,133.34-22.16,15.04-2.47,24.84-10.39,29.96-24.22,13.94-37.64,28.42-75.93,42-111.7.84-2.22,2.29-4.47,3.96-6.17,10.55-10.71,21.37-21.52,31.84-31.97,4.53-4.52,9.06-9.04,13.58-13.57,16.66-16.68,16.7-35.77.12-52.37Zm-233.39,75.82c12.86.02,23.29,10.48,23.27,23.32-.01,12.82-10.46,23.25-23.29,23.25l-.02,2.54s0,0-.01,0h0v-2.54c-6.18,0-12.01-2.45-16.42-6.87-4.41-4.42-6.83-10.27-6.82-16.46.02-12.81,10.47-23.24,23.29-23.24Zm0-5.08h0s0,0,0,0h0Zm-103.71,156.47c24.93-24.92,50.71-50.7,75.98-76.14.49-.5.8-.73.96-.83.18.05.58.18,1.29.54,7.95,3.98,16.83,6.08,25.65,6.08,15.02,0,29.27-5.82,40.12-16.38,17.34-16.88,22.31-43,12.38-65.02-9.36-20.75-30.07-34.17-52.75-34.17-1.52,0-3.06.06-4.58.18-18.99,1.5-35.97,12.29-45.42,28.88-9.52,16.71-10.14,37.02-1.65,54.33.14.3.43.87.6,1.3-.06.07-.13.15-.22.24-26.22,26.04-52.78,52.61-78.46,78.31-4.88,4.89-9.77,9.77-14.65,14.66l3.02-18.06c3.89-23.25,7.72-46.15,11.54-69.05l3.28-19.66c6.57-39.37,13.36-80.07,19.91-120.14.3-1.85.63-2.26,2.36-2.9,39.05-14.55,74.21-27.74,107.5-40.34.31-.12.52-.18.65-.21.11.08.27.23.5.45,52.39,52.53,99.97,100.11,145.46,145.46.26.26.41.44.48.55-.03.16-.11.49-.33,1.06-15.02,39.69-28.1,74.55-40,106.56-.82,2.21-1.34,2.66-3.48,3.01-45.52,7.46-91.77,15.18-136.5,22.64-10.91,1.82-21.82,3.64-32.74,5.46l-50.47,8.41-6.8,1.13c5.45-5.45,10.91-10.9,16.36-16.36Zm314.38-201.08c-.71.81-1.79,1.89-2.4,2.51-9.92,9.94-19.83,19.87-29.6,29.66l-7.52,7.54-63.57-63.58-74.15-74.15c1.63-1.64,3.27-3.28,4.91-4.93,11.15-11.22,22.67-22.8,34.26-34.14.47.04,1.02.12,1.49.21.05.06.11.13.15.19.34.41.72.87,1.18,1.34,44.31,44.31,88.61,88.61,132.91,132.92.56.56,1.63,1.63,2.34,2.44Z"/>
  </g>
</svg>