<?xml version="1.0" encoding="UTF-8"?>
<svg id="Layer_2" data-name="Layer 2" xmlns="http://www.w3.org/2000/svg" viewBox="0 0 457.55 392.26">
  <defs>
    <style>
      .cls-1 {
        fill: #31a044;
        stroke-width: 0px;
      }
    </style>
  </defs>
  <g id="basement">
    <g id="AWpw90.tif">
      <g>
        <path class="cls-1" d="m125,392.26h-4.99c-1.28-.32-2.54-.73-3.83-.94-16.5-2.69-29.58-16.53-30.89-33.24-.52-6.61-.17-13.29-.2-19.94-.04-6.98-1.46-8.36-8.46-8.48-8.97-.15-18.09.58-26.88-.77C20.22,324.34.12,300.57.07,270.61-.05,200.46.02,130.31.05,60.16c0-3.64.09-7.35.71-10.92C6.01,19.29,29.57.03,61.08.02,172.83-.02,284.58,0,396.33.04c3.98,0,8.02.04,11.93.72,29.77,5.12,49.21,28.63,49.25,59.75.09,69.48.06,138.97-.05,208.45,0,5.44-.43,11.03-1.72,16.29-6.62,27.07-29.53,44.36-58.71,44.4-59.2.08-118.4.07-177.6-.05-4.46,0-7.89,1.28-11.31,4.05-17.69,14.34-35.63,28.37-53.26,42.78-8.95,7.32-17.93,14.26-29.86,15.84ZM228.73,31.93c-56.2,0-112.4-.03-168.6.02-16.81.02-28.09,10.69-28.12,26.98-.11,70.64-.11,141.28,0,211.92.02,15.66,11.09,26.54,26.72,26.86,6.98.14,13.97-.12,20.95.09,19.51.59,34.51,13.59,36.93,32.56.9,7.04.08,14.28.53,21.41.16,2.53,1.19,6.45,2.83,7.08,2.1.8,5.8-.36,7.82-1.94,20.26-15.91,40.46-31.9,60.38-48.25,9.2-7.55,19.28-11.03,31.15-10.99,59.03.18,118.06.1,177.08.07,18.53,0,29.17-10.55,29.18-28.98.03-69.31.02-138.62-.02-207.93,0-2.97-.1-6.03-.82-8.89-3.14-12.56-13.33-19.99-27.42-20-56.2-.04-112.4-.02-168.6-.02Z"/>
        <path class="cls-1" d="m194.45,100.28c2.88,4.36,5.61,8.48,8.58,12.98-16.39,11.36-24.97,26.64-24.04,47.36,2.18,0,4.12-.09,6.04.01,14.53.75,25.04,7.86,30.53,21.13,5.58,13.47,3.25,26.28-6.93,36.89-10.01,10.43-22.54,13.52-36.1,8.65-13.47-4.83-21.69-15.49-25.41-28.84-9.36-33.61-1.96-61.47,24.5-83.38,4.59-3.8,9.66-7.03,14.63-10.34,2.46-1.64,5.2-2.85,8.19-4.46Z"/>
        <path class="cls-1" d="m289.82,99.63c3.33,5.05,6.05,9.18,9,13.64-16.41,11.38-24.98,26.66-24.02,47.35,2.21,0,4.15-.09,6.08.01,14.53.77,25.02,7.9,30.5,21.18,5.56,13.48,3.21,26.29-6.99,36.87-10.02,10.41-22.56,13.48-36.11,8.59-13.46-4.86-21.66-15.52-25.37-28.87-9.36-33.7-1.93-61.59,24.59-83.32,6.86-5.62,14.61-10.16,22.32-15.46Z"/>
      </g>
    </g>
  </g>
</svg>