<svg id="Слой_1" data-name="Слой 1" xmlns="http://www.w3.org/2000/svg" xmlns:xlink="http://www.w3.org/1999/xlink" viewBox="0 0 511 415.59"><defs><style>.cls-1{fill:none;}.cls-2{clip-path:url(#clip-path);}</style><clipPath id="clip-path" transform="translate(0 0)" fill="#ffffff"><rect class="cls-1" width="511.01" height="415.59"/></clipPath></defs><g class="cls-2"><path d="M511,86.06V366.39c-3.57,9.36-11.05,11.41-20.22,12-37.16,2.38-74.36,4.48-111.4,8.14-40.1,4-79.47,12-116.9,27.64a17.86,17.86,0,0,1-14.05-.05c-6.94-2.74-13.89-5.52-21-7.86C178.25,390,127.22,384.77,75.9,381.4c-19.74-1.29-39.51-2.13-59.26-3.4C5.31,377.27,0,371.73,0,361.05Q0,225.89,0,90.73C0,80.25,6.44,74,16.92,74.24c13.8.36,27.59.91,41.39,1.37,1.76,0,3.53,0,5.78,0V69.8c0-17.79-.06-35.58,0-53.37,0-11.14,6.8-17.6,17.8-16.25C95.09,1.8,108.32,3.5,121.25,6.4c42.16,9.47,81.27,25.88,115.36,53,6.59,5.24,12.65,11.14,19,16.82,4.32-4,8.4-8.16,12.84-11.87C314.68,25.77,368.78,6.72,427.87.24c12.71-1.4,19,4.72,19,17.48q0,25.43,0,50.87v5.53c15.54,0,30.32.22,45.1-.08,9.23-.18,15.77,3.09,19,12M240.5,363.45v-236c0-25.85.08-25.95-20.18-42.61C190,60,154.82,45.39,117.11,36.23c-7.36-1.79-14.85-3.06-22.94-4.7V37.4q0,123.2-.11,246.39c0,4.48,1.59,5.83,5.57,6.76A326.23,326.23,0,0,1,182.25,322a300.56,300.56,0,0,1,58.25,41.49M416.83,32.09c-2,.16-3.44.17-4.86.41a291.74,291.74,0,0,0-74,23c-24.14,11.28-46.33,25.44-64,45.76a13.16,13.16,0,0,0-3.32,7.79q-.25,124.93-.13,249.87a36.19,36.19,0,0,0,.44,3.93c1-.79,1.6-1.16,2.09-1.59,40.09-35.69,86.81-58.44,138.82-70.72,4.1-1,5.06-2.7,5.05-6.7q-.18-123.19-.09-246.38Zm30.08,72.23V111q0,93.77,0,187.54c0,10.89-4,16-14.56,18.07-30,6-58.76,15.49-85.72,30C336,352.3,325.87,358.85,315.51,365l.61,1.25c54.22-11.94,109.46-14.54,164.51-17.57V104.32Zm-251.62,262a7.59,7.59,0,0,0-1.14-1.56c-2.17-1.53-4.35-3-6.57-4.51-32.89-21.69-68.93-35.52-107.43-43.35-12.73-2.59-16.06-7-16.06-19.85V105.57H30.31V348.73c55.35,2.87,110.46,5.67,165,17.59" transform="translate(0 0)" fill="#ffffff"/><path d="M207.79,152.32c-.13,11.31-12.31,18.77-22,12.77a136.24,136.24,0,0,0-43.92-17.89c-7.58-1.59-12.15-9.53-10.79-16.76,1.49-7.92,8.63-13.63,16.66-12.33A131.36,131.36,0,0,1,202,140.25c4,2.81,5.87,7.08,5.78,12.07" transform="translate(0 0)" fill="#ffffff"/><path d="M148,202.79c4,1.06,10.22,1.94,15.78,4.33,11.84,5.09,23.55,10.61,34.95,16.64,8.45,4.47,10.76,13.76,6.26,21.2-4.37,7.24-13.28,9.3-21.35,4.62-13.1-7.6-26.53-14.22-41.55-17.35-7.37-1.53-12.07-9-11.17-16.14,1-7.5,7.48-13.26,17.08-13.3" transform="translate(0 0)" fill="#ffffff"/><path d="M319.53,167c-8,0-13.49-4-15.55-10s-.39-12.94,4.77-16.56a130.11,130.11,0,0,1,54.74-22.35c8-1.27,15.14,4.58,16.51,12.5,1.26,7.24-3.36,15-11,16.65a127.38,127.38,0,0,0-43.88,18c-2,1.29-4.64,1.48-5.6,1.77" transform="translate(0 0)" fill="#ffffff"/><path d="M320.94,252.14c-8.39,0-14.29-4.13-16.25-9.94-2.15-6.34-.12-13.66,5.54-17.21,16.12-10.08,33.12-18.25,51.94-21.91a15.11,15.11,0,0,1,17.77,12.11,15,15,0,0,1-11.56,17.24c-13.86,2.83-26.32,8.82-38.5,15.69a87.34,87.34,0,0,1-8.94,4" transform="translate(0 0)" fill="#ffffff"/></g></svg>