<?xml version="1.0" encoding="UTF-8"?>
<svg id="Layer_2" data-name="Layer 2" xmlns="http://www.w3.org/2000/svg" viewBox="0 0 511 510.99">
  <defs>
    <style>
      .cls-1 {
        fill: #fff;
        stroke-width: 0px;
      }
    </style>
  </defs>
  <g id="basement">
    <g id="_59mwOr.tif" data-name="59mwOr.tif">
      <g>
        <path class="cls-1" d="m511,0c-8.67,65.4-17.27,130.81-26.03,196.19-4.01,29.94-32.79,53.31-62.34,50.93-32.97-2.66-57.35-28.56-56.58-60.66.55-23.19,11.18-40.87,31.61-51.79,20.23-10.82,40.56-9.63,60.24,2.16,1.27.76,2.51,1.55,4.38,2.71,4.68-35.33,9.3-70.18,14.03-105.83-9.53.92-18.55,1.76-27.57,2.66-31.59,3.17-63.18,6.35-94.76,9.53-9.76.98-19.5,2.1-29.28,2.9-2.68.22-3.15,1.43-3.45,3.72-3.58,27.52-7.24,55.03-10.9,82.54-3.58,26.85-6.86,53.74-10.88,80.52-4.36,29.06-29.53,50.15-58.87,50.13-29.16-.02-54.37-20.91-58.91-49.55-4.01-25.26,4.76-45.83,25.94-59.92,21.02-13.98,43.09-13.71,64.9-.9,1.27.75,2.51,1.54,4.44,2.74,1.17-8.43,2.32-16.37,3.37-24.32,4.76-36.08,9.52-72.16,14.16-108.25.41-3.22,1.97-4.06,4.81-4.33,24.15-2.34,48.3-4.74,72.45-7.17,38.7-3.88,77.4-7.78,116.09-11.72,6.07-.62,12.11-1.51,18.16-2.28,1.66,0,3.33,0,4.99,0Zm-85.22,157.47c-16.64.02-29.75,13.08-29.83,29.71-.09,16.52,13.11,29.96,29.56,30.11,16.54.15,30.26-13.53,30.2-30.09-.06-16.48-13.42-29.75-29.93-29.73Zm-185.47,78.25c16.59.1,29.98-12.98,30.15-29.45.16-16.62-13.37-30.35-29.92-30.35-16.31,0-29.84,13.52-29.92,29.88-.08,16.45,13.2,29.82,29.7,29.91Z"/>
        <path class="cls-1" d="m0,460.1c.83-2.85,1.54-5.75,2.51-8.56,6.35-18.42,23.59-30.54,43.09-30.36,1.95.02,3.9,0,6.22,0-3.87-20.77-7.66-41.16-11.45-61.54-1.4-7.51-2.8-15.02-4.24-22.53-.46-2.42-.5-4.23,2.4-5.53,45.47-20.33,90.88-40.79,136.32-61.21.45-.2.94-.32,2.11-.7,1.12,5.87,2.27,11.64,3.32,17.42,7.26,40.04,14.6,80.07,21.72,120.14,4.55,25.63-12.59,48.42-39.1,52.43-23.63,3.57-46.02-14.4-49.66-39.86-3.34-23.33,14.85-46.36,39.13-49.3,3.91-.47,7.92-.07,12.58-.07-3.55-19.53-7-38.54-10.54-58.05-12.66,5.7-24.9,11.23-37.14,16.74-14.54,6.54-29.03,13.17-43.65,19.52-3.3,1.43-4.4,3.01-3.7,6.67,5.58,29.2,11.05,58.43,16.37,87.68,1.86,10.24,4.88,20.36,2.8,31.06-4.08,21.02-21.97,36.56-42.98,36.93-21.79.39-40.42-14.34-45.09-35.61-.24-1.12-.67-2.19-1.02-3.29,0-3.99,0-7.98,0-11.98Zm172.72-44.86c.13-8.22-6.3-14.89-14.55-15.08-8.33-.19-15.28,6.58-15.32,14.93-.04,7.93,6.84,14.82,14.92,14.94,8.01.12,14.82-6.62,14.96-14.79Zm-112.85,50.64c-.05-8.05-6.86-14.75-15.01-14.75-8.02,0-14.8,6.79-14.89,14.91-.08,8.22,6.95,15.12,15.29,15,8.04-.12,14.66-6.98,14.61-15.15Z"/>
        <path class="cls-1" d="m76.18,151.48c-7.48-37.24-14.89-74.12-22.5-111.98,34,22.53,67.18,44.52,100.63,66.69-5.58,8.43-10.88,16.44-16.5,24.92-13.3-8.78-26.39-17.41-40.49-26.72,2.14,10.74,4.04,20.29,5.94,29.85,3.63,18.23,7.49,36.42,10.83,54.71,4.47,24.49-13.3,48.64-37.61,51.63-26.46,3.26-49.25-14.93-51.37-41-2.03-24.96,17.64-47.11,42.72-48.08,2.63-.1,5.26-.01,8.35-.01Zm-6.48,29.9c-8.18.05-14.87,6.88-14.75,15.06.12,8.1,7.03,14.8,15.19,14.75,8.05-.05,14.75-6.98,14.71-15.18-.05-8.15-6.8-14.67-15.15-14.63Z"/>
        <path class="cls-1" d="m360.12,376.23c16.24-34,32.27-67.52,48.87-102.28,13.59,38.4,26.82,75.77,40.28,113.82-9.27,3.3-18.38,6.53-28.16,10.01-5.37-15.07-10.62-29.83-16.22-45.56-1.17,2.34-1.94,3.86-2.68,5.4-11.02,23.07-21.86,46.22-33.1,69.18-13.2,26.98-46.22,34.62-69.01,16.23-19.2-15.49-22.28-43.76-6.87-62.92,15.51-19.27,43.43-22.47,62.91-7.21,1.17.92,2.29,1.91,3.97,3.32Zm-16.86,32.08c.04-8.19-6.59-15.01-14.65-15.09-8.47-.09-15.26,6.6-15.22,14.99.04,8.17,6.73,14.87,14.86,14.88,8.11,0,14.97-6.75,15.01-14.78Z"/>
      </g>
    </g>
  </g>
</svg>