<?xml version="1.0" encoding="UTF-8"?>
<svg id="Layer_2" data-name="Layer 2" xmlns="http://www.w3.org/2000/svg" viewBox="0 0 511.19 449.07">
  <defs>
    <style>
      .cls-1 {
        fill: #f0ea6c;
        stroke-width: 0px;
      }
    </style>
  </defs>
  <g id="basement">
    <g id="fsp3g5.tif">
      <g>
        <path class="cls-1" d="m274.65,0c6.65,0,13.31,0,19.96,0,2.1.4,4.2.8,6.29,1.21,41.37,8,70.22,31.46,83.19,71.53,12.99,40.13,3.18,75.99-25.93,106.49-1.19,1.24-3.01,1.88-5.07,3.12,27.01,14.11,36.33,29.52,36.33,58.01,0,3.07,0,6.14,0,9.79,2.23-1.01,3.73-1.64,5.18-2.35,30.99-15.22,61.99-30.43,92.95-45.72,4.69-2.32,9.7-4.07,14.23-1.18,3.68,2.35,6.31,6.36,9.4,9.64v207.54c-7.13,11.99-12.98,13.64-25.86,7.31-30.25-14.87-60.5-29.73-90.75-44.58-1.53-.75-3.11-1.39-5.18-2.31,0,5.99.09,11.14-.01,16.28-.58,29.92-24.17,54.05-54.05,54.13-93.62.25-187.23.24-280.85.01-30.12-.07-54.09-24.28-54.22-54.43-.24-53.53-.33-107.06.06-160.59.16-21.98,11.03-38.12,30.39-48.51,1.39-.75,2.81-1.45,5.14-2.65-1.57-1.16-2.76-1.83-3.68-2.76C4.1,151.34-6.34,117.22,3.78,78.46,13.84,39.95,39.3,15.13,77.55,3.77,83.24,2.08,89.18,1.23,95,0c6.65,0,13.31,0,19.96,0,.76.27,1.5.7,2.28.8,32.25,4.16,57.24,20,75.47,46.77.61.89,1.36,1.68,2.24,2.75.83-1.16,1.41-1.94,1.95-2.75,12.8-19.33,30-33.28,51.81-41.06C257.07,3.53,265.99,2.12,274.65,0Zm-79.8,419.07c45.72,0,91.45,0,137.17,0,17.34,0,27.45-10.19,27.46-27.65.01-51.53.02-103.06,0-154.59,0-17.07-10.23-27.29-27.3-27.29-91.61,0-183.23,0-274.84,0-17.01,0-27.2,10.26-27.2,27.39-.01,51.53-.01,103.06,0,154.59,0,17.4,10.15,27.55,27.55,27.55,45.72.01,91.45,0,137.17,0Zm-15.02-314.32c0-41.22-33.62-74.82-74.86-74.81-41.24,0-74.84,33.6-74.83,74.83,0,41.21,33.64,74.84,74.86,74.83,41.23-.01,74.85-33.64,74.84-74.85Zm29.95-.05c-.02,41.23,33.59,74.88,74.79,74.89,41.24.01,74.89-33.58,74.91-74.78.02-41.23-33.57-74.86-74.8-74.88-41.25-.02-74.88,33.54-74.9,74.76Zm271.11,285.13v-150.51c-.67.07-1.04.01-1.31.15-29.21,14.32-58.44,28.62-87.55,43.13-1.37.68-2.48,3.3-2.5,5.03-.18,17.62-.01,35.24-.2,52.85-.03,3.3.96,4.97,3.94,6.39,14.83,7.08,29.54,14.4,44.3,21.65,14.27,7.01,28.54,14.04,43.32,21.31ZM210.41,179.36c-5.47-6.93-10.57-13.37-15.62-19.77-5.2,6.61-10.26,13.04-15.55,19.77h31.18Z"/>
        <path class="cls-1" d="m259.28,359.2c-17.45,0-34.9.02-52.35,0-11.26-.02-17.1-5.91-17.11-17.27-.02-28.41-.02-56.82,0-85.23,0-11.34,5.85-17.21,17.16-17.22,35.23-.02,70.46-.02,105.7,0,10.93,0,16.85,5.99,16.86,17.01.02,28.58.02,57.15,0,85.73,0,11-5.95,16.95-16.91,16.97-17.78.03-35.56,0-53.35,0Zm-39.3-30.29h79.22v-59.25h-79.22v59.25Z"/>
        <path class="cls-1" d="m110.51,299.34c10.96,0,21.92-.03,32.87,0,9.68.04,16.43,6.16,16.47,14.87.05,8.73-6.69,15.02-16.31,15.04-22.41.05-44.83.05-67.24,0-9.55-.02-16.32-6.41-16.22-15.12.09-8.5,6.78-14.73,16.06-14.78,11.46-.06,22.91-.01,34.37-.02Z"/>
        <path class="cls-1" d="m109.44,389.13c-10.96,0-21.92.03-32.87,0-9.67-.04-16.42-6.18-16.48-14.87-.06-8.7,6.71-15.02,16.3-15.04,22.41-.04,44.83-.04,67.24,0,9.57.02,16.33,6.39,16.23,15.11-.1,8.54-6.75,14.74-16.05,14.79-11.46.07-22.91.02-34.37.02Z"/>
        <path class="cls-1" d="m104.9,59.88c24.82-.03,45.04,20.22,44.97,45.05-.07,24.58-20.21,44.68-44.81,44.72-24.79.04-45.05-20.26-44.98-45.06.07-24.56,20.24-44.68,44.82-44.71Zm15.03,44.85c-.02-8.07-6.78-14.86-14.86-14.91-8.07-.05-14.93,6.66-15.04,14.73-.12,8.26,6.86,15.26,15.11,15.17,8.07-.09,14.81-6.92,14.79-14.99Z"/>
        <path class="cls-1" d="m329.53,104.65c.05,24.81-20.21,45.06-45.02,45-24.57-.06-44.72-20.21-44.77-44.77-.05-24.8,20.22-45.06,45.03-45,24.6.06,44.71,20.17,44.76,44.77Zm-29.94.31c.11-8.07-6.56-14.96-14.64-15.14-8.05-.18-15.02,6.45-15.26,14.51-.25,8.25,6.63,15.36,14.88,15.39,8.07.03,14.91-6.69,15.02-14.76Z"/>
      </g>
    </g>
  </g>
</svg>