<?xml version="1.0" encoding="utf-8"?>
<!-- Generator: Adobe Illustrator 24.3.0, SVG Export Plug-In . SVG Version: 6.00 Build 0)  -->
<svg version="1.1" id="Слой_1" xmlns="http://www.w3.org/2000/svg" xmlns:xlink="http://www.w3.org/1999/xlink" x="0px" y="0px"
	 viewBox="0 0 511.01 511.14" style="enable-background:new 0 0 511.01 511.14;" xml:space="preserve">
<style type="text/css">
	.st0{clip-path:url(#SVGID_2_);fill:#f0ea6c;}
</style>
<g>
	<defs>
		<rect id="SVGID_1_" width="511.01" height="511.14"/>
	</defs>
	<clipPath id="SVGID_2_">
		<use xlink:href="#SVGID_1_"  style="overflow:visible;"/>
	</clipPath>
	<path class="st0" d="M330.35,0c2.33,0,4.66,0,6.99,0c2.52,1.55,5.27,2.83,7.53,4.7c19.56,16.28,39.06,32.62,58.5,49.03
		c8.24,6.95,8.89,15.26,2,23.53c-8.94,10.73-17.9,21.45-26.96,32.08c-1.7,2-2.07,3.5-0.88,6.09c7.98,17.33,5.85,33.57-5.88,48.58
		c-1.48,1.89-3.01,3.73-4.65,5.77c59.83,8.89,102.83,39.54,123.65,96.05c20.88,56.67,7.81,107.96-32.2,153.34
		c12.26,0,23.88-0.02,35.49,0.01c11.05,0.02,17.03,5.91,17.04,16.86c0.03,18.46,0.01,36.92,0.01,55.39
		c0,14.5-5.01,19.57-19.35,19.57c-157.18,0-314.36-0.05-471.54,0.14c-9.27,0.01-16.12-2.49-20.11-11.11v-69.86
		c3.98-8.64,10.81-11.82,20.11-11.06c5.34,0.44,10.75,0.08,16.37,0.08c-1.38-4.14-3.23-7.51-3.54-11.03
		c-0.98-10.88-1.64-21.81-1.91-32.73c-0.25-9.96,6.15-16.1,16.21-16.1c65.68-0.03,131.37-0.03,197.05,0
		c10,0.01,16.22,6.18,16.18,16.18c-0.05,13.98,1.49,28.14-4.96,41.72c1.27-0.14,1.79-0.09,2.22-0.26
		c39.75-16.37,79.65-32.4,119.19-49.29c24.54-10.48,37.27-36.53,32.17-62.79c-4.84-24.89-27.53-44.43-52.71-45.2
		c-2.07-0.06-4.7,0.61-6.2,1.92c-19.97,17.61-42.48,22.31-67.65,13.59c-2.55-0.88-3.87-0.47-5.45,1.51
		c-3.1,3.9-6.24,7.81-9.73,11.36c-12.45,12.67-27.4,17.04-44.64,12.47c-3.12-0.83-4.71-0.08-6.63,2.26
		c-8.63,10.55-17.46,20.94-26.24,31.37c-7.23,8.59-15.32,9.48-23.83,2.39c-19.54-16.29-39.03-32.64-58.47-49.03
		c-8.31-7.01-9.02-15.17-2.11-23.5c8.81-10.62,17.66-21.21,26.63-31.7c1.92-2.24,2.47-3.82,1.1-6.87
		c-7.61-16.94-6.18-33.34,5.72-47.69c34.17-41.21,68.58-82.22,103.24-123.02c12.18-14.34,28.11-18.81,46.38-13.99
		c2.67,0.7,4.18,0.21,5.91-1.9c8.12-9.9,16.25-19.8,24.75-29.36C322.37,5.86,326.59,3.14,330.35,0 M255.3,256.14
		c-21.93-28.67-16.93-61.12-1.22-81.13c8.54-10.87,19.37-18.54,32.71-22.52c17.62-5.26,34.45-2.91,50.76,5.61
		c3.17-3.76,6.17-7.29,9.13-10.86c8.24-9.92,7.64-17.4-2.18-25.66c-18.69-15.74-37.42-31.43-56.15-47.12
		c-10.02-8.39-17.51-7.64-25.99,2.48c-14.95,17.84-29.91,35.66-44.87,53.48c-18.17,21.65-36.37,43.26-54.48,64.96
		c-6.16,7.37-6.13,16.04,0.6,21.79c20.47,17.49,41.11,34.79,61.87,51.95c6.15,5.08,14.45,4.35,19.91-1.32
		C248.92,264.1,252.04,260,255.3,256.14 M480.83,449.47H30.35v31.33h450.48V449.47z M333.45,418.16c0.05,0.34,0.1,0.68,0.15,1.01
		c24.25,0,48.49,0.04,72.74-0.08c1.68-0.01,3.47-0.97,5.01-1.84c68.5-38.7,79.1-133.88,20.81-187.01
		c-17.77-16.2-38.58-26.03-62.76-29.52v30.17c0.51,0.13,1.62,0.43,2.74,0.68c38.96,8.6,67.54,43.45,67.98,82.93
		c0.41,36.66-20.39,67.98-54.73,82.27C368.1,403.97,350.77,411.04,333.45,418.16 M61.13,389.43c-1.21,18.44,9.25,29.71,27.08,29.75
		c5.48,0.01,10.97,0,16.45,0c33.41,0,66.81,0.07,100.22-0.03c16.61-0.05,28.58-14.41,24.94-29.72H61.13z M305.29,249.5
		c19.21,0.04,34.98-15.63,35.02-34.82c0.04-19.23-15.6-34.97-34.81-35.02c-19.24-0.05-34.97,15.6-35.02,34.81
		C270.44,233.69,286.1,249.45,305.29,249.5 M335.75,36.08c-6.46,7.7-12.71,15.15-19.23,22.92c12.95,10.86,25.48,21.38,38.22,32.06
		c6.47-7.72,12.72-15.17,19.22-22.93C361.07,57.32,348.53,46.8,335.75,36.08 M194.3,282.2c-12.87-10.8-25.41-21.33-38.18-32.05
		c-6.54,7.79-12.8,15.25-19.24,22.93c12.92,10.82,25.47,21.34,38.24,32.03C181.68,297.28,187.84,289.92,194.3,282.2"/>
</g>
</svg>
