<svg id="Слой_1" data-name="Слой 1" xmlns="http://www.w3.org/2000/svg" xmlns:xlink="http://www.w3.org/1999/xlink" viewBox="0 0 276.39 425.59"><defs><style>.cls-1{fill:none;}.cls-2{clip-path:url(#clip-path);}.cls-3{fill:#fff;}</style><clipPath id="clip-path" transform="translate(0 0)"><rect class="cls-1" width="276.39" height="425.59"/></clipPath></defs><g class="cls-2"><path class="cls-3" d="M0,40.2v-6c2.17-5.5,3.46-11.6,6.68-16.4C15.34,4.9,28.25,0,43.54,0c63.27.1,126.53,0,189.8.1a58.25,58.25,0,0,1,13.32,1.34C266.75,6.18,278.79,23.26,276,43.67a175.57,175.57,0,0,1-31.68,79.73c-15.82,22-35.56,40.33-54.91,59-18.6,18-18.56,42.61,0,60.73,10,9.76,20,19.44,29.86,29.35,29.38,29.63,49.69,64.09,56.38,105.92,2.78,17.37-2.42,31.24-16.23,40.24-7.92,5.16-16.68,6.93-26,6.92q-94.9-.12-189.8,0a54,54,0,0,1-7-.25c-15-1.92-26.52-9.15-33.18-23.06C1.78,398.85,1.11,395,0,391.38v-6a19.26,19.26,0,0,0,.85-2.81c4.69-33.33,16.86-63.65,38.83-89.18,15.14-17.58,31.82-33.86,48.19-50.34,18-18.12,18.18-42.67-.05-60.48C77.73,172.71,67.5,163,57.63,152.89,35.07,129.82,16.64,104,7.54,72.6,4.46,62,2.48,51,0,40.2M138.51,393.62q41.58,0,83.15,0c8,0,12.5-4.21,12.11-11.17-1.61-28.6-10.11-54.73-30.45-75.43-18.61-18.93-38.37-36.72-57.79-54.83-4.5-4.18-10.34-3.52-15.25,1C115.48,266.76,100.78,280.46,86,294c-25.22,23-40.58,50.83-42.47,85.5-.56,10.13,2.62,14.1,12.88,14.11q41.08,0,82.15,0" transform="translate(0 0)"/></g></svg>