<?xml version="1.0" encoding="UTF-8"?>
<svg id="Layer_2" data-name="Layer 2" xmlns="http://www.w3.org/2000/svg" viewBox="0 0 404.4 468.78">
  <defs>
    <style>
      .cls-1 {
        fill: #afb2f5;
        stroke-width: 0px;
      }
    </style>
  </defs>
  <g id="field">
    <g id="_7cTSqK.tif" data-name="7cTSqK.tif">
      <g>
        <path class="cls-1" d="m404.4,121.74v310.34c-.24.43-.6.83-.71,1.29-5.48,22.7-21.12,35.35-44.17,35.36-76.61.05-153.21.08-229.82-.01-26.26-.03-44.5-18.44-44.51-44.63-.03-97.91-.01-195.82,0-293.73,0-2.65,0-5.34.41-7.95,3.56-22.46,20.74-36.8,44.31-36.82,57.5-.05,114.99-.03,172.49-.01,20.44,0,40.88-.2,61.32.17,17.15.32,31.99,11.44,37.92,27.58,1.02,2.77,1.84,5.61,2.76,8.41Zm-42.65,155.16c0-41.74.02-83.48-.01-125.22-.01-15.22-8.55-23.69-23.86-23.7-62.01-.02-124.01-.02-186.02,0-15.58,0-24.02,8.45-24.03,24.03-.02,83.31-.02,166.63,0,249.94,0,15.92,8.32,24.14,24.35,24.14,61.67,0,123.35,0,185.02,0,16.31,0,24.53-8.18,24.54-24.47.02-41.57,0-83.15,0-124.72Z"/>
        <path class="cls-1" d="m279.71,0c1.2.46,2.39.96,3.61,1.38,10.17,3.53,16,13.28,14.32,23.96-1.54,9.76-10.34,17.41-20.69,17.51-16.95.16-33.9.05-50.85.05-53.01,0-106.03,0-159.04,0-16.16,0-24.5,8.36-24.5,24.62-.01,83.29,0,166.58-.02,249.86,0,13.05-6.78,21.52-18.47,23.3-11.32,1.73-22.56-6.94-23.72-18.34-.18-1.81-.18-3.65-.18-5.48C.15,226.45.36,136.01,0,45.58-.09,21.89,15.47,5.48,33.05,1.45c2.08-.48,4.16-.97,6.25-1.45,80.14,0,160.27,0,240.41,0Z"/>
      </g>
    </g>
  </g>
</svg>