<?xml version="1.0" encoding="utf-8"?>
<!-- Generator: Adobe Illustrator 24.3.0, SVG Export Plug-In . SVG Version: 6.00 Build 0)  -->
<svg version="1.1" id="Слой_1" xmlns="http://www.w3.org/2000/svg" xmlns:xlink="http://www.w3.org/1999/xlink" x="0px" y="0px"
	 viewBox="0 0 511.02 453.67" style="enable-background:new 0 0 511.02 453.67;" xml:space="preserve">
<style type="text/css">
	.st0{clip-path:url(#SVGID_2_);fill:#FFFFFF;}
</style>
<g>
	<defs>
		<rect id="SVGID_1_" width="511.02" height="453.67"/>
	</defs>
	<clipPath id="SVGID_2_">
		<use xlink:href="#SVGID_1_"  style="overflow:visible;"/>
	</clipPath>
	<path class="st0" d="M511.02,73.16c-15.75,18.21-31.38,36.52-47.26,54.6c-93.27,106.2-186.6,212.36-279.91,318.52
		c-0.88,1-1.72,2.03-2.65,2.98c-6.01,6.14-12.59,5.88-17.81-0.95c-11.2-14.66-22.28-29.42-33.4-44.15
		C88.2,348.86,46.4,293.56,4.62,238.25c-6.84-9.06-6.22-13.54,2.81-20.37c22.01-16.64,44.04-33.28,66.06-49.9
		c8.32-6.28,13.31-5.57,19.69,2.86c27.17,35.93,54.32,71.88,81.49,107.82c1.1,1.46,2.22,2.89,3.81,4.94
		c1.65-1.8,3.18-3.42,4.65-5.09c79.7-90.68,159.39-181.36,239.08-272.05c7.21-8.2,12.1-8.53,20.22-1.4
		c20.73,18.23,41.51,36.41,62.17,54.71c2.42,2.14,4.29,4.91,6.42,7.39V73.16z"/>
</g>
</svg>
