<svg id="tip" data-name="tip" xmlns="http://www.w3.org/2000/svg" xmlns:xlink="http://www.w3.org/1999/xlink" viewBox="0 0 517.4 799.57"><defs><style>.cls-1{fill:none;}.cls-2{clip-path:url(#clip-path);}</style><clipPath id="clip-path" transform="translate(0 0)" fill="#4b50c4"><rect class="cls-1" width="517.4" height="799.57"/></clipPath></defs><g class="cls-2"><path d="M258.68,568.14c-26.9,0-53.8.08-80.7,0-25.91-.11-47.32-17.49-52.36-42.49a64.85,64.85,0,0,1-1.05-11.9q-.21-15.36,0-30.73a5.2,5.2,0,0,0-2.82-5.15Q51.65,433.8,19.6,357.41A252.16,252.16,0,0,1,.46,244.19C3.92,185.64,24.78,133.89,63.21,89.6,103,43.8,152.93,15.31,212.58,4.16a253.91,253.91,0,0,1,77.34-2.22C385.85,13.39,467.44,78.6,501,168.27c12.7,33.91,18.27,69,15.83,105.11q-7.75,114.58-97,187.3c-7.91,6.44-16.65,11.88-25.07,17.68a3.79,3.79,0,0,0-2,3.57c0,12,.2,24-.13,36-.66,24.3-19.91,46.08-44,49.24-9.19,1.2-18.6.91-27.91,1-20.66.13-41.31,0-62,0m-.6-259.54c1.2-1.09,1.76-1.56,2.28-2.08q19.27-19.25,38.53-38.49c8.9-8.89,17.58-18,26.83-26.52,7.83-7.2,17.38-8.64,27.26-4.8,9.7,3.76,15.28,11.19,16.75,21.52,1.33,9.3-2.06,16.95-8.54,23.43q-37,37-74,74.07a5.73,5.73,0,0,0-1.59,3.61q-.11,76.07-.05,152.14c0,.72.09,1.44.14,2.15h53.4V510q0-22.11,0-44.22a36.51,36.51,0,0,1,.34-5.73c1.48-9.29,6.62-15.94,14.88-20.32,23.82-12.64,44.76-29,61.71-50,43.41-53.73,57.38-114.56,41.1-181.61C437.65,127.85,368.87,66.85,286.47,55.64A202.59,202.59,0,0,0,185.15,67.4C109.29,96.47,57.26,168.67,53.92,249.9A201.4,201.4,0,0,0,77.1,353.66c19.6,37.23,48.12,65.72,85.16,85.64,10.71,5.77,16.07,14.44,16,26.65-.12,15.16,0,30.31,0,45.47,0,.72.07,1.45.11,2.23h53.43v-4.13c0-48-.11-96.1.15-144.15,0-5.93-1.75-9.9-5.9-14-23.45-23.07-46.52-46.52-69.9-69.66-13.14-13-10.8-32.19,2.31-41.85,10.71-7.88,25.26-6.54,35.26,3.43q31.42,31.29,62.7,62.73a15.48,15.48,0,0,1,1.7,2.57" transform="translate(0 0)" fill="#4b50c4"/><path d="M315.26,729.77c0,5.82.24,11.24,0,16.62-1.71,33.25-32.93,58.06-65.76,52.36-23.67-4.1-41.5-21.18-46.39-44.72a86.43,86.43,0,0,1-1.23-12.89c-.2-3.65,0-7.31,0-11.39h-3c-11.74,0-23.49.22-35.21-.22-13.24-.5-23.82-11.3-24.81-24.57a26.8,26.8,0,0,1,21.05-28.21,35.44,35.44,0,0,1,7.2-.62q91.68,0,183.34,0c11.62,0,20.31,4.87,25.73,15.27,7.09,13.61-.58,32.28-15.24,36.7a40,40,0,0,1-10.53,1.61c-10.57.21-21.15.08-31.73.08h-3.31" transform="translate(0 0)" fill="#4b50c4"/><path d="M258.52,649.24q-46,0-91.95,0c-11.55,0-20.08-5.08-25.38-15.41-6.95-13.54.75-32.14,15.28-36.53A37.36,37.36,0,0,1,167,595.67q91.7-.13,183.4-.06c11.52,0,20.15,4.82,25.59,15.09,6.15,11.63,1.35,27.95-10,34.55a30.42,30.42,0,0,1-15.74,4q-45.84,0-91.69,0Z" transform="translate(0 0)" fill="#4b50c4"/></g></svg>